G04 Layer_Color=255*
%FSLAX44Y44*%
%MOMM*%
G71*
G01*
G75*
%ADD12R,1.2700X1.0160*%
%ADD13R,0.8000X1.0500*%
%ADD14R,1.0000X2.0000*%
%ADD15R,1.5000X2.0000*%
%ADD16R,0.5100X0.7300*%
%ADD17R,0.6000X0.5000*%
%ADD18R,0.5000X0.6000*%
%ADD19R,0.8000X0.8000*%
%ADD20R,0.5400X0.3000*%
%ADD21R,0.5400X0.5400*%
%ADD22R,0.3000X0.5400*%
%ADD23R,0.3000X0.3000*%
%ADD24R,0.8000X1.0000*%
%ADD25R,1.0000X0.8000*%
%ADD26R,0.5150X0.4250*%
%ADD27R,0.2750X0.4250*%
%ADD28R,2.5000X1.5500*%
%ADD29R,0.7400X1.2500*%
%ADD30R,1.8000X1.2500*%
%ADD31R,1.0160X1.2700*%
%ADD32R,0.6000X0.5600*%
%ADD33R,0.6000X0.5400*%
%ADD57C,2.0000*%
%ADD58P,2.1648X8X292.5*%
%ADD59O,1.8000X0.9000*%
%ADD60R,1.8000X1.8000*%
%ADD61C,1.8000*%
%ADD62C,0.8500*%
D12*
X313250Y328180D02*
D03*
Y305320D02*
D03*
X123000Y292930D02*
D03*
X123000Y270000D02*
D03*
D13*
X203000Y315000D02*
D03*
X187000D02*
D03*
D14*
X9500Y14000D02*
D03*
X222500D02*
D03*
Y68000D02*
D03*
X24500D02*
D03*
X9500D02*
D03*
D15*
X192500Y14000D02*
D03*
Y68000D02*
D03*
D16*
X274401Y161000D02*
D03*
X283601D02*
D03*
D17*
X276000Y99000D02*
D03*
Y109000D02*
D03*
X276000Y70000D02*
D03*
X286000D02*
D03*
X129000Y310000D02*
D03*
X139000D02*
D03*
X280000Y324000D02*
D03*
X290000D02*
D03*
X224000Y126000D02*
D03*
X234000D02*
D03*
X266000Y299000D02*
D03*
X256000Y299000D02*
D03*
D18*
X276000Y80000D02*
D03*
Y90000D02*
D03*
X103000Y248000D02*
D03*
Y258000D02*
D03*
X280000Y313000D02*
D03*
Y303000D02*
D03*
X259000Y111000D02*
D03*
Y101000D02*
D03*
X130000Y146000D02*
D03*
Y156000D02*
D03*
X116000Y309000D02*
D03*
X116000Y319000D02*
D03*
X172000Y321000D02*
D03*
Y311000D02*
D03*
X250000Y111000D02*
D03*
Y101000D02*
D03*
D19*
X224000Y281000D02*
D03*
X208000D02*
D03*
X176000D02*
D03*
X192000D02*
D03*
X160000D02*
D03*
Y261000D02*
D03*
X192000D02*
D03*
X176000D02*
D03*
X208000D02*
D03*
X224000D02*
D03*
Y241000D02*
D03*
X208000D02*
D03*
X176000D02*
D03*
X192000D02*
D03*
X160000D02*
D03*
X224000Y201000D02*
D03*
X208000D02*
D03*
X176000D02*
D03*
X192000D02*
D03*
X160000D02*
D03*
X224000Y221000D02*
D03*
X208000D02*
D03*
X176000D02*
D03*
X192000D02*
D03*
X160000D02*
D03*
X224000Y181000D02*
D03*
X208000D02*
D03*
X176000D02*
D03*
X192000D02*
D03*
X160000D02*
D03*
X208000Y161000D02*
D03*
X176000D02*
D03*
X192000D02*
D03*
X160000D02*
D03*
X224000D02*
D03*
D20*
X243200Y293500D02*
D03*
Y288500D02*
D03*
Y283500D02*
D03*
Y278500D02*
D03*
Y273500D02*
D03*
Y268500D02*
D03*
Y263500D02*
D03*
Y258500D02*
D03*
Y253500D02*
D03*
Y248500D02*
D03*
Y243500D02*
D03*
Y238500D02*
D03*
Y233500D02*
D03*
Y228500D02*
D03*
Y223500D02*
D03*
Y218500D02*
D03*
Y213500D02*
D03*
Y208500D02*
D03*
Y203500D02*
D03*
Y198500D02*
D03*
Y193500D02*
D03*
Y188500D02*
D03*
Y183500D02*
D03*
Y178500D02*
D03*
Y173500D02*
D03*
Y168500D02*
D03*
Y163500D02*
D03*
Y158500D02*
D03*
Y153500D02*
D03*
Y148500D02*
D03*
X140800Y153500D02*
D03*
Y158500D02*
D03*
Y163500D02*
D03*
Y168500D02*
D03*
Y173500D02*
D03*
Y178500D02*
D03*
Y183500D02*
D03*
Y188500D02*
D03*
Y193500D02*
D03*
Y198500D02*
D03*
Y203500D02*
D03*
Y208500D02*
D03*
Y213500D02*
D03*
Y218500D02*
D03*
Y223500D02*
D03*
Y228500D02*
D03*
Y233500D02*
D03*
Y238500D02*
D03*
Y243500D02*
D03*
Y248500D02*
D03*
Y253500D02*
D03*
Y258500D02*
D03*
Y263500D02*
D03*
Y273500D02*
D03*
Y278500D02*
D03*
Y283500D02*
D03*
Y288500D02*
D03*
Y293500D02*
D03*
Y148500D02*
D03*
Y268500D02*
D03*
D21*
X243200Y299700D02*
D03*
Y142300D02*
D03*
X140800Y299700D02*
D03*
Y142300D02*
D03*
D22*
X237000D02*
D03*
X232000D02*
D03*
X227000D02*
D03*
X222000D02*
D03*
X217000D02*
D03*
X212000D02*
D03*
X207000D02*
D03*
X202000D02*
D03*
X197000D02*
D03*
X192000D02*
D03*
X187000D02*
D03*
X177000D02*
D03*
X172000D02*
D03*
X167000D02*
D03*
X162000D02*
D03*
X157000D02*
D03*
X152000D02*
D03*
X147000D02*
D03*
X152000Y299700D02*
D03*
X157000D02*
D03*
X162000D02*
D03*
X167000D02*
D03*
X172000D02*
D03*
X177000D02*
D03*
X182000D02*
D03*
X187000D02*
D03*
X192000D02*
D03*
X197000D02*
D03*
X202000D02*
D03*
X207000D02*
D03*
X212000D02*
D03*
X217000D02*
D03*
X222000D02*
D03*
X227000D02*
D03*
X232000D02*
D03*
X237000D02*
D03*
X182000Y142300D02*
D03*
X147000Y299700D02*
D03*
D23*
X235500Y278500D02*
D03*
Y268500D02*
D03*
Y273500D02*
D03*
Y263500D02*
D03*
Y223500D02*
D03*
Y233500D02*
D03*
Y228500D02*
D03*
Y238500D02*
D03*
Y188500D02*
D03*
Y173500D02*
D03*
Y183500D02*
D03*
Y178500D02*
D03*
X148500Y278500D02*
D03*
Y268500D02*
D03*
Y273500D02*
D03*
Y263500D02*
D03*
Y223500D02*
D03*
Y233500D02*
D03*
Y228500D02*
D03*
Y238500D02*
D03*
Y188500D02*
D03*
Y173500D02*
D03*
Y183500D02*
D03*
Y178500D02*
D03*
D24*
X305000Y197000D02*
D03*
X289000D02*
D03*
X145000Y324000D02*
D03*
X161000D02*
D03*
X28000Y249000D02*
D03*
X44000Y249000D02*
D03*
X44000Y265000D02*
D03*
X28000Y265000D02*
D03*
X64000Y323000D02*
D03*
X80000D02*
D03*
X285000Y175750D02*
D03*
X269000Y175750D02*
D03*
D25*
X257000Y288000D02*
D03*
Y272000D02*
D03*
X118000Y140000D02*
D03*
Y156000D02*
D03*
X297250Y180750D02*
D03*
X297250Y164750D02*
D03*
D26*
X260565Y126125D02*
D03*
X260565Y149875D02*
D03*
X283435Y126125D02*
D03*
Y149875D02*
D03*
D27*
X272000Y126125D02*
D03*
X272000Y149875D02*
D03*
X267000Y126125D02*
D03*
X277000Y126125D02*
D03*
Y149875D02*
D03*
X267000D02*
D03*
D28*
X272000Y138000D02*
D03*
D29*
X308700Y47750D02*
D03*
X319300D02*
D03*
D30*
X314000Y20250D02*
D03*
D31*
X264930Y315000D02*
D03*
X242000D02*
D03*
D32*
X188000Y114350D02*
D03*
Y105650D02*
D03*
D33*
X189000Y86680D02*
D03*
X189000Y95320D02*
D03*
X187000Y123680D02*
D03*
Y132320D02*
D03*
X237000Y87680D02*
D03*
X237000Y96320D02*
D03*
D57*
X371600Y259500D02*
D03*
X397000Y234100D02*
D03*
X371600D02*
D03*
X397000Y208700D02*
D03*
X371600D02*
D03*
D58*
X397000Y259500D02*
D03*
D59*
X15000Y162000D02*
D03*
Y228000D02*
D03*
D60*
X13000Y302000D02*
D03*
D61*
X13000Y327400D02*
D03*
D62*
X313660Y209600D02*
D03*
X293340D02*
D03*
X303500Y260400D02*
D03*
M02*
