G04 Layer_Color=32768*
%FSLAX44Y44*%
%MOMM*%
G71*
G01*
G75*
%ADD36C,0.3000*%
%ADD88C,0.1000*%
D36*
X231000Y286000D02*
G03*
X231000Y286000I-1500J0D01*
G01*
D88*
X139000Y301500D02*
X245000D01*
X139000Y140500D02*
Y301500D01*
Y140500D02*
X245000D01*
Y301500D01*
X112000Y213615D02*
Y222385D01*
X113000Y213615D02*
Y222385D01*
X100000Y213615D02*
Y222385D01*
X99000Y213615D02*
Y222385D01*
X96000Y213615D02*
X96000Y222385D01*
X96000Y213615D02*
X116000D01*
Y222385D01*
X96000Y222385D02*
X116000Y222385D01*
X83500Y282500D02*
Y293500D01*
X68500D02*
X83500D01*
X68500Y282500D02*
X83500D01*
X68500D02*
Y293500D01*
X318500Y307615D02*
X318500Y316385D01*
X319500D02*
X319500Y307615D01*
X306500Y316385D02*
X306500Y307615D01*
X305500Y316385D02*
X305500Y307615D01*
X302500D02*
Y316385D01*
Y307615D02*
X322500D01*
X322500Y316385D02*
X322500Y307615D01*
X302500Y316385D02*
X322500Y316385D01*
X317750Y273365D02*
Y282135D01*
X318750Y282135D02*
X318750Y273365D01*
X305750D02*
Y282135D01*
X304750Y273365D02*
Y282135D01*
X301750Y273365D02*
Y282135D01*
Y273365D02*
X321750Y273365D01*
X321750Y282135D02*
X321750Y273365D01*
X301750Y282135D02*
X321750D01*
M02*
