G04 Layer_Color=65535*
%FSLAX44Y44*%
%MOMM*%
G71*
G01*
G75*
%ADD11C,0.2540*%
%ADD34C,0.2032*%
%ADD36C,0.3000*%
%ADD88C,0.1000*%
%ADD89C,0.2000*%
%ADD90C,0.0500*%
%ADD91C,0.1270*%
%ADD92C,0.1500*%
D11*
X-51664Y700431D02*
Y685196D01*
X-44047D01*
X-41507Y687735D01*
Y690274D01*
X-44047Y692813D01*
X-51664D01*
X-44047D01*
X-41507Y695353D01*
Y697892D01*
X-44047Y700431D01*
X-51664D01*
X-36429Y685196D02*
Y695353D01*
X-31351Y700431D01*
X-26272Y695353D01*
Y685196D01*
Y692813D01*
X-36429D01*
X-21194Y700431D02*
X-11037D01*
X-16116D01*
Y685196D01*
X4198D02*
X-5959D01*
X4198Y695353D01*
Y697892D01*
X1659Y700431D01*
X-3420D01*
X-5959Y697892D01*
X9276D02*
X11815Y700431D01*
X16894D01*
X19433Y697892D01*
Y687735D01*
X16894Y685196D01*
X11815D01*
X9276Y687735D01*
Y697892D01*
X24511D02*
X27050Y700431D01*
X32129D01*
X34668Y697892D01*
Y687735D01*
X32129Y685196D01*
X27050D01*
X24511Y687735D01*
Y697892D01*
D34*
X302930Y296570D02*
Y311810D01*
X323250Y296570D02*
Y311810D01*
X302930Y337210D02*
X323250D01*
X302930Y296570D02*
X323250D01*
X233180Y325160D02*
X248420Y325160D01*
X233180Y304840D02*
X248420D01*
X258580Y304840D02*
X273820D01*
X258580Y325160D02*
X273820D01*
X233180Y304840D02*
Y325160D01*
X273820Y304840D02*
Y325160D01*
X112840Y261180D02*
Y276420D01*
X133160Y261180D02*
Y276420D01*
Y286580D02*
Y301820D01*
X112840Y286580D02*
Y301820D01*
Y261180D02*
X133160D01*
X112840Y301820D02*
X133160D01*
D36*
X252000Y307050D02*
G03*
X252000Y307050I-1500J0D01*
G01*
D88*
X9000Y86000D02*
G03*
X10000Y86000I500J0D01*
G01*
D02*
G03*
X9000Y86000I-500J0D01*
G01*
X182000Y321000D02*
X191000D01*
X199000D02*
X208000D01*
X182000Y309000D02*
X191000D01*
X182000D02*
Y321000D01*
X199048Y309000D02*
X208000D01*
Y321000D01*
X231000Y1000D02*
Y81000D01*
X1000D02*
X231000D01*
X1000Y1000D02*
Y81000D01*
Y1000D02*
X231000D01*
X1000Y146000D02*
X108380D01*
X108380Y81000D02*
X108380Y146000D01*
X108380Y116000D02*
X231000D01*
X1000Y1000D02*
Y146000D01*
X231000Y1000D02*
Y116000D01*
X1000Y1000D02*
Y81000D01*
X231000D01*
Y1000D02*
Y81000D01*
X1000Y1000D02*
X231000D01*
X284000Y191000D02*
Y203000D01*
X292952D01*
X310000Y191000D02*
Y203000D01*
X301000Y203000D02*
X310000Y203000D01*
X284000Y191000D02*
X293000D01*
X301000Y191000D02*
X310000D01*
X251000Y267000D02*
X263000D01*
X251000D02*
Y275952D01*
Y293000D02*
X263000D01*
X251000Y284000D02*
Y293000D01*
X263000Y267000D02*
Y276000D01*
Y284000D02*
Y293000D01*
X166000Y318000D02*
Y330000D01*
X157048Y318000D02*
X166000D01*
X140000D02*
X140000Y330000D01*
X140000Y318000D02*
X149000D01*
X157000Y330000D02*
X166000D01*
X140000D02*
X149000D01*
X112000Y161000D02*
X124000Y161000D01*
Y152048D02*
Y161000D01*
X112000Y135000D02*
X124000Y135000D01*
X124000Y144000D01*
X112000Y152000D02*
Y161000D01*
X112000Y144000D02*
X112000Y135000D01*
X49000Y243000D02*
X49000Y255000D01*
X40048Y243000D02*
X49000D01*
X23000D02*
Y255000D01*
Y243000D02*
X32000D01*
X40000Y255000D02*
X49000D01*
X23000D02*
X32000D01*
X23000Y271000D02*
X23000Y259000D01*
X23000Y271000D02*
X31952Y271000D01*
X49000Y271000D02*
X49000Y259000D01*
X40000Y271000D02*
X49000D01*
X23000Y259000D02*
X32000Y259000D01*
X40000Y259000D02*
X49000Y259000D01*
X85000Y317000D02*
Y329000D01*
X76048Y317000D02*
X85000D01*
X59000D02*
X59000Y329000D01*
X59000Y317000D02*
X68000D01*
X76000Y329000D02*
X85000D01*
X59000D02*
X68000D01*
X264000Y169750D02*
X264000Y181750D01*
X272952D01*
X290000Y169750D02*
X290000Y181750D01*
X281000D02*
X290000D01*
X264000Y169750D02*
X273000Y169750D01*
X281000D02*
X290000Y169750D01*
X291250Y159750D02*
X303250D01*
X291250D02*
Y168702D01*
Y185750D02*
X303250Y185750D01*
X291250Y176750D02*
Y185750D01*
X303250Y168750D02*
X303250Y159750D01*
Y185750D02*
X303250Y176750D01*
D89*
X262000Y119000D02*
G03*
X262000Y119000I-1000J0D01*
G01*
X330750Y49050D02*
G03*
X330750Y49050I-1000J0D01*
G01*
X190000Y79000D02*
G03*
X190000Y79000I-1000J0D01*
G01*
X188000Y116000D02*
G03*
X188000Y116000I-1000J0D01*
G01*
X238000Y80000D02*
G03*
X238000Y80000I-1000J0D01*
G01*
X313090Y321970D02*
X320710Y314350D01*
X305470D02*
X313090Y321970D01*
X305470Y314350D02*
X320710D01*
X313090Y321970D02*
X320710D01*
X305470D02*
X320710D01*
X313090Y304190D02*
X313090Y314350D01*
Y321970D02*
Y332130D01*
D90*
X281000Y106500D02*
Y113500D01*
Y94500D02*
Y101500D01*
X271000Y106500D02*
Y113500D01*
X281000D01*
X271000Y94500D02*
Y101500D01*
Y94500D02*
X281000D01*
D91*
X290700Y65800D02*
Y74200D01*
X280300D02*
X290700D01*
X271300D02*
X280300D01*
X271300Y70300D02*
Y74200D01*
Y65800D02*
Y70300D01*
Y65800D02*
X290700D01*
X271800Y94700D02*
X280200D01*
X271800Y84300D02*
Y94700D01*
Y75300D02*
Y84300D01*
Y75300D02*
X275700D01*
X280200D01*
Y94700D01*
X98800Y243300D02*
Y262700D01*
X103300D01*
X107200D01*
Y253700D02*
Y262700D01*
Y243300D02*
Y253700D01*
X98800Y243300D02*
X107200D01*
X275800Y298300D02*
X284200D01*
Y308700D01*
Y317700D01*
X280300Y317700D02*
X284200Y317700D01*
X275800D02*
X280300Y317700D01*
X275800Y298300D02*
Y317700D01*
X254800Y96300D02*
X263200D01*
Y106700D01*
Y115700D01*
X259300D02*
X263200D01*
X254800Y115700D02*
X259300Y115700D01*
X254800Y96300D02*
X254800Y115700D01*
X125800Y160700D02*
X134200Y160700D01*
X125800Y150300D02*
Y160700D01*
Y141300D02*
Y150300D01*
Y141300D02*
X129700D01*
X134200Y141300D01*
Y160700D01*
X143700Y305800D02*
Y314200D01*
X133300Y314200D02*
X143700Y314200D01*
X124300D02*
X133300Y314200D01*
X124300Y310300D02*
Y314200D01*
Y305800D02*
Y310300D01*
Y305800D02*
X143700D01*
X111800Y323700D02*
X120200D01*
X111800Y313300D02*
Y323700D01*
Y304300D02*
Y313300D01*
Y304300D02*
X115700Y304300D01*
X120200Y304300D01*
Y323700D01*
X167800Y306300D02*
X176200D01*
Y316700D01*
Y325700D01*
X172300D02*
X176200D01*
X167800D02*
X172300D01*
X167800Y306300D02*
Y325700D01*
X294700Y319800D02*
Y328200D01*
X284300Y328200D02*
X294700Y328200D01*
X275300Y328200D02*
X284300D01*
X275300Y324300D02*
Y328200D01*
Y324300D02*
X275300Y319800D01*
X294700D01*
X245800Y96300D02*
X254200D01*
X254200Y106700D01*
X254200Y115700D02*
X254200Y106700D01*
X250300Y115700D02*
X254200D01*
X245800D02*
X250300D01*
X245800Y96300D02*
X245800Y115700D01*
X238700Y121800D02*
Y130200D01*
X228300Y130200D02*
X238700Y130200D01*
X219300D02*
X228300Y130200D01*
X219300Y126300D02*
Y130200D01*
Y121800D02*
Y126300D01*
Y121800D02*
X238700D01*
X251300Y294800D02*
X270700D01*
X251300D02*
X251300Y299300D01*
X251300Y303200D02*
X251300Y299300D01*
X251300Y303200D02*
X260300D01*
X270700D01*
Y294800D02*
Y303200D01*
D92*
X137000Y138500D02*
X247000Y138500D01*
X137000Y303500D02*
X247000D01*
Y138500D02*
Y303500D01*
X137000Y138500D02*
Y303500D01*
M02*
