G04 Layer_Physical_Order=2*
G04 Layer_Color=36540*
%FSLAX44Y44*%
%MOMM*%
G71*
G01*
G75*
%ADD37C,0.5080*%
%ADD57C,2.0000*%
%ADD59O,1.8000X0.9000*%
%ADD60R,1.8000X1.8000*%
%ADD63C,0.6096*%
G36*
X323892Y251250D02*
Y248750D01*
X323867D01*
X324204Y246192D01*
X325191Y243809D01*
X326762Y241762D01*
X328809Y240191D01*
X331192Y239204D01*
X333750Y238867D01*
Y238870D01*
X336242Y239198D01*
X338565Y240160D01*
X340560Y241690D01*
X342090Y243685D01*
X343052Y246007D01*
X343380Y248500D01*
X343358D01*
Y275392D01*
X407892D01*
Y267934D01*
X406719Y267448D01*
X402889Y271278D01*
X391111D01*
X385222Y265389D01*
Y253611D01*
X391111Y247722D01*
X394667D01*
X394750Y246452D01*
X393727Y246317D01*
X390676Y245053D01*
X390394Y244837D01*
X391119Y244591D01*
X392064Y244357D01*
X393072Y244190D01*
X394143Y244089D01*
X395278Y244055D01*
X396476Y244086D01*
X387240Y234031D01*
X396617Y224107D01*
X395413Y224122D01*
X394273Y224074D01*
X393197Y223960D01*
X392186Y223783D01*
X391239Y223542D01*
X390495Y223285D01*
X390676Y223146D01*
X393727Y221882D01*
X395448Y221656D01*
Y220375D01*
X393925Y220175D01*
X391060Y218988D01*
X388600Y217100D01*
X386712Y214640D01*
X385525Y211774D01*
X385120Y208700D01*
X385525Y205625D01*
X386712Y202760D01*
X388600Y200300D01*
X391060Y198412D01*
X393925Y197225D01*
X397000Y196820D01*
X400075Y197225D01*
X402940Y198412D01*
X405400Y200300D01*
X406622Y201892D01*
X407892Y201461D01*
Y192398D01*
X343358D01*
Y217750D01*
X343380D01*
X343052Y220243D01*
X342090Y222565D01*
X340560Y224560D01*
X338565Y226090D01*
X336242Y227052D01*
X333750Y227380D01*
Y227383D01*
X331192Y227046D01*
X328809Y226059D01*
X326762Y224488D01*
X325191Y222441D01*
X324204Y220058D01*
X323867Y217500D01*
X323892D01*
Y42170D01*
X322900Y41500D01*
X322622Y41500D01*
X315500D01*
X315500Y41500D01*
Y64000D01*
X291750Y64000D01*
X291750Y64000D01*
Y74000D01*
X280750D01*
Y114000D01*
X270000D01*
Y64000D01*
X262910Y64000D01*
X263010Y14000D01*
X271500Y14000D01*
Y14000D01*
X303630D01*
X304900Y14000D01*
X304900Y14000D01*
X304900Y14000D01*
X304900Y15270D01*
Y26500D01*
X322622D01*
X322900Y26500D01*
X323892Y25830D01*
Y3108D01*
X231000D01*
Y81000D01*
X204000D01*
Y116000D01*
X195000D01*
Y138000D01*
X195000Y138000D01*
X195000D01*
Y150000D01*
X180000D01*
Y138000D01*
X180000D01*
Y116000D01*
X109000Y116000D01*
Y146000D01*
X3108D01*
Y158132D01*
X4263Y158427D01*
X4378Y158415D01*
X5479Y156979D01*
X6950Y155851D01*
X8662Y155141D01*
X10500Y154899D01*
X13730D01*
Y162000D01*
Y169101D01*
X10500D01*
X8662Y168859D01*
X6950Y168149D01*
X5479Y167021D01*
X4378Y165585D01*
X4263Y165573D01*
X3108Y165868D01*
Y224132D01*
X4263Y224427D01*
X4378Y224414D01*
X5479Y222979D01*
X6950Y221850D01*
X8662Y221141D01*
X10500Y220899D01*
X13730D01*
Y228000D01*
Y235101D01*
X10500D01*
X8662Y234859D01*
X6950Y234149D01*
X5479Y233021D01*
X4378Y231585D01*
X4263Y231573D01*
X3108Y231868D01*
Y290460D01*
X11730D01*
Y302000D01*
Y313540D01*
X3108D01*
Y320501D01*
X4378Y320932D01*
X5313Y319713D01*
X7564Y317986D01*
X10186Y316900D01*
X13000Y316529D01*
X15814Y316900D01*
X18435Y317986D01*
X20687Y319713D01*
X22415Y321965D01*
X23501Y324586D01*
X23871Y327400D01*
X23501Y330214D01*
X22415Y332836D01*
X20687Y335087D01*
X19990Y335622D01*
X20421Y336892D01*
X275306D01*
X275985Y335622D01*
X275454Y334828D01*
X275079Y332945D01*
X275454Y331062D01*
X276521Y329466D01*
X278117Y328399D01*
X280000Y328024D01*
X281883Y328399D01*
X283479Y329466D01*
X284546Y331062D01*
X284921Y332945D01*
X284546Y334828D01*
X284015Y335622D01*
X284694Y336892D01*
X293269D01*
X293948Y335622D01*
X293454Y334883D01*
X293079Y333000D01*
X293454Y331117D01*
X294521Y329521D01*
X296117Y328454D01*
X298000Y328079D01*
X299883Y328454D01*
X301479Y329521D01*
X302546Y331117D01*
X302920Y333000D01*
X302546Y334883D01*
X302052Y335622D01*
X302731Y336892D01*
X323892D01*
Y251250D01*
D02*
G37*
%LPC*%
G36*
X106000Y325920D02*
X104117Y325546D01*
X102521Y324479D01*
X101454Y322883D01*
X101080Y321000D01*
X101454Y319117D01*
X102521Y317521D01*
X104117Y316454D01*
X106000Y316080D01*
X107883Y316454D01*
X109479Y317521D01*
X110546Y319117D01*
X110920Y321000D01*
X110546Y322883D01*
X109479Y324479D01*
X107883Y325546D01*
X106000Y325920D01*
D02*
G37*
G36*
X24540Y313540D02*
X14270D01*
Y303270D01*
X24540D01*
Y313540D01*
D02*
G37*
G36*
X44000Y312920D02*
X42117Y312546D01*
X40521Y311479D01*
X39454Y309883D01*
X39079Y308000D01*
X39454Y306117D01*
X40521Y304521D01*
X42117Y303454D01*
X44000Y303079D01*
X45883Y303454D01*
X47479Y304521D01*
X48546Y306117D01*
X48920Y308000D01*
X48546Y309883D01*
X47479Y311479D01*
X45883Y312546D01*
X44000Y312920D01*
D02*
G37*
G36*
X71000Y307920D02*
X69117Y307546D01*
X67520Y306479D01*
X66454Y304883D01*
X66079Y303000D01*
X66454Y301117D01*
X67520Y299520D01*
X69117Y298454D01*
X71000Y298079D01*
X72883Y298454D01*
X74479Y299520D01*
X75546Y301117D01*
X75920Y303000D01*
X75546Y304883D01*
X74479Y306479D01*
X72883Y307546D01*
X71000Y307920D01*
D02*
G37*
G36*
X270500Y303200D02*
X251300D01*
Y294800D01*
X270700D01*
Y303000D01*
X270500Y303200D01*
D02*
G37*
G36*
X24540Y300730D02*
X14270D01*
Y290460D01*
X24540D01*
Y300730D01*
D02*
G37*
G36*
X179000Y296921D02*
X177117Y296546D01*
X175521Y295479D01*
X174454Y293883D01*
X174079Y292000D01*
X174454Y290117D01*
X175521Y288521D01*
X177117Y287454D01*
X179000Y287080D01*
X180883Y287454D01*
X182479Y288521D01*
X183546Y290117D01*
X183920Y292000D01*
X183546Y293883D01*
X182479Y295479D01*
X180883Y296546D01*
X179000Y296921D01*
D02*
G37*
G36*
X167000Y294921D02*
X165117Y294546D01*
X163521Y293479D01*
X162454Y291883D01*
X162080Y290000D01*
X162454Y288117D01*
X163521Y286521D01*
X165117Y285454D01*
X167000Y285079D01*
X168883Y285454D01*
X170479Y286521D01*
X171546Y288117D01*
X171921Y290000D01*
X171546Y291883D01*
X170479Y293479D01*
X168883Y294546D01*
X167000Y294921D01*
D02*
G37*
G36*
X47000Y285921D02*
X45117Y285546D01*
X43521Y284479D01*
X42454Y282883D01*
X42080Y281000D01*
X42454Y279117D01*
X43521Y277521D01*
X45117Y276454D01*
X47000Y276080D01*
X48883Y276454D01*
X50479Y277521D01*
X51546Y279117D01*
X51920Y281000D01*
X51546Y282883D01*
X50479Y284479D01*
X48883Y285546D01*
X47000Y285921D01*
D02*
G37*
G36*
X107200Y275000D02*
X94580Y274580D01*
X55420D01*
X55420Y274580D01*
X55420Y247420D01*
X94580D01*
X98800Y247420D01*
Y243300D01*
X98800D01*
X99220Y242030D01*
X98454Y240883D01*
X98080Y239000D01*
X98454Y237117D01*
X99521Y235521D01*
X101117Y234454D01*
X103000Y234079D01*
X104883Y234454D01*
X105569Y234912D01*
X106712Y234148D01*
X106585Y233511D01*
X106959Y231628D01*
X108026Y230032D01*
X109622Y228965D01*
X111505Y228591D01*
X113388Y228965D01*
X114985Y230032D01*
X116051Y231628D01*
X116426Y233511D01*
X116051Y235394D01*
X114985Y236991D01*
X113388Y238057D01*
X111505Y238432D01*
X109622Y238057D01*
X108937Y237599D01*
X107794Y238363D01*
X107921Y239000D01*
X107546Y240883D01*
X106780Y242030D01*
X107200Y243300D01*
X107200D01*
Y247958D01*
X108470Y248083D01*
X108709Y246879D01*
X109776Y245283D01*
X111372Y244216D01*
X113256Y243842D01*
X115139Y244216D01*
X116735Y245283D01*
X117802Y246879D01*
X118176Y248762D01*
X117802Y250645D01*
X116735Y252241D01*
X115139Y253308D01*
X113256Y253683D01*
X111372Y253308D01*
X109776Y252241D01*
X108709Y250645D01*
X108470Y249441D01*
X107200Y249566D01*
Y262700D01*
Y275000D01*
D02*
G37*
G36*
X316000Y270921D02*
X314117Y270546D01*
X312521Y269479D01*
X311454Y267883D01*
X311080Y266000D01*
X311454Y264117D01*
X312521Y262521D01*
X314117Y261454D01*
X316000Y261080D01*
X317883Y261454D01*
X319479Y262521D01*
X320546Y264117D01*
X320920Y266000D01*
X320546Y267883D01*
X319479Y269479D01*
X317883Y270546D01*
X316000Y270921D01*
D02*
G37*
G36*
X303500Y266801D02*
X301050Y266314D01*
X298974Y264926D01*
X297586Y262849D01*
X297099Y260400D01*
X297586Y257950D01*
X298974Y255874D01*
X301050Y254486D01*
X303500Y253999D01*
X305949Y254486D01*
X308026Y255874D01*
X309414Y257950D01*
X309901Y260400D01*
X309414Y262849D01*
X308026Y264926D01*
X305949Y266314D01*
X303500Y266801D01*
D02*
G37*
G36*
X263000Y263421D02*
X261117Y263046D01*
X259521Y261979D01*
X258454Y260383D01*
X258079Y258500D01*
X258454Y256617D01*
X259521Y255021D01*
X261117Y253954D01*
X263000Y253580D01*
X264883Y253954D01*
X266479Y255021D01*
X267546Y256617D01*
X267920Y258500D01*
X267546Y260383D01*
X266479Y261979D01*
X264883Y263046D01*
X263000Y263421D01*
D02*
G37*
G36*
X291750Y259671D02*
X289867Y259296D01*
X288271Y258229D01*
X287204Y256633D01*
X286829Y254750D01*
X287204Y252867D01*
X288271Y251271D01*
X289867Y250204D01*
X291750Y249830D01*
X293633Y250204D01*
X295229Y251271D01*
X296296Y252867D01*
X296670Y254750D01*
X296296Y256633D01*
X295229Y258229D01*
X293633Y259296D01*
X291750Y259671D01*
D02*
G37*
G36*
X371600Y271379D02*
X368525Y270975D01*
X365660Y269788D01*
X363200Y267900D01*
X361312Y265440D01*
X360125Y262574D01*
X359720Y259500D01*
X360125Y256425D01*
X361312Y253560D01*
X363200Y251100D01*
X365660Y249212D01*
X368525Y248025D01*
X371600Y247620D01*
X374675Y248025D01*
X377540Y249212D01*
X380000Y251100D01*
X381888Y253560D01*
X383075Y256425D01*
X383480Y259500D01*
X383075Y262574D01*
X381888Y265440D01*
X380000Y267900D01*
X377540Y269788D01*
X374675Y270975D01*
X371600Y271379D01*
D02*
G37*
G36*
X150000Y251921D02*
X148117Y251546D01*
X146521Y250479D01*
X145454Y248883D01*
X145079Y247000D01*
X145454Y245117D01*
X146521Y243521D01*
X148117Y242454D01*
X150000Y242079D01*
X151883Y242454D01*
X153479Y243521D01*
X154546Y245117D01*
X154921Y247000D01*
X154546Y248883D01*
X153479Y250479D01*
X151883Y251546D01*
X150000Y251921D01*
D02*
G37*
G36*
X285014Y239932D02*
X283131Y239557D01*
X281535Y238491D01*
X280468Y236894D01*
X280093Y235012D01*
X280468Y233129D01*
X281535Y231532D01*
X283131Y230466D01*
X285014Y230091D01*
X286897Y230466D01*
X288493Y231532D01*
X289560Y233129D01*
X289934Y235012D01*
X289560Y236894D01*
X288493Y238491D01*
X286897Y239557D01*
X285014Y239932D01*
D02*
G37*
G36*
X19500Y235101D02*
X16270D01*
Y229270D01*
X26434D01*
X26359Y229838D01*
X25650Y231550D01*
X24521Y233021D01*
X23051Y234149D01*
X21338Y234859D01*
X19500Y235101D01*
D02*
G37*
G36*
X371600Y245979D02*
X368525Y245575D01*
X365660Y244388D01*
X363200Y242500D01*
X361312Y240040D01*
X360125Y237174D01*
X359720Y234100D01*
X360125Y231025D01*
X361312Y228160D01*
X363200Y225700D01*
X365660Y223812D01*
X368525Y222625D01*
X371600Y222220D01*
X374675Y222625D01*
X377540Y223812D01*
X380000Y225700D01*
X381888Y228160D01*
X383075Y231025D01*
X383275Y232547D01*
X384556D01*
X384783Y230826D01*
X385915Y228093D01*
X386188Y228827D01*
X386463Y229783D01*
X386681Y230806D01*
X386844Y231897D01*
X386951Y233056D01*
X386991Y234031D01*
X386937Y235008D01*
X386640Y237265D01*
X386411Y238291D01*
X386128Y239248D01*
X385856Y239965D01*
X384783Y237373D01*
X384556Y235652D01*
X383275D01*
X383075Y237174D01*
X381888Y240040D01*
X380000Y242500D01*
X377540Y244388D01*
X374675Y245575D01*
X371600Y245979D01*
D02*
G37*
G36*
X26434Y226730D02*
X16270D01*
Y220899D01*
X19500D01*
X21338Y221141D01*
X23051Y221850D01*
X24521Y222979D01*
X25650Y224450D01*
X26359Y226162D01*
X26434Y226730D01*
D02*
G37*
G36*
X92015Y229921D02*
X90132Y229546D01*
X88536Y228479D01*
X87469Y226883D01*
X87094Y225000D01*
X87469Y223117D01*
X88536Y221521D01*
X90132Y220454D01*
X92015Y220079D01*
X93898Y220454D01*
X95494Y221521D01*
X96561Y223117D01*
X96936Y225000D01*
X96561Y226883D01*
X95494Y228479D01*
X93898Y229546D01*
X92015Y229921D01*
D02*
G37*
G36*
X55550Y221371D02*
X53667Y220996D01*
X52071Y219929D01*
X51004Y218333D01*
X50629Y216450D01*
X51004Y214567D01*
X52071Y212971D01*
X53667Y211904D01*
X55550Y211530D01*
X57433Y211904D01*
X59029Y212971D01*
X60096Y214567D01*
X60470Y216450D01*
X60096Y218333D01*
X59029Y219929D01*
X57433Y220996D01*
X55550Y221371D01*
D02*
G37*
G36*
X288000Y227421D02*
X286117Y227046D01*
X284521Y225979D01*
X283454Y224383D01*
X283079Y222500D01*
X283454Y220617D01*
X283948Y219877D01*
X283318Y218535D01*
X282117Y218296D01*
X280521Y217229D01*
X279454Y215633D01*
X279079Y213750D01*
X279454Y211867D01*
X280521Y210271D01*
X282117Y209204D01*
X284000Y208829D01*
X285883Y209204D01*
X287153Y208525D01*
X287426Y207150D01*
X288814Y205074D01*
X290890Y203686D01*
X293340Y203199D01*
X295789Y203686D01*
X297866Y205074D01*
X298304Y205729D01*
X299652Y205461D01*
X299719Y205127D01*
X300786Y203531D01*
X302382Y202464D01*
X304265Y202090D01*
X306148Y202464D01*
X307744Y203531D01*
X308234Y204264D01*
X309054Y205002D01*
X309861Y204587D01*
X311210Y203686D01*
X313660Y203199D01*
X316109Y203686D01*
X318186Y205074D01*
X319574Y207150D01*
X320061Y209600D01*
X319574Y212049D01*
X318186Y214126D01*
X316109Y215514D01*
X313660Y216001D01*
X311210Y215514D01*
X309134Y214126D01*
X307746Y212049D01*
X307695Y211792D01*
X306522Y211306D01*
X306148Y211556D01*
X304265Y211931D01*
X302382Y211556D01*
X300786Y210489D01*
X299494Y210842D01*
X299254Y212049D01*
X297866Y214126D01*
X295789Y215514D01*
X293340Y216001D01*
X290890Y215514D01*
X289792Y214780D01*
X288619Y215266D01*
X288546Y215633D01*
X288052Y216373D01*
X288682Y217715D01*
X289883Y217954D01*
X291479Y219021D01*
X292546Y220617D01*
X292920Y222500D01*
X292546Y224383D01*
X291479Y225979D01*
X289883Y227046D01*
X288000Y227421D01*
D02*
G37*
G36*
X262500Y212670D02*
X260617Y212296D01*
X259021Y211229D01*
X257954Y209633D01*
X257579Y207750D01*
X257954Y205867D01*
X259021Y204271D01*
X260617Y203204D01*
X262500Y202829D01*
X264383Y203204D01*
X265979Y204271D01*
X267046Y205867D01*
X267421Y207750D01*
X267046Y209633D01*
X265979Y211229D01*
X264383Y212296D01*
X262500Y212670D01*
D02*
G37*
G36*
X371600Y220579D02*
X368525Y220175D01*
X365660Y218988D01*
X363200Y217100D01*
X361312Y214640D01*
X360125Y211774D01*
X359720Y208700D01*
X360125Y205625D01*
X361312Y202760D01*
X363200Y200300D01*
X365660Y198412D01*
X368525Y197225D01*
X371600Y196820D01*
X374675Y197225D01*
X377540Y198412D01*
X380000Y200300D01*
X381888Y202760D01*
X383075Y205625D01*
X383480Y208700D01*
X383075Y211774D01*
X381888Y214640D01*
X380000Y217100D01*
X377540Y218988D01*
X374675Y220175D01*
X371600Y220579D01*
D02*
G37*
G36*
X124000Y200920D02*
X122117Y200546D01*
X120520Y199479D01*
X119454Y197883D01*
X119079Y196000D01*
X119454Y194117D01*
X120520Y192520D01*
X122117Y191454D01*
X124000Y191079D01*
X125883Y191454D01*
X127479Y192520D01*
X128546Y194117D01*
X128920Y196000D01*
X128546Y197883D01*
X127479Y199479D01*
X125883Y200546D01*
X124000Y200920D01*
D02*
G37*
G36*
X55450Y196471D02*
X53567Y196096D01*
X51971Y195029D01*
X50904Y193433D01*
X50529Y191550D01*
X50904Y189667D01*
X51971Y188071D01*
X53567Y187004D01*
X55450Y186629D01*
X57333Y187004D01*
X58929Y188071D01*
X59996Y189667D01*
X60371Y191550D01*
X59996Y193433D01*
X58929Y195029D01*
X57333Y196096D01*
X55450Y196471D01*
D02*
G37*
G36*
X313750Y193171D02*
X311867Y192796D01*
X310271Y191729D01*
X309204Y190133D01*
X308829Y188250D01*
X309204Y186367D01*
X310271Y184771D01*
X311867Y183704D01*
X313750Y183330D01*
X315633Y183704D01*
X317229Y184771D01*
X318296Y186367D01*
X318671Y188250D01*
X318296Y190133D01*
X317229Y191729D01*
X315633Y192796D01*
X313750Y193171D01*
D02*
G37*
G36*
X284000Y191921D02*
X282117Y191546D01*
X280521Y190479D01*
X279454Y188883D01*
X279079Y187000D01*
X279454Y185117D01*
X280521Y183521D01*
X282117Y182454D01*
X284000Y182080D01*
X285883Y182454D01*
X287479Y183521D01*
X288546Y185117D01*
X288920Y187000D01*
X288546Y188883D01*
X287479Y190479D01*
X285883Y191546D01*
X284000Y191921D01*
D02*
G37*
G36*
X128000Y185920D02*
X126117Y185546D01*
X124520Y184479D01*
X123454Y182883D01*
X123079Y181000D01*
X123454Y179117D01*
X124520Y177520D01*
X126117Y176454D01*
X128000Y176079D01*
X129883Y176454D01*
X131479Y177520D01*
X132546Y179117D01*
X132920Y181000D01*
X132546Y182883D01*
X131479Y184479D01*
X129883Y185546D01*
X128000Y185920D01*
D02*
G37*
G36*
X98000Y183920D02*
X96117Y183546D01*
X94521Y182479D01*
X93454Y180883D01*
X93080Y179000D01*
X93454Y177117D01*
X94521Y175521D01*
X96117Y174454D01*
X98000Y174079D01*
X99883Y174454D01*
X101479Y175521D01*
X102546Y177117D01*
X102921Y179000D01*
X102546Y180883D01*
X101479Y182479D01*
X99883Y183546D01*
X98000Y183920D01*
D02*
G37*
G36*
X117000Y177920D02*
X115117Y177546D01*
X113521Y176479D01*
X112454Y174883D01*
X112079Y173000D01*
X112454Y171117D01*
X113521Y169521D01*
X115117Y168454D01*
X117000Y168079D01*
X118883Y168454D01*
X120479Y169521D01*
X121546Y171117D01*
X121920Y173000D01*
X121546Y174883D01*
X120479Y176479D01*
X118883Y177546D01*
X117000Y177920D01*
D02*
G37*
G36*
X19500Y169101D02*
X16270D01*
Y163270D01*
X26434D01*
X26359Y163838D01*
X25650Y165550D01*
X24521Y167021D01*
X23051Y168149D01*
X21338Y168859D01*
X19500Y169101D01*
D02*
G37*
G36*
X262263Y169929D02*
X260380Y169554D01*
X258783Y168487D01*
X257717Y166891D01*
X257342Y165008D01*
X257717Y163125D01*
X258783Y161529D01*
X260380Y160462D01*
X262263Y160088D01*
X264146Y160462D01*
X265742Y161529D01*
X266809Y163125D01*
X267183Y165008D01*
X266809Y166891D01*
X265742Y168487D01*
X264146Y169554D01*
X262263Y169929D01*
D02*
G37*
G36*
X109876Y168621D02*
X107993Y168247D01*
X106396Y167180D01*
X105330Y165584D01*
X104955Y163701D01*
X105330Y161818D01*
X106396Y160221D01*
X107993Y159155D01*
X109876Y158780D01*
X111759Y159155D01*
X113355Y160221D01*
X114422Y161818D01*
X114796Y163701D01*
X114422Y165584D01*
X113355Y167180D01*
X111759Y168247D01*
X109876Y168621D01*
D02*
G37*
G36*
X26434Y160730D02*
X16270D01*
Y154899D01*
X19500D01*
X21338Y155141D01*
X23051Y155851D01*
X24521Y156979D01*
X25650Y158450D01*
X26359Y160162D01*
X26434Y160730D01*
D02*
G37*
G36*
X288651Y167151D02*
X269351D01*
X269351Y154850D01*
X288651D01*
Y167151D01*
D02*
G37*
G36*
X151000Y159921D02*
X149117Y159546D01*
X147521Y158479D01*
X146454Y156883D01*
X146080Y155000D01*
X146454Y153117D01*
X147521Y151521D01*
X149117Y150454D01*
X151000Y150079D01*
X152883Y150454D01*
X154479Y151521D01*
X155546Y153117D01*
X155920Y155000D01*
X155546Y156883D01*
X154479Y158479D01*
X152883Y159546D01*
X151000Y159921D01*
D02*
G37*
G36*
X104000Y157920D02*
X102117Y157546D01*
X100520Y156479D01*
X99454Y154883D01*
X99079Y153000D01*
X99454Y151117D01*
X100520Y149520D01*
X102117Y148454D01*
X104000Y148079D01*
X105883Y148454D01*
X107479Y149520D01*
X108546Y151117D01*
X108920Y153000D01*
X108546Y154883D01*
X107479Y156479D01*
X105883Y157546D01*
X104000Y157920D01*
D02*
G37*
G36*
X205000Y156920D02*
X203117Y156546D01*
X201521Y155479D01*
X200454Y153883D01*
X200079Y152000D01*
X200454Y150117D01*
X201521Y148521D01*
X203117Y147454D01*
X205000Y147079D01*
X206883Y147454D01*
X208479Y148521D01*
X209546Y150117D01*
X209921Y152000D01*
X209546Y153883D01*
X208479Y155479D01*
X206883Y156546D01*
X205000Y156920D01*
D02*
G37*
G36*
X128000Y137920D02*
X126117Y137546D01*
X124520Y136479D01*
X123454Y134883D01*
X123079Y133000D01*
X123454Y131117D01*
X124520Y129520D01*
X126117Y128454D01*
X128000Y128079D01*
X129883Y128454D01*
X131479Y129520D01*
X132546Y131117D01*
X132920Y133000D01*
X132546Y134883D01*
X131479Y136479D01*
X129883Y137546D01*
X128000Y137920D01*
D02*
G37*
G36*
X259000Y123829D02*
X257117Y123454D01*
X255520Y122387D01*
X254454Y120791D01*
X254079Y118908D01*
X254454Y117025D01*
X255520Y115429D01*
X257117Y114362D01*
X259000Y113988D01*
X260882Y114362D01*
X262479Y115429D01*
X263545Y117025D01*
X263920Y118908D01*
X263545Y120791D01*
X262479Y122387D01*
X260882Y123454D01*
X259000Y123829D01*
D02*
G37*
G36*
X242674Y110571D02*
X240791Y110197D01*
X239195Y109130D01*
X238128Y107534D01*
X237754Y105651D01*
X238128Y103768D01*
X239195Y102172D01*
X240791Y101105D01*
X242674Y100730D01*
X244557Y101105D01*
X246153Y102172D01*
X247220Y103768D01*
X247595Y105651D01*
X247220Y107534D01*
X246153Y109130D01*
X244557Y110197D01*
X242674Y110571D01*
D02*
G37*
%LPD*%
D37*
X396600Y234100D02*
X397000D01*
X396400D02*
X396600D01*
X383500Y221000D02*
X396600Y234100D01*
X384750Y245750D02*
X396400Y234100D01*
D57*
X397000D02*
D03*
D59*
X15000Y162000D02*
D03*
Y228000D02*
D03*
D60*
X13000Y302000D02*
D03*
D63*
X320750Y251750D02*
D03*
X294000Y271000D02*
D03*
X289000Y263750D02*
D03*
X93250Y243250D02*
D03*
X74500Y185000D02*
D03*
X109500Y177500D02*
D03*
X256000Y199000D02*
D03*
X278750Y286000D02*
D03*
X315750Y160250D02*
D03*
X303500Y151750D02*
D03*
X317250Y143000D02*
D03*
X304250Y130250D02*
D03*
X317000Y117500D02*
D03*
X299250Y101000D02*
D03*
X317750Y88500D02*
D03*
X266000Y281000D02*
D03*
X288500Y293250D02*
D03*
X284750Y243000D02*
D03*
X317250Y198250D02*
D03*
X320500Y218750D02*
D03*
X258013Y240012D02*
D03*
X54000Y314750D02*
D03*
X55000Y307250D02*
D03*
X279500Y271250D02*
D03*
X223000Y324000D02*
D03*
X195000D02*
D03*
X135000Y318000D02*
D03*
X111000Y299000D02*
D03*
X254000Y324000D02*
D03*
X92000Y150000D02*
D03*
X15000D02*
D03*
X30000D02*
D03*
X45000D02*
D03*
X177000Y134000D02*
D03*
Y127000D02*
D03*
Y120000D02*
D03*
X112000Y131000D02*
D03*
Y120000D02*
D03*
X160000Y248000D02*
D03*
X168000Y241000D02*
D03*
X176000Y248000D02*
D03*
X168000Y261000D02*
D03*
X184000Y241000D02*
D03*
X192000Y248000D02*
D03*
X184000Y261000D02*
D03*
X200000Y241000D02*
D03*
X208000Y247000D02*
D03*
X216000Y241000D02*
D03*
X200000Y261000D02*
D03*
X224000Y248000D02*
D03*
X53000Y253000D02*
D03*
X111000Y268000D02*
D03*
X119000Y255000D02*
D03*
X129000Y281500D02*
D03*
X28000Y239000D02*
D03*
X231000Y314000D02*
D03*
X214000D02*
D03*
X160000Y311000D02*
D03*
X148000D02*
D03*
X91750Y165500D02*
D03*
X100750Y168750D02*
D03*
X83500Y159000D02*
D03*
X56500Y204000D02*
D03*
X67000Y204000D02*
D03*
X78000D02*
D03*
X54750Y234250D02*
D03*
X7000Y244000D02*
D03*
X17000Y256000D02*
D03*
X7000D02*
D03*
X17000Y268000D02*
D03*
X7000D02*
D03*
X17000Y281000D02*
D03*
X96000Y291500D02*
D03*
X114000Y282000D02*
D03*
X130000Y255000D02*
D03*
X83750Y244500D02*
D03*
X93500Y234500D02*
D03*
X7000Y281000D02*
D03*
X35250Y307500D02*
D03*
X53000Y263000D02*
D03*
X198000Y120000D02*
D03*
X160000Y271000D02*
D03*
X176000D02*
D03*
X168000Y281000D02*
D03*
X184000D02*
D03*
X200000D02*
D03*
X216000D02*
D03*
X192000Y271000D02*
D03*
X208000D02*
D03*
X224000D02*
D03*
X160000Y231000D02*
D03*
X176000D02*
D03*
X192000D02*
D03*
X208000D02*
D03*
X224000D02*
D03*
X208000Y211000D02*
D03*
X224000D02*
D03*
X192000Y210000D02*
D03*
X176000Y211000D02*
D03*
X160000D02*
D03*
X17000Y244000D02*
D03*
X60000Y150000D02*
D03*
X75000D02*
D03*
X168000Y182000D02*
D03*
X201000Y161000D02*
D03*
X216000Y261000D02*
D03*
X127000Y216000D02*
D03*
X320000Y7000D02*
D03*
X198000Y134000D02*
D03*
X312000Y7000D02*
D03*
X304000D02*
D03*
X296000D02*
D03*
X288000D02*
D03*
X280000D02*
D03*
X272000D02*
D03*
X264000D02*
D03*
X267000Y78750D02*
D03*
Y87000D02*
D03*
X207000D02*
D03*
Y98000D02*
D03*
Y109000D02*
D03*
X217500Y85250D02*
D03*
X186000Y182000D02*
D03*
X208000Y168000D02*
D03*
X216000Y161000D02*
D03*
X224000Y171000D02*
D03*
X216000Y121000D02*
D03*
X123000Y120000D02*
D03*
X134000D02*
D03*
X145000D02*
D03*
X166000D02*
D03*
X155000D02*
D03*
X281000Y135000D02*
D03*
X263000Y141000D02*
D03*
X281000D02*
D03*
X275000Y141000D02*
D03*
X269000Y141000D02*
D03*
X263000Y135000D02*
D03*
X269000Y135000D02*
D03*
X275000Y135000D02*
D03*
X258000Y185000D02*
D03*
X257000Y7000D02*
D03*
Y15000D02*
D03*
Y23000D02*
D03*
Y31000D02*
D03*
Y39000D02*
D03*
Y47000D02*
D03*
Y55000D02*
D03*
Y62500D02*
D03*
X267000Y71500D02*
D03*
X261500Y68000D02*
D03*
X318000D02*
D03*
X310000D02*
D03*
X302000D02*
D03*
X296000Y72000D02*
D03*
X292000Y78000D02*
D03*
X284000Y79000D02*
D03*
Y87000D02*
D03*
Y94000D02*
D03*
Y101000D02*
D03*
Y108000D02*
D03*
X233000Y134000D02*
D03*
X267000Y94250D02*
D03*
X225500Y118000D02*
D03*
X198000Y127000D02*
D03*
X225000Y134000D02*
D03*
X212000Y130000D02*
D03*
X245000Y121000D02*
D03*
X235750Y118000D02*
D03*
X241000Y135000D02*
D03*
X288000Y115000D02*
D03*
X291000Y122000D02*
D03*
Y129000D02*
D03*
Y136000D02*
D03*
Y143000D02*
D03*
Y150000D02*
D03*
X265000Y157000D02*
D03*
X239000Y9750D02*
D03*
X238500Y19750D02*
D03*
X237750Y74750D02*
D03*
X238000Y62000D02*
D03*
Y46750D02*
D03*
X238750Y31250D02*
D03*
X254500Y85750D02*
D03*
X261250Y230250D02*
D03*
X256500Y174000D02*
D03*
X251000Y152000D02*
D03*
X257000Y157000D02*
D03*
X267000Y101000D02*
D03*
X267250Y108000D02*
D03*
X252000Y125000D02*
D03*
X244750Y82250D02*
D03*
X231500Y95500D02*
D03*
X24500Y318000D02*
D03*
X30500Y176500D02*
D03*
X30000Y213000D02*
D03*
Y194500D02*
D03*
X54750Y225250D02*
D03*
X27750Y302750D02*
D03*
X46500Y290250D02*
D03*
X66000Y289250D02*
D03*
X85000Y288500D02*
D03*
X85570Y301730D02*
D03*
M02*
