G04 Layer_Color=16711935*
%FSLAX44Y44*%
%MOMM*%
G71*
G01*
G75*
%ADD88C,0.1000*%
D88*
X275500Y73000D02*
X286500D01*
X275500Y67000D02*
X286500D01*
X275500D02*
Y73000D01*
X286500Y67000D02*
X286500Y73000D01*
X273000Y79500D02*
X273000Y90500D01*
X279000Y79500D02*
Y90500D01*
X273000Y79500D02*
X279000D01*
X273000Y90500D02*
X279000D01*
X100000Y247500D02*
X106000Y247500D01*
X100000Y258500D02*
X106000D01*
X100000Y247500D02*
Y258500D01*
X106000Y247500D02*
Y258500D01*
X283000Y302500D02*
X283000Y313500D01*
X277000Y302500D02*
Y313500D01*
X283000D01*
X277000Y302500D02*
X283000D01*
X262000Y100500D02*
Y111500D01*
X256000Y100500D02*
Y111500D01*
X262000D01*
X256000Y100500D02*
X262000Y100500D01*
X88000Y328500D02*
X88000Y317500D01*
X94000Y317500D02*
Y328500D01*
X88000D02*
X94000D01*
X88000Y317500D02*
X94000Y317500D01*
X33500Y319000D02*
X44500Y319000D01*
X33500Y313000D02*
X44500D01*
Y319000D01*
X33500Y319000D02*
X33500Y313000D01*
X143500Y176000D02*
X154500D01*
X143500Y182000D02*
X154500D01*
X143500Y176000D02*
Y182000D01*
X154500D02*
X154500Y176000D01*
X127000Y145500D02*
Y156500D01*
X133000Y156500D02*
X133000Y145500D01*
X127000Y145500D02*
X133000Y145500D01*
X127000Y156500D02*
X133000Y156500D01*
X128500Y313000D02*
X139500D01*
X128500Y307000D02*
X139500D01*
X128500Y313000D02*
X128500Y307000D01*
X139500D02*
X139500Y313000D01*
X113000Y308500D02*
Y319500D01*
X119000Y308500D02*
Y319500D01*
X113000Y308500D02*
X119000Y308500D01*
X113000Y319500D02*
X119000Y319500D01*
X175000Y310500D02*
Y321500D01*
X169000Y310500D02*
Y321500D01*
X175000D01*
X169000Y310500D02*
X175000Y310500D01*
X279500Y327000D02*
X290500D01*
X279500Y321000D02*
X290500Y321000D01*
X279500Y321000D02*
X279500Y327000D01*
X290500D02*
X290500Y321000D01*
X253000Y100500D02*
Y111500D01*
X247000Y100500D02*
Y111500D01*
X253000D01*
X247000Y100500D02*
X253000Y100500D01*
X223500Y129000D02*
X234500Y129000D01*
X223500Y123000D02*
X234500Y123000D01*
X223500Y123000D02*
X223500Y129000D01*
X234500Y123000D02*
Y129000D01*
X266500Y302000D02*
X266500Y296000D01*
X255500Y302000D02*
X255500Y296000D01*
X266500Y296000D01*
X255500Y302000D02*
X266500Y302000D01*
X232500Y145750D02*
X243500D01*
X232500Y139750D02*
X243500Y139750D01*
X243500Y145750D02*
X243500Y139750D01*
X232500Y139750D02*
X232500Y145750D01*
X232500Y154000D02*
X243500D01*
X232500Y148000D02*
X243500Y148000D01*
X243500Y154000D02*
X243500Y148000D01*
X232500Y148000D02*
X232500Y154000D01*
M02*
