G04 Layer_Physical_Order=4*
G04 Layer_Color=16711680*
%FSLAX44Y44*%
%MOMM*%
G71*
G01*
G75*
%ADD10C,0.3048*%
%ADD11C,0.2540*%
%ADD12R,1.2700X1.0160*%
%ADD13R,0.8000X1.0500*%
%ADD17R,0.6000X0.5000*%
%ADD18R,0.5000X0.6000*%
%ADD24R,0.8000X1.0000*%
%ADD25R,1.0000X0.8000*%
%ADD34C,0.2032*%
%ADD35C,0.6350*%
%ADD36C,0.3000*%
%ADD37C,0.5080*%
%ADD38C,0.3810*%
%ADD57C,2.0000*%
%ADD58P,2.1648X8X292.5*%
%ADD59O,1.8000X0.9000*%
%ADD60R,1.8000X1.8000*%
%ADD61C,1.8000*%
%ADD62C,0.8500*%
%ADD63C,0.6096*%
%ADD64C,1.2700*%
%ADD65O,1.0000X0.8000*%
%ADD66R,1.3500X0.4000*%
%ADD67R,1.4000X1.6000*%
%ADD68R,1.9000X1.9000*%
%ADD69R,1.0500X0.8000*%
%ADD70R,0.4000X1.7000*%
G04:AMPARAMS|DCode=71|XSize=0.77mm|YSize=0.27mm|CornerRadius=0.0338mm|HoleSize=0mm|Usage=FLASHONLY|Rotation=180.000|XOffset=0mm|YOffset=0mm|HoleType=Round|Shape=RoundedRectangle|*
%AMROUNDEDRECTD71*
21,1,0.7700,0.2025,0,0,180.0*
21,1,0.7025,0.2700,0,0,180.0*
1,1,0.0675,-0.3513,0.1013*
1,1,0.0675,0.3513,0.1013*
1,1,0.0675,0.3513,-0.1013*
1,1,0.0675,-0.3513,-0.1013*
%
%ADD71ROUNDEDRECTD71*%
%ADD72R,0.9000X1.2000*%
%ADD73R,1.3000X1.8000*%
%ADD74R,0.7620X0.8128*%
G04:AMPARAMS|DCode=75|XSize=1.22mm|YSize=0.6mm|CornerRadius=0.15mm|HoleSize=0mm|Usage=FLASHONLY|Rotation=270.000|XOffset=0mm|YOffset=0mm|HoleType=Round|Shape=RoundedRectangle|*
%AMROUNDEDRECTD75*
21,1,1.2200,0.3000,0,0,270.0*
21,1,0.9200,0.6000,0,0,270.0*
1,1,0.3000,-0.1500,-0.4600*
1,1,0.3000,-0.1500,0.4600*
1,1,0.3000,0.1500,0.4600*
1,1,0.3000,0.1500,-0.4600*
%
%ADD75ROUNDEDRECTD75*%
%ADD76R,1.2400X2.2200*%
%ADD77O,0.3000X0.6700*%
%ADD78C,0.8000*%
G04:AMPARAMS|DCode=79|XSize=0.8mm|YSize=1.05mm|CornerRadius=0mm|HoleSize=0mm|Usage=FLASHONLY|Rotation=45.000|XOffset=0mm|YOffset=0mm|HoleType=Round|Shape=Rectangle|*
%AMROTATEDRECTD79*
4,1,4,0.0884,-0.6541,-0.6541,0.0884,-0.0884,0.6541,0.6541,-0.0884,0.0884,-0.6541,0.0*
%
%ADD79ROTATEDRECTD79*%

%ADD80C,0.4000*%
%ADD81C,0.1524*%
%ADD82C,0.6000*%
%ADD83R,1.7780X1.5240*%
%ADD84R,0.3730X1.8521*%
%ADD85R,1.4790X1.5040*%
%ADD86R,0.8230X0.8053*%
%ADD87R,0.8135X0.1718*%
G36*
X275985Y335622D02*
X275454Y334828D01*
X275079Y332945D01*
X275454Y331062D01*
X275217Y330672D01*
X273667Y330373D01*
X273048Y330848D01*
X271457Y331507D01*
X270020Y331696D01*
Y325135D01*
Y318575D01*
X271457Y318764D01*
X273048Y319423D01*
X274327Y320404D01*
X274711Y320335D01*
X275597Y319926D01*
Y315000D01*
X275889Y313534D01*
X275491Y312950D01*
X275355Y312753D01*
X275008Y312413D01*
X274627Y312413D01*
Y312413D01*
X274581Y312413D01*
X261972D01*
Y310057D01*
X261925Y310044D01*
X261631Y309995D01*
X261434Y309978D01*
X260558D01*
X260355Y309995D01*
X260056Y310045D01*
X260028Y310052D01*
Y312528D01*
X255040D01*
Y322730D01*
X236960D01*
Y312460D01*
X246472D01*
Y309095D01*
X246425Y309083D01*
X246131Y309034D01*
X245934Y309016D01*
X183728D01*
X182449Y308762D01*
X181364Y308037D01*
X168200Y294873D01*
X168121Y294814D01*
X168026Y294753D01*
X167984Y294730D01*
X167958Y294730D01*
X167000Y294921D01*
X165117Y294546D01*
X163521Y293479D01*
X162454Y291883D01*
X162080Y290000D01*
X162454Y288117D01*
X163521Y286521D01*
X165117Y285454D01*
X167000Y285079D01*
X168883Y285454D01*
X170479Y286521D01*
X171546Y288117D01*
X171658Y288682D01*
X171695Y288751D01*
X171709Y288795D01*
X171728Y288831D01*
X171776Y288908D01*
X171823Y288976D01*
X172220Y289440D01*
X173260Y290479D01*
X173901Y290285D01*
X174550Y289974D01*
X175521Y288521D01*
X177117Y287454D01*
X179000Y287080D01*
X180883Y287454D01*
X182479Y288521D01*
X182598Y288699D01*
X182647Y288729D01*
X182723Y288768D01*
X182816Y288805D01*
X182927Y288840D01*
X183061Y288871D01*
X183200Y288892D01*
X230463D01*
X245386Y273969D01*
X245795Y273529D01*
X246074Y273180D01*
X246222Y272967D01*
Y272149D01*
X246218Y272127D01*
X246222Y272106D01*
Y265972D01*
X259008D01*
X259778Y265972D01*
Y265972D01*
X260222Y266107D01*
X260222Y266107D01*
X273778D01*
Y277663D01*
X260992D01*
X260222Y277663D01*
Y277663D01*
X259778Y277528D01*
X259778Y277528D01*
X251644D01*
X251623Y277532D01*
X251601Y277528D01*
X250783D01*
X250591Y277662D01*
X250000Y278162D01*
Y284210D01*
X251980D01*
Y290750D01*
X254520D01*
Y284210D01*
X260790D01*
Y284539D01*
X262060Y285165D01*
X262702Y284673D01*
X264293Y284014D01*
X265730Y283825D01*
Y290385D01*
X267000D01*
Y291655D01*
X274429D01*
X274372Y292093D01*
X273713Y293684D01*
X273776Y300857D01*
X275528D01*
Y311358D01*
X275528Y311635D01*
X276798Y312020D01*
X276887Y311887D01*
X295352Y293422D01*
X295845Y292866D01*
X296474Y292076D01*
X296958Y291378D01*
X297222Y290916D01*
Y286077D01*
X297124Y285904D01*
X296661Y285516D01*
X295952Y285251D01*
X295818Y285321D01*
X295455Y285543D01*
X295055Y285828D01*
X294894Y285901D01*
X294254Y286328D01*
X292000Y286777D01*
X290000D01*
X287746Y286328D01*
X285834Y285051D01*
X284557Y283140D01*
X284109Y280885D01*
X284557Y278631D01*
X285834Y276720D01*
X287746Y275443D01*
X290000Y274994D01*
X292000D01*
X294254Y275443D01*
X294886Y275864D01*
X295042Y275933D01*
X295366Y276160D01*
X295654Y276327D01*
X295974Y276480D01*
X296329Y276618D01*
X296720Y276738D01*
X297150Y276840D01*
X297594Y276918D01*
X297985Y276954D01*
X299177Y276149D01*
Y271908D01*
X299250Y265250D01*
X290075Y259338D01*
X289867Y259296D01*
X288271Y258229D01*
X288000Y258000D01*
X286821Y257858D01*
X285359D01*
X285222Y257869D01*
X284965Y257910D01*
X284764Y257958D01*
X284617Y258008D01*
X284522Y258053D01*
X284472Y258085D01*
X284454Y258099D01*
X284453Y258100D01*
X284452Y258103D01*
X284350Y258349D01*
X283047Y260047D01*
X281349Y261350D01*
X279372Y262169D01*
X277250Y262448D01*
X275128Y262169D01*
X273151Y261350D01*
X271453Y260047D01*
X270150Y258349D01*
X269886Y257712D01*
X269832Y257646D01*
X269814Y257612D01*
X268708Y257470D01*
X267903Y258412D01*
X267920Y258500D01*
X267546Y260383D01*
X266479Y261979D01*
X264883Y263046D01*
X263000Y263421D01*
X261117Y263046D01*
X259986Y262290D01*
X254270D01*
Y255750D01*
X253000D01*
Y254480D01*
X245460D01*
Y253094D01*
X244287Y252608D01*
X240355Y256539D01*
X239347Y257213D01*
X238158Y257450D01*
X157342D01*
X156153Y257213D01*
X155145Y256539D01*
X150772Y252167D01*
X150659Y252084D01*
X150543Y252011D01*
X150440Y251957D01*
X150347Y251918D01*
X150265Y251891D01*
X150210Y251879D01*
X150000Y251921D01*
X148117Y251546D01*
X146521Y250479D01*
X145454Y248883D01*
X145079Y247000D01*
X145454Y245117D01*
X146521Y243521D01*
X148117Y242454D01*
X150000Y242079D01*
X151883Y242454D01*
X153479Y243521D01*
X154546Y245117D01*
X154921Y247000D01*
X154879Y247210D01*
X154892Y247265D01*
X154918Y247348D01*
X154957Y247439D01*
X155012Y247543D01*
X155084Y247659D01*
X155168Y247773D01*
X158629Y251234D01*
X236871D01*
X239392Y248713D01*
X238906Y247540D01*
X236960D01*
Y237270D01*
X255040D01*
Y244940D01*
X257310D01*
X263194Y239057D01*
X263278Y238958D01*
X263443Y238737D01*
X263567Y238544D01*
X263652Y238383D01*
X263703Y238258D01*
X263729Y238170D01*
X263737Y238116D01*
X263738Y238089D01*
X263720Y237946D01*
X263728Y237838D01*
X263552Y236500D01*
X263831Y234378D01*
X264650Y232401D01*
X264490Y232240D01*
Y219026D01*
X264444Y219003D01*
X264319Y218957D01*
X264134Y218910D01*
X263891Y218870D01*
X263751Y218858D01*
X235537D01*
X229898Y224497D01*
X228889Y225171D01*
X227700Y225408D01*
X159298D01*
X134460Y250246D01*
X133452Y250919D01*
X132263Y251156D01*
X117460D01*
X116735Y252241D01*
X115139Y253308D01*
X113256Y253683D01*
X111372Y253308D01*
X109776Y252241D01*
X108709Y250645D01*
X108470Y249441D01*
X107200Y249566D01*
Y262700D01*
Y275000D01*
X105357Y274708D01*
X105156Y274757D01*
X104128Y275799D01*
Y286928D01*
X87872D01*
Y284067D01*
X87849Y283752D01*
X87798Y283510D01*
X87698Y283209D01*
X87539Y282853D01*
X87316Y282447D01*
X87024Y281997D01*
X86676Y281524D01*
X86389Y281189D01*
X85119Y281659D01*
Y282450D01*
X84805Y284027D01*
X83912Y285363D01*
X82576Y286256D01*
X82270Y286317D01*
Y280600D01*
X79730D01*
Y286317D01*
X79423Y286256D01*
X78087Y285363D01*
X77666Y285279D01*
X77279Y285538D01*
X76000Y285792D01*
X74721Y285538D01*
X74504Y285393D01*
X73500Y284883D01*
X72496Y285393D01*
X72279Y285538D01*
X71000Y285792D01*
X69721Y285538D01*
X69034Y285079D01*
X69032Y285078D01*
X69029Y285075D01*
X68636Y284813D01*
X68503Y284613D01*
X68501Y284611D01*
X68371Y284441D01*
X68300Y284371D01*
X68210Y284300D01*
X68091Y284229D01*
X67933Y284156D01*
X67732Y284088D01*
X67484Y284027D01*
X67187Y283979D01*
X67047Y283967D01*
X63596D01*
X63389Y283985D01*
X63083Y284035D01*
X63028Y284050D01*
Y287778D01*
X50812D01*
X50791Y287782D01*
X50785Y287781D01*
X50781Y287782D01*
X50759Y287778D01*
X48972D01*
Y287225D01*
X46416Y287052D01*
X46176Y287058D01*
X44778Y287174D01*
Y287778D01*
X42991D01*
X42969Y287782D01*
X42965Y287781D01*
X42960Y287782D01*
X42938Y287778D01*
X36579D01*
X36093Y288951D01*
X37388Y290246D01*
X38639Y291348D01*
X39207Y291795D01*
X39667Y292117D01*
X39848Y292222D01*
X44778D01*
Y296636D01*
X46940Y298798D01*
X48210Y298272D01*
Y291460D01*
X54730D01*
Y298000D01*
Y301957D01*
X50781Y301970D01*
X51100Y302020D01*
X51385Y302173D01*
X51637Y302427D01*
X51855Y302782D01*
X52040Y303239D01*
X52191Y303798D01*
X52309Y304459D01*
X52318Y304540D01*
X49050D01*
Y316000D01*
X48951Y316500D01*
X49050Y317000D01*
Y321908D01*
X49364Y322222D01*
X54778D01*
Y335778D01*
X54778D01*
X55155Y336892D01*
X275306D01*
X275985Y335622D01*
D02*
G37*
G36*
X301917Y332699D02*
X304203Y330779D01*
X304840Y330361D01*
X305415Y330055D01*
X305928Y329859D01*
X306378Y329775D01*
X306766Y329801D01*
X307092Y329939D01*
X299811Y325159D01*
X300040Y325393D01*
X300138Y325710D01*
X300105Y326109D01*
X299940Y326590D01*
X299645Y327153D01*
X299219Y327799D01*
X298662Y328527D01*
X297154Y330229D01*
X296204Y331204D01*
X301031Y333562D01*
X301917Y332699D01*
D02*
G37*
G36*
X20167Y332986D02*
X20911Y332347D01*
X21660Y331782D01*
X22413Y331294D01*
X23172Y330880D01*
X23935Y330542D01*
X24703Y330279D01*
X25475Y330091D01*
X25799Y330044D01*
X26553Y330169D01*
X27217Y330347D01*
X27779Y330575D01*
X28239Y330855D01*
X28597Y331185D01*
X28854Y331566D01*
X29009Y331998D01*
X29061Y332480D01*
X29031Y324031D01*
X28980Y324188D01*
X28828Y324329D01*
X28574Y324454D01*
X28218Y324562D01*
X27761Y324653D01*
X27202Y324727D01*
X26119Y324803D01*
X25475Y324710D01*
X24703Y324522D01*
X23935Y324259D01*
X23172Y323920D01*
X22413Y323507D01*
X21660Y323018D01*
X20911Y322454D01*
X20167Y321815D01*
X19427Y321100D01*
Y333700D01*
X20167Y332986D01*
D02*
G37*
G36*
X27222Y322292D02*
Y322222D01*
X28248D01*
X28460Y321040D01*
X28460D01*
Y317270D01*
X34000D01*
Y316000D01*
X35270D01*
Y310960D01*
X38950D01*
Y305092D01*
X37636Y303778D01*
X31222D01*
Y298748D01*
X31000Y298424D01*
X28942Y296084D01*
X27429Y294571D01*
X27429Y294571D01*
X27392Y294534D01*
X27378Y294524D01*
X25713Y292860D01*
X24540Y293346D01*
Y300730D01*
X14270D01*
Y290460D01*
X22288D01*
X23223Y289190D01*
X22997Y288052D01*
Y272953D01*
X23381Y271020D01*
X24476Y269382D01*
X27263Y266595D01*
X27779Y266035D01*
X28380Y265280D01*
X28900Y264545D01*
X29328Y263848D01*
X29665Y263194D01*
X29917Y262584D01*
X30087Y262021D01*
X30183Y261506D01*
X30221Y260914D01*
X30222Y260912D01*
Y259222D01*
X32006D01*
X32027Y259218D01*
X32049Y259222D01*
X32141D01*
X32146Y259221D01*
X32149Y259222D01*
X43778D01*
Y270778D01*
X55420D01*
Y247673D01*
X55420Y247420D01*
X54810Y246403D01*
X45823D01*
X45584Y246642D01*
X44517Y247847D01*
X44039Y248473D01*
X43778Y248868D01*
Y254778D01*
X30222D01*
Y243222D01*
X35985D01*
X36209Y243103D01*
X36688Y242789D01*
X38558Y241216D01*
X40887Y238887D01*
X41002Y238810D01*
X40770Y238047D01*
Y228270D01*
X49040D01*
X49040Y237540D01*
X50286Y237597D01*
X60460D01*
Y233270D01*
X67000D01*
Y230730D01*
X60460D01*
Y224210D01*
X60460Y224210D01*
X60351Y222985D01*
X59912Y222329D01*
X59723Y221378D01*
X59712Y221368D01*
X59522Y221255D01*
X59186Y221121D01*
X58701Y220994D01*
X58073Y220892D01*
X57644Y220855D01*
X57433Y220996D01*
X55550Y221371D01*
X53667Y220996D01*
X52071Y219929D01*
X51004Y218333D01*
X50629Y216450D01*
X50930Y214939D01*
X51004Y214567D01*
X51481Y213853D01*
X51519Y213629D01*
X50692Y212566D01*
X50507Y212540D01*
X49891Y212540D01*
X43020D01*
Y209270D01*
X51040D01*
Y211330D01*
X51040Y212248D01*
X51676Y212694D01*
X52155Y212914D01*
X52541Y212656D01*
X53667Y211904D01*
X55550Y211530D01*
X57433Y211904D01*
X57644Y212045D01*
X58073Y212008D01*
X58701Y211906D01*
X59186Y211779D01*
X59522Y211645D01*
X59712Y211532D01*
X59723Y211522D01*
X59912Y210571D01*
X60637Y209487D01*
X61721Y208762D01*
X63000Y208508D01*
X66000D01*
X67279Y208762D01*
X67900Y209177D01*
X69497Y209072D01*
X69587Y208937D01*
X70924Y208044D01*
X72500Y207731D01*
X72730D01*
Y216450D01*
X75270D01*
Y207731D01*
X75500D01*
X77077Y208044D01*
X78413Y208937D01*
X78503Y209072D01*
X80100Y209177D01*
X80721Y208762D01*
X82000Y208508D01*
X85000D01*
X86279Y208762D01*
X87363Y209487D01*
X88088Y210571D01*
X88342Y211850D01*
Y220123D01*
X89612Y220802D01*
X90132Y220454D01*
X90385Y220404D01*
X91426Y219363D01*
X92021Y218729D01*
X92630Y217993D01*
X93112Y217340D01*
X93427Y216836D01*
Y212158D01*
X104603D01*
Y223842D01*
X99892D01*
X99476Y224102D01*
X98834Y224578D01*
X97524Y225717D01*
X96611Y226630D01*
X96561Y226883D01*
X95494Y228479D01*
X93898Y229546D01*
X92015Y229921D01*
X90132Y229546D01*
X89898Y229390D01*
X88778Y229988D01*
Y239028D01*
X84811D01*
X84403Y239262D01*
X83722Y239735D01*
X82242Y240984D01*
X78113Y245113D01*
X76685Y246068D01*
X76269Y246150D01*
X76394Y247420D01*
X94580D01*
X94580Y247420D01*
X95850D01*
X98800Y247420D01*
Y243300D01*
X98800D01*
X99220Y242030D01*
X98454Y240883D01*
X98080Y239000D01*
X98454Y237117D01*
X99521Y235521D01*
X101117Y234454D01*
X103000Y234079D01*
X104883Y234454D01*
X105569Y234912D01*
X106712Y234148D01*
X106585Y233511D01*
X106959Y231628D01*
X108026Y230032D01*
X109622Y228965D01*
X111505Y228591D01*
X112690Y228827D01*
X113960Y227936D01*
X113960Y224460D01*
X112946Y223842D01*
X107397D01*
Y213988D01*
X107392Y213966D01*
X107397Y213944D01*
Y213941D01*
X107393Y213919D01*
X107397Y213903D01*
Y212158D01*
X108003D01*
X108200Y209482D01*
Y203750D01*
X108222Y203639D01*
Y196494D01*
X107460Y195540D01*
X107460Y195540D01*
X107460Y195540D01*
Y189270D01*
X114000D01*
Y188000D01*
X115270D01*
Y180460D01*
X118221D01*
Y178679D01*
X117240Y177873D01*
X117000Y177920D01*
X115117Y177546D01*
X113521Y176479D01*
X112454Y174883D01*
X112079Y173000D01*
X112454Y171117D01*
X113521Y169521D01*
X115117Y168454D01*
X115631Y168352D01*
X116444Y167271D01*
X116116Y166608D01*
X114177D01*
X114045Y166630D01*
X113925Y166659D01*
X113830Y166691D01*
X113754Y166724D01*
X113695Y166758D01*
X113647Y166791D01*
X113605Y166827D01*
X113558Y166877D01*
X113355Y167180D01*
X111759Y168247D01*
X109876Y168621D01*
X107993Y168247D01*
X106396Y167180D01*
X105330Y165584D01*
X104955Y163701D01*
X105330Y161818D01*
X106396Y160221D01*
X107993Y159155D01*
X109876Y158780D01*
X111759Y159155D01*
X113355Y160221D01*
X113366Y160237D01*
X113425Y160265D01*
X113534Y160305D01*
X113661Y160341D01*
X113807Y160372D01*
X113952Y160392D01*
X148098D01*
X148483Y159122D01*
X147521Y158479D01*
X146454Y156883D01*
X146080Y155000D01*
X146454Y153117D01*
X147521Y151521D01*
X149117Y150454D01*
X151000Y150079D01*
X152883Y150454D01*
X154479Y151521D01*
X155546Y153117D01*
X155920Y155000D01*
X157137Y155392D01*
X160377D01*
X160687Y155330D01*
X167460D01*
Y154960D01*
X170730D01*
Y166000D01*
Y177040D01*
X167460D01*
Y176669D01*
X160687D01*
X159540Y177701D01*
Y177730D01*
X157477D01*
X157295Y177618D01*
X157152Y177486D01*
X157051Y177334D01*
X156990Y177161D01*
X156969Y176968D01*
Y177730D01*
X154000D01*
Y179000D01*
X152730D01*
Y184040D01*
X150594D01*
X150108Y185213D01*
X151376Y186481D01*
X151595Y186673D01*
X151925Y186933D01*
X152206Y187124D01*
X152380Y187222D01*
X153013D01*
X153018Y187221D01*
X153027Y187222D01*
X153226D01*
X153233Y187221D01*
X153236Y187222D01*
X158410D01*
Y186460D01*
X164180D01*
Y195000D01*
Y203540D01*
X158410D01*
Y202778D01*
X146472D01*
Y191483D01*
X146471Y191478D01*
X146472Y191468D01*
Y190476D01*
X145816Y189712D01*
X141803Y185697D01*
X141129Y184689D01*
X140892Y183500D01*
Y183278D01*
X139222D01*
Y182124D01*
X139188Y182119D01*
X139053Y182108D01*
X132700D01*
X132546Y182883D01*
X131479Y184479D01*
X129883Y185546D01*
X128000Y185920D01*
X126117Y185546D01*
X125189Y184926D01*
X123919Y185604D01*
Y191013D01*
X124000Y191079D01*
X125883Y191454D01*
X127479Y192520D01*
X128546Y194117D01*
X128920Y196000D01*
X128546Y197883D01*
X127479Y199479D01*
X125883Y200546D01*
X124000Y200920D01*
X122117Y200546D01*
X121048Y199832D01*
X119778Y200480D01*
Y207947D01*
X119782Y207969D01*
X119778Y207991D01*
Y209778D01*
X118637D01*
X118573Y209993D01*
X118471Y210506D01*
X118356Y211922D01*
X118573Y212158D01*
X118573D01*
Y213932D01*
X118577Y213953D01*
X118576Y213959D01*
X118577Y213966D01*
X118573Y213988D01*
Y223190D01*
X118573Y223842D01*
X119587Y224460D01*
X121730D01*
Y236000D01*
X123000D01*
Y237270D01*
X132040D01*
Y242216D01*
X133213Y242702D01*
X155813Y220102D01*
X156822Y219429D01*
X158011Y219192D01*
X226413D01*
X232052Y213552D01*
X233061Y212879D01*
X234250Y212642D01*
X258849D01*
X259235Y211372D01*
X259021Y211229D01*
X257954Y209633D01*
X257579Y207750D01*
X257954Y205867D01*
X259021Y204271D01*
X259085Y204227D01*
X259093Y204203D01*
X259121Y204085D01*
X259143Y203954D01*
X259158Y203784D01*
Y202500D01*
X259412Y201221D01*
X260137Y200137D01*
X263334Y196940D01*
X263455Y196794D01*
X263642Y196533D01*
X263778Y196306D01*
X263869Y196114D01*
X263922Y195960D01*
X263946Y195842D01*
X263952Y195754D01*
X263947Y195682D01*
X263932Y195615D01*
X263831Y195372D01*
X263552Y193250D01*
X263831Y191128D01*
X264650Y189151D01*
X265953Y187453D01*
X267651Y186150D01*
X269628Y185331D01*
X271750Y185052D01*
X273872Y185331D01*
X275849Y186150D01*
X277547Y187453D01*
X277989Y188030D01*
X279177Y187491D01*
X279079Y187000D01*
X279454Y185117D01*
X280194Y184010D01*
X279938Y182666D01*
X279808Y182475D01*
X278901Y182100D01*
X277203Y180797D01*
X275900Y179099D01*
X275081Y177122D01*
X274802Y175000D01*
X275081Y172878D01*
X275900Y170901D01*
X277203Y169203D01*
X278223Y168421D01*
X277792Y167151D01*
X269351D01*
X269351Y154850D01*
X288651Y154850D01*
X288651Y156120D01*
Y167151D01*
X288208D01*
X287777Y168421D01*
X288797Y169203D01*
X290100Y170901D01*
X290919Y172878D01*
X291198Y175000D01*
X290919Y177122D01*
X290100Y179099D01*
X288797Y180797D01*
X287185Y182034D01*
X287188Y182928D01*
X287233Y183343D01*
X287258Y183373D01*
X287479Y183521D01*
X288546Y185117D01*
X288920Y187000D01*
X288546Y188883D01*
X287479Y190479D01*
X287258Y190627D01*
X287170Y190734D01*
X287082Y190856D01*
X287011Y190975D01*
X286955Y191090D01*
X286910Y191203D01*
X286876Y191318D01*
X286851Y191438D01*
X286849Y191458D01*
Y205074D01*
X288814D01*
X290890Y203686D01*
X293340Y203199D01*
X295789Y203686D01*
X297866Y205074D01*
X298304Y205729D01*
X299652Y205461D01*
X299719Y205127D01*
X300786Y203531D01*
X302382Y202464D01*
X304265Y202090D01*
X306148Y202464D01*
X307744Y203531D01*
X308234Y204264D01*
X309054Y205002D01*
X309861Y204587D01*
X311210Y203686D01*
X313660Y203199D01*
X316109Y203686D01*
X318186Y205074D01*
X319574Y207150D01*
X320061Y209600D01*
X319574Y212049D01*
X318186Y214126D01*
X316109Y215514D01*
X313660Y216001D01*
X312875Y215845D01*
X312380Y217041D01*
X314016Y218134D01*
X315293Y220045D01*
X315741Y222300D01*
X315293Y224554D01*
X314016Y226466D01*
X312347Y227581D01*
X312274Y228497D01*
X312381Y228969D01*
X313148Y229287D01*
X314514Y230336D01*
X315562Y231702D01*
X316222Y233293D01*
X316295Y233849D01*
X317636Y234304D01*
X317845Y234095D01*
X319063Y233281D01*
X320500Y232995D01*
X344500D01*
X345937Y233281D01*
X347155Y234095D01*
X360572Y247512D01*
X361386Y248730D01*
X361672Y250167D01*
Y251115D01*
X362875Y251523D01*
X363200Y251100D01*
X365660Y249212D01*
X368525Y248025D01*
X371600Y247620D01*
X374675Y248025D01*
X377540Y249212D01*
X380000Y251100D01*
X381888Y253560D01*
X383075Y256425D01*
X383480Y259500D01*
X383075Y262574D01*
X381888Y265440D01*
X380000Y267900D01*
X379577Y268225D01*
X379985Y269428D01*
X381762D01*
X384653Y266536D01*
X385222Y265389D01*
Y253611D01*
X391111Y247722D01*
X394667D01*
X394750Y246452D01*
X393727Y246317D01*
X390676Y245053D01*
X390005Y244539D01*
X390678Y244326D01*
X391613Y244122D01*
X392607Y243993D01*
X393661Y243936D01*
X394774Y243953D01*
X395946Y244044D01*
X387059Y233272D01*
X396200Y224132D01*
X395187Y224178D01*
X394212Y224151D01*
X393276Y224051D01*
X392378Y223878D01*
X391518Y223632D01*
X390697Y223313D01*
X390553Y223240D01*
X390676Y223146D01*
X393727Y221882D01*
X395448Y221656D01*
Y220375D01*
X393925Y220175D01*
X391060Y218988D01*
X388600Y217100D01*
X386712Y214640D01*
X385525Y211774D01*
X385120Y208700D01*
X385525Y205625D01*
X386712Y202760D01*
X388600Y200300D01*
X391060Y198412D01*
X393925Y197225D01*
X397000Y196820D01*
X400075Y197225D01*
X402940Y198412D01*
X405400Y200300D01*
X406622Y201892D01*
X407892Y201461D01*
Y192398D01*
X343358D01*
Y217750D01*
X343380D01*
X343052Y220243D01*
X342090Y222565D01*
X340560Y224560D01*
X338565Y226090D01*
X336242Y227052D01*
X333750Y227380D01*
Y227383D01*
X331192Y227046D01*
X328809Y226059D01*
X326762Y224488D01*
X325191Y222441D01*
X324204Y220058D01*
X323867Y217500D01*
X323892D01*
Y42170D01*
X322900Y41500D01*
X322622Y41500D01*
X315500D01*
X315500Y41500D01*
Y64000D01*
X291750Y64000D01*
X291750Y64000D01*
Y74000D01*
X281000D01*
Y114000D01*
X270000D01*
Y64000D01*
X262910Y64000D01*
X263010Y14000D01*
X271500Y14000D01*
Y14000D01*
X303630D01*
X304900Y14000D01*
X304900Y14000D01*
X304900Y14000D01*
X304900Y15270D01*
Y26500D01*
X322622D01*
X322900Y26500D01*
X323892Y25830D01*
Y3108D01*
X231000D01*
Y81000D01*
X204000D01*
Y116000D01*
X195000D01*
Y138000D01*
X195000Y138000D01*
X195000D01*
Y150000D01*
X180000D01*
Y138000D01*
X180000D01*
Y116000D01*
X109000Y116000D01*
Y146000D01*
X3108D01*
Y158132D01*
X4263Y158427D01*
X4378Y158415D01*
X5479Y156979D01*
X6950Y155851D01*
X8662Y155141D01*
X10500Y154899D01*
X13730D01*
Y162000D01*
Y169101D01*
X10500D01*
X8662Y168859D01*
X6950Y168149D01*
X5479Y167021D01*
X4378Y165585D01*
X4263Y165573D01*
X3108Y165868D01*
Y170960D01*
X13730D01*
Y183000D01*
X15000D01*
Y184270D01*
X27040D01*
Y194960D01*
Y205730D01*
X15000D01*
Y207000D01*
X13730D01*
Y219040D01*
X3108D01*
Y224132D01*
X4263Y224427D01*
X4378Y224414D01*
X5479Y222979D01*
X6950Y221850D01*
X8662Y221141D01*
X10500Y220899D01*
X13730D01*
Y228000D01*
Y235101D01*
X10500D01*
X8662Y234859D01*
X6950Y234149D01*
X5479Y233021D01*
X4378Y231585D01*
X4263Y231573D01*
X3108Y231868D01*
Y290460D01*
X11730D01*
Y302000D01*
Y313540D01*
X3108D01*
Y320501D01*
X4378Y320932D01*
X5313Y319713D01*
X7564Y317986D01*
X10186Y316900D01*
X13000Y316529D01*
X15814Y316900D01*
X18435Y317986D01*
X20687Y319713D01*
X20934Y320035D01*
X21388Y320474D01*
X22048Y321041D01*
X22699Y321531D01*
X23342Y321948D01*
X23975Y322293D01*
X24598Y322569D01*
X25212Y322780D01*
X25820Y322928D01*
X25975Y322951D01*
X27222Y322292D01*
D02*
G37*
G36*
X321784Y320005D02*
X321568Y319929D01*
X321377Y319802D01*
X321212Y319624D01*
X321073Y319395D01*
X320958Y319116D01*
X320869Y318786D01*
X320806Y318405D01*
X320773Y318032D01*
X320806Y317659D01*
X320869Y317278D01*
X320958Y316948D01*
X321073Y316669D01*
X321212Y316440D01*
X321377Y316262D01*
X321568Y316135D01*
X321784Y316059D01*
X322025Y316034D01*
X316945D01*
X317186Y316059D01*
X317402Y316135D01*
X317593Y316262D01*
X317758Y316440D01*
X317898Y316669D01*
X318012Y316948D01*
X318101Y317278D01*
X318164Y317659D01*
X318197Y318032D01*
X318164Y318405D01*
X318101Y318786D01*
X318012Y319116D01*
X317898Y319395D01*
X317758Y319624D01*
X317593Y319802D01*
X317402Y319929D01*
X317186Y320005D01*
X316945Y320030D01*
X322025D01*
X321784Y320005D01*
D02*
G37*
G36*
X296383Y318331D02*
X296506Y318080D01*
X296710Y317859D01*
X296996Y317667D01*
X297363Y317504D01*
X297812Y317372D01*
X298343Y317268D01*
X298955Y317194D01*
X299650Y317150D01*
X300425Y317135D01*
Y316515D01*
X301736Y316034D01*
X301766Y312635D01*
X301733Y312920D01*
X301640Y313175D01*
X301488Y313400D01*
X301275Y313595D01*
X301002Y313760D01*
X300669Y313895D01*
X300275Y314000D01*
X299822Y314075D01*
X299480Y314105D01*
X298343Y314003D01*
X297812Y313899D01*
X297363Y313766D01*
X296996Y313604D01*
X296710Y313412D01*
X296506Y313191D01*
X296383Y312940D01*
X296343Y312660D01*
Y318611D01*
X296383Y318331D01*
D02*
G37*
G36*
X263780Y303635D02*
X263750Y303920D01*
X263661Y304175D01*
X263510Y304400D01*
X263300Y304595D01*
X263030Y304760D01*
X262701Y304895D01*
X262311Y305000D01*
X261861Y305075D01*
X261350Y305120D01*
X260999Y305130D01*
X260644Y305120D01*
X260128Y305075D01*
X259674Y305000D01*
X259280Y304895D01*
X258947Y304760D01*
X258674Y304595D01*
X258462Y304400D01*
X258310Y304175D01*
X258219Y303920D01*
X258189Y303635D01*
Y309635D01*
X258219Y309350D01*
X258310Y309095D01*
X258462Y308870D01*
X258674Y308675D01*
X258947Y308510D01*
X259280Y308375D01*
X259674Y308270D01*
X260128Y308195D01*
X260644Y308150D01*
X260999Y308141D01*
X261350Y308150D01*
X261861Y308195D01*
X262311Y308270D01*
X262701Y308375D01*
X263030Y308510D01*
X263300Y308675D01*
X263510Y308870D01*
X263661Y309095D01*
X263750Y309350D01*
X263780Y309635D01*
Y303635D01*
D02*
G37*
G36*
X248281Y302780D02*
X248251Y303045D01*
X248160Y303282D01*
X248011Y303491D01*
X247801Y303672D01*
X247530Y303826D01*
X247201Y303951D01*
X246810Y304049D01*
X246360Y304118D01*
X245851Y304160D01*
X245280Y304174D01*
Y307174D01*
X245851Y307189D01*
X246360Y307234D01*
X246810Y307309D01*
X247201Y307414D01*
X247530Y307549D01*
X247801Y307714D01*
X248011Y307909D01*
X248160Y308134D01*
X248251Y308389D01*
X248281Y308674D01*
Y302780D01*
D02*
G37*
G36*
X40091Y294061D02*
X39869Y294132D01*
X39562Y294086D01*
X39169Y293924D01*
X38691Y293646D01*
X38127Y293252D01*
X37478Y292742D01*
X35925Y291373D01*
X34030Y289540D01*
X28755Y293245D01*
X29735Y294240D01*
X32433Y297309D01*
X32803Y297848D01*
X33050Y298295D01*
X33176Y298652D01*
X33180Y298917D01*
X33061Y299091D01*
X40091Y294061D01*
D02*
G37*
G36*
X171338Y291163D02*
X171106Y290926D01*
X170387Y290086D01*
X170260Y289904D01*
X170154Y289732D01*
X170069Y289572D01*
X170005Y289423D01*
X169963Y289284D01*
X167775Y292948D01*
X167953Y292916D01*
X168138Y292913D01*
X168329Y292938D01*
X168527Y292992D01*
X168731Y293075D01*
X168941Y293186D01*
X169158Y293325D01*
X169381Y293493D01*
X169611Y293690D01*
X169848Y293915D01*
X171338Y291163D01*
D02*
G37*
G36*
X181353Y293969D02*
X181544Y293823D01*
X181750Y293693D01*
X181971Y293581D01*
X182206Y293486D01*
X182455Y293408D01*
X182719Y293348D01*
X182998Y293305D01*
X183292Y293279D01*
X183600Y293270D01*
Y290730D01*
X183292Y290721D01*
X182998Y290695D01*
X182719Y290652D01*
X182455Y290592D01*
X182206Y290514D01*
X181971Y290419D01*
X181750Y290307D01*
X181544Y290177D01*
X181353Y290030D01*
X181177Y289866D01*
Y294134D01*
X181353Y293969D01*
D02*
G37*
G36*
X299120Y299508D02*
X301051Y297861D01*
X301893Y297269D01*
X302653Y296830D01*
X303330Y296544D01*
X303925Y296412D01*
X304437Y296434D01*
X304867Y296610D01*
X305215Y296939D01*
X299061Y288785D01*
X299301Y289222D01*
X299406Y289722D01*
X299378Y290284D01*
X299217Y290909D01*
X298921Y291596D01*
X298492Y292346D01*
X297929Y293158D01*
X297233Y294033D01*
X296402Y294970D01*
X295438Y295969D01*
X298031Y300562D01*
X299120Y299508D01*
D02*
G37*
G36*
X321493Y287000D02*
X321234Y286908D01*
X321006Y286756D01*
X320808Y286543D01*
X320640Y286268D01*
X320503Y285933D01*
X320396Y285537D01*
X320320Y285080D01*
X320274Y284562D01*
X320270Y284407D01*
X320274Y284252D01*
X320320Y283734D01*
X320396Y283277D01*
X320503Y282881D01*
X320640Y282546D01*
X320808Y282271D01*
X321006Y282058D01*
X321234Y281905D01*
X321493Y281814D01*
X321783Y281784D01*
X315687D01*
X315977Y281814D01*
X316236Y281905D01*
X316464Y282058D01*
X316662Y282271D01*
X316830Y282546D01*
X316967Y282881D01*
X317074Y283277D01*
X317150Y283734D01*
X317196Y284252D01*
X317200Y284407D01*
X317196Y284562D01*
X317150Y285080D01*
X317074Y285537D01*
X316967Y285933D01*
X316830Y286268D01*
X316662Y286543D01*
X316464Y286756D01*
X316236Y286908D01*
X315977Y287000D01*
X315687Y287030D01*
X321783D01*
X321493Y287000D01*
D02*
G37*
G36*
X61221Y283359D02*
X61315Y283099D01*
X61470Y282871D01*
X61686Y282673D01*
X61963Y282505D01*
X62301Y282368D01*
X62701Y282261D01*
X63162Y282185D01*
X63684Y282139D01*
X64268Y282124D01*
Y279076D01*
X63688Y279066D01*
X62713Y278982D01*
X62317Y278909D01*
X61982Y278815D01*
X61707Y278700D01*
X61494Y278564D01*
X61342Y278407D01*
X61250Y278229D01*
X61220Y278030D01*
X61189Y283648D01*
X61221Y283359D01*
D02*
G37*
G36*
X43033Y285819D02*
X43224Y285684D01*
X43541Y285564D01*
X43986Y285461D01*
X44557Y285374D01*
X46081Y285247D01*
X46457Y285238D01*
X49764Y285461D01*
X50209Y285564D01*
X50526Y285683D01*
X50717Y285819D01*
X50781Y285970D01*
Y278030D01*
X50717Y278181D01*
X50526Y278316D01*
X50209Y278436D01*
X49764Y278539D01*
X49193Y278626D01*
X47669Y278754D01*
X47293Y278762D01*
X43986Y278539D01*
X43541Y278436D01*
X43224Y278317D01*
X43033Y278181D01*
X42969Y278031D01*
Y285970D01*
X43033Y285819D01*
D02*
G37*
G36*
X69940Y277691D02*
X69739Y277954D01*
X69505Y278189D01*
X69238Y278397D01*
X68938Y278577D01*
X68606Y278730D01*
X68241Y278855D01*
X67843Y278951D01*
X67413Y279021D01*
X66949Y279062D01*
X66453Y279076D01*
Y282124D01*
X66949Y282138D01*
X67413Y282180D01*
X67843Y282249D01*
X68241Y282346D01*
X68606Y282470D01*
X68938Y282623D01*
X69238Y282803D01*
X69505Y283011D01*
X69739Y283246D01*
X69940Y283510D01*
Y277691D01*
D02*
G37*
G36*
X294454Y284030D02*
X294925Y283742D01*
X295415Y283487D01*
X295923Y283266D01*
X296451Y283079D01*
X296998Y282927D01*
X297563Y282808D01*
X298148Y282723D01*
X298751Y282672D01*
X299374Y282655D01*
X299357Y282156D01*
X300986Y281784D01*
X301016Y276940D01*
X300975Y277302D01*
X300859Y277626D01*
X300665Y277912D01*
X300396Y278159D01*
X300050Y278369D01*
X299628Y278540D01*
X299129Y278674D01*
X298554Y278769D01*
X298227Y278797D01*
X297353Y278717D01*
X296783Y278617D01*
X296243Y278488D01*
X295734Y278331D01*
X295255Y278146D01*
X294807Y277932D01*
X294389Y277689D01*
X294002Y277418D01*
Y284353D01*
X294454Y284030D01*
D02*
G37*
G36*
X89681Y281589D02*
X89848Y282044D01*
X89937Y282593D01*
X89881Y283059D01*
X89681Y283442D01*
X93923Y278111D01*
X96406Y277197D01*
X96185Y277392D01*
X95992Y277496D01*
X95854Y277534D01*
X98536Y280217D01*
X98575Y280078D01*
X98678Y279885D01*
X98846Y279638D01*
X99078Y279337D01*
X99736Y278573D01*
X101828Y276398D01*
X100953Y275523D01*
X102320Y275021D01*
X102311Y274993D01*
X102303Y274910D01*
X102290Y274577D01*
X102274Y272250D01*
X100750D01*
X101828Y271172D01*
X100678Y270023D01*
X99600Y271100D01*
Y269999D01*
X99996Y269341D01*
X97084Y267261D01*
X97046Y267619D01*
X96113Y266518D01*
X96319Y266496D01*
X94239Y263584D01*
X93929Y263851D01*
X93814Y263686D01*
X94078Y263422D01*
X93628Y262972D01*
X93458Y263143D01*
X93036Y262443D01*
X92601Y261574D01*
X92290Y260762D01*
X92102Y260006D01*
X92039Y259308D01*
X92046Y262369D01*
X91920Y262300D01*
X91759Y262201D01*
X91402Y261949D01*
X90998Y261624D01*
Y264707D01*
X88950Y265574D01*
X90179Y265576D01*
X84828Y269851D01*
X82757Y267780D01*
X82696Y268113D01*
X82610Y268443D01*
X82499Y268770D01*
X82363Y269093D01*
X82201Y269413D01*
X82014Y269730D01*
X81801Y270043D01*
X81563Y270352D01*
X81300Y270658D01*
X81012Y270961D01*
X82109Y272059D01*
X79730Y272069D01*
X79807Y272102D01*
X79944Y272199D01*
X80141Y272360D01*
X81091Y273233D01*
X83197Y275302D01*
X86280Y274275D01*
X85190Y275881D01*
X86289Y277010D01*
X86771Y277584D01*
X86448Y278553D01*
X87062Y279189D01*
X88097Y280396D01*
X88517Y280967D01*
X88872Y281516D01*
X89163Y282044D01*
X89390Y282551D01*
X89551Y283036D01*
X89648Y283499D01*
X89681Y283941D01*
Y281589D01*
D02*
G37*
G36*
X72308Y273467D02*
X72422Y273578D01*
X72618Y272992D01*
X72989Y272424D01*
X72813Y272411D01*
X73502Y270347D01*
X72884Y269708D01*
X72423Y269172D01*
X72425Y266270D01*
X72010Y265833D01*
X71638Y265398D01*
X71310Y264964D01*
X71026Y264531D01*
X70785Y264099D01*
X70589Y263669D01*
X70436Y263239D01*
X70326Y262811D01*
X70261Y262385D01*
X70239Y261959D01*
Y268356D01*
X70179Y268218D01*
X70077Y267840D01*
X70053Y267498D01*
X70107Y267190D01*
X70239Y266918D01*
X67591Y270861D01*
X65364Y272039D01*
X62312D01*
X62633Y272061D01*
X62965Y272127D01*
X63310Y272236D01*
X63668Y272389D01*
X64037Y272586D01*
X64419Y272826D01*
X64813Y273110D01*
X65220Y273438D01*
X66069Y274225D01*
X68120Y273285D01*
X69121Y274225D01*
X70456Y273614D01*
X71000Y274122D01*
Y275472D01*
X72308Y273467D01*
D02*
G37*
G36*
X262031Y269345D02*
X262005Y269587D01*
X261929Y269803D01*
X261802Y269993D01*
X261624Y270158D01*
X261395Y270298D01*
X261116Y270412D01*
X260786Y270501D01*
X260405Y270565D01*
X259997Y270601D01*
X259584Y270565D01*
X259199Y270501D01*
X258864Y270412D01*
X258582Y270298D01*
X258350Y270158D01*
X258170Y269993D01*
X258042Y269803D01*
X257965Y269587D01*
X257939Y269345D01*
Y274425D01*
X257965Y274184D01*
X258042Y273968D01*
X258170Y273778D01*
X258350Y273613D01*
X258582Y273473D01*
X258864Y273359D01*
X259199Y273270D01*
X259584Y273206D01*
X259997Y273170D01*
X260405Y273206D01*
X260786Y273270D01*
X261116Y273359D01*
X261395Y273473D01*
X261624Y273613D01*
X261802Y273778D01*
X261929Y273968D01*
X262005Y274184D01*
X262031Y274425D01*
Y269345D01*
D02*
G37*
G36*
X248551Y277013D02*
X249485Y276222D01*
X249898Y275935D01*
X250275Y275720D01*
X250617Y275576D01*
X250922Y275504D01*
X251192D01*
X251425Y275576D01*
X251623Y275720D01*
X248030Y272127D01*
X248174Y272325D01*
X248246Y272558D01*
Y272828D01*
X248174Y273133D01*
X248030Y273475D01*
X247815Y273852D01*
X247528Y274265D01*
X247168Y274714D01*
X246234Y275720D01*
X248030Y277516D01*
X248551Y277013D01*
D02*
G37*
G36*
X388742Y270478D02*
X389277Y270023D01*
X389780Y269653D01*
X390252Y269368D01*
X390692Y269168D01*
X391101Y269052D01*
X391478Y269022D01*
X391823Y269076D01*
X392137Y269215D01*
X392419Y269439D01*
X387061Y264081D01*
X387285Y264363D01*
X387424Y264677D01*
X387478Y265022D01*
X387448Y265399D01*
X387332Y265808D01*
X387132Y266248D01*
X386847Y266719D01*
X386477Y267223D01*
X386022Y267758D01*
X385482Y268324D01*
X388176Y271018D01*
X388742Y270478D01*
D02*
G37*
G36*
X318090Y263763D02*
X318051Y263670D01*
X318017Y263546D01*
X317987Y263391D01*
X317962Y263203D01*
X317926Y262734D01*
X317905Y261792D01*
X314095D01*
X314093Y262138D01*
X314013Y263391D01*
X313983Y263546D01*
X313949Y263670D01*
X313910Y263763D01*
X313866Y263823D01*
X318134D01*
X318090Y263763D01*
D02*
G37*
G36*
X33231Y272294D02*
X35362Y270441D01*
X36293Y269753D01*
X37134Y269224D01*
X37886Y268855D01*
X38549Y268645D01*
X39121Y268594D01*
X39604Y268702D01*
X39997Y268969D01*
X32030Y261031D01*
X31985Y261731D01*
X31851Y262452D01*
X31626Y263193D01*
X31312Y263956D01*
X30908Y264740D01*
X30414Y265544D01*
X29830Y266369D01*
X29157Y267215D01*
X27540Y268969D01*
X32030Y273460D01*
X33231Y272294D01*
D02*
G37*
G36*
X88188Y265968D02*
X88027Y265648D01*
X87886Y265270D01*
X87763Y264834D01*
X87660Y264340D01*
X87575Y263788D01*
X87484Y262765D01*
X89349Y260900D01*
X89038Y260854D01*
X88465Y260727D01*
X88204Y260647D01*
X87958Y260555D01*
X87729Y260451D01*
X87517Y260336D01*
X87320Y260210D01*
X87141Y260072D01*
X86978Y259922D01*
X85900Y261000D01*
X84376D01*
X84366Y261784D01*
X84225Y263788D01*
X84140Y264340D01*
X84036Y264834D01*
X83914Y265270D01*
X83772Y265648D01*
X83612Y265968D01*
X83433Y266230D01*
X88367D01*
X88188Y265968D01*
D02*
G37*
G36*
X266057Y258229D02*
X266088Y257990D01*
X266142Y257752D01*
X266218Y257517D01*
X266318Y257284D01*
X266439Y257052D01*
X266583Y256823D01*
X266750Y256595D01*
X266939Y256369D01*
X267150Y256146D01*
X265354Y254350D01*
X265131Y254561D01*
X264905Y254750D01*
X264677Y254917D01*
X264447Y255061D01*
X264216Y255182D01*
X263983Y255282D01*
X263748Y255358D01*
X263510Y255412D01*
X263271Y255443D01*
X263030Y255452D01*
X266048Y258470D01*
X266057Y258229D01*
D02*
G37*
G36*
X289573Y252616D02*
X289397Y252780D01*
X289205Y252927D01*
X289000Y253057D01*
X288779Y253169D01*
X288544Y253264D01*
X288295Y253342D01*
X288030Y253402D01*
X287752Y253445D01*
X287458Y253471D01*
X287150Y253480D01*
Y256020D01*
X287458Y256029D01*
X287752Y256055D01*
X288030Y256098D01*
X288295Y256158D01*
X288544Y256236D01*
X288779Y256331D01*
X289000Y256443D01*
X289205Y256573D01*
X289397Y256719D01*
X289573Y256884D01*
Y252616D01*
D02*
G37*
G36*
X282999Y257008D02*
X283182Y256801D01*
X283399Y256618D01*
X283650Y256459D01*
X283937Y256325D01*
X284258Y256215D01*
X284613Y256130D01*
X285004Y256069D01*
X285429Y256032D01*
X285888Y256020D01*
X286093Y253480D01*
X285634Y253467D01*
X285214Y253428D01*
X284833Y253363D01*
X284491Y253271D01*
X284187Y253154D01*
X283923Y253011D01*
X283697Y252841D01*
X283510Y252645D01*
X283361Y252424D01*
X283252Y252176D01*
X282852Y257240D01*
X282999Y257008D01*
D02*
G37*
G36*
X271430Y251710D02*
X271301Y251951D01*
X271135Y252167D01*
X270933Y252358D01*
X270693Y252523D01*
X270417Y252663D01*
X270105Y252777D01*
X269756Y252866D01*
X269370Y252929D01*
X268948Y252967D01*
X268488Y252980D01*
Y255520D01*
X268948Y255533D01*
X269370Y255571D01*
X269756Y255634D01*
X270105Y255723D01*
X270417Y255837D01*
X270693Y255977D01*
X270933Y256142D01*
X271135Y256333D01*
X271301Y256549D01*
X271430Y256790D01*
Y251710D01*
D02*
G37*
G36*
X312161Y253639D02*
X312295Y251718D01*
X312356Y251369D01*
X312429Y251071D01*
X312513Y250826D01*
X312608Y250633D01*
X312714Y250492D01*
X307599Y251007D01*
X307741Y251130D01*
X307868Y251299D01*
X307980Y251512D01*
X308076Y251769D01*
X308158Y252071D01*
X308226Y252418D01*
X308278Y252809D01*
X308337Y253725D01*
X308345Y254250D01*
X312155D01*
X312161Y253639D01*
D02*
G37*
G36*
X294665Y253785D02*
X294651Y253557D01*
X294665Y253329D01*
X294708Y253102D01*
X294778Y252874D01*
X294878Y252646D01*
X294976Y252472D01*
X295277Y252279D01*
X295596Y252106D01*
X295916Y251965D01*
X296239Y251853D01*
X296564Y251772D01*
X296891Y251720D01*
X297221Y251699D01*
X293240Y248544D01*
X293289Y248860D01*
X293300Y249175D01*
X293272Y249491D01*
X293207Y249806D01*
X293103Y250121D01*
X292961Y250436D01*
X292781Y250750D01*
X292585Y251033D01*
X292400Y251168D01*
X291957Y251440D01*
X291736Y251550D01*
X291515Y251643D01*
X291294Y251719D01*
X291073Y251778D01*
X294708Y254013D01*
X294665Y253785D01*
D02*
G37*
G36*
X154150Y249354D02*
X153939Y249130D01*
X153750Y248905D01*
X153583Y248677D01*
X153439Y248447D01*
X153317Y248216D01*
X153218Y247983D01*
X153142Y247747D01*
X153088Y247510D01*
X153057Y247271D01*
X153048Y247031D01*
X150030Y250048D01*
X150271Y250057D01*
X150510Y250088D01*
X150747Y250142D01*
X150983Y250218D01*
X151216Y250317D01*
X151447Y250439D01*
X151677Y250583D01*
X151905Y250750D01*
X152130Y250939D01*
X152354Y251150D01*
X154150Y249354D01*
D02*
G37*
G36*
X41719Y249848D02*
X41629Y249524D01*
X41668Y249119D01*
X41836Y248634D01*
X42134Y248068D01*
X42561Y247421D01*
X43117Y246695D01*
X44617Y244999D01*
X45561Y244030D01*
X40969Y241438D01*
X40073Y242310D01*
X37773Y244245D01*
X37134Y244664D01*
X36560Y244970D01*
X36051Y245162D01*
X35605Y245242D01*
X35225Y245208D01*
X34908Y245061D01*
X41939Y250092D01*
X41719Y249848D01*
D02*
G37*
G36*
X313895Y247672D02*
X314002Y247224D01*
X314150Y246776D01*
X314338Y246328D01*
X314565Y245880D01*
X314833Y245432D01*
X315140Y244984D01*
X315488Y244536D01*
X315876Y244088D01*
X316304Y243640D01*
X313447Y241109D01*
X312984Y241556D01*
X312085Y242328D01*
X311648Y242653D01*
X311220Y242938D01*
X310802Y243181D01*
X310392Y243385D01*
X309990Y243547D01*
X309598Y243669D01*
X309214Y243751D01*
X313828Y248120D01*
X313895Y247672D01*
D02*
G37*
G36*
X265894Y242566D02*
X266217Y242300D01*
X266529Y242081D01*
X266830Y241911D01*
X267120Y241789D01*
X267400Y241715D01*
X267669Y241690D01*
X267927Y241712D01*
X268175Y241783D01*
X268412Y241902D01*
X265519Y237726D01*
X265553Y237997D01*
X265547Y238276D01*
X265502Y238561D01*
X265418Y238853D01*
X265296Y239152D01*
X265134Y239458D01*
X264934Y239771D01*
X264694Y240091D01*
X264415Y240418D01*
X264098Y240751D01*
X265560Y242881D01*
X265894Y242566D01*
D02*
G37*
G36*
X287367Y236981D02*
X287558Y236834D01*
X287764Y236705D01*
X287985Y236592D01*
X288220Y236497D01*
X288469Y236420D01*
X288733Y236359D01*
X289012Y236316D01*
X289305Y236290D01*
X289613Y236282D01*
Y233741D01*
X289305Y233733D01*
X289012Y233707D01*
X288733Y233664D01*
X288469Y233603D01*
X288220Y233526D01*
X287985Y233431D01*
X287764Y233318D01*
X287558Y233189D01*
X287367Y233042D01*
X287191Y232878D01*
Y237145D01*
X287367Y236981D01*
D02*
G37*
G36*
X282837Y232878D02*
X282661Y233042D01*
X282469Y233189D01*
X282264Y233318D01*
X282043Y233431D01*
X281808Y233526D01*
X281559Y233603D01*
X281294Y233664D01*
X281016Y233707D01*
X280722Y233733D01*
X280414Y233741D01*
Y236282D01*
X280722Y236290D01*
X281016Y236316D01*
X281294Y236359D01*
X281559Y236420D01*
X281808Y236497D01*
X282043Y236592D01*
X282264Y236705D01*
X282469Y236834D01*
X282661Y236981D01*
X282837Y237145D01*
Y232878D01*
D02*
G37*
G36*
X294052Y232469D02*
X293833Y232711D01*
X293590Y232927D01*
X293324Y233118D01*
X293035Y233283D01*
X292723Y233423D01*
X292387Y233538D01*
X292028Y233627D01*
X291646Y233691D01*
X291241Y233729D01*
X290813Y233741D01*
X290821Y236282D01*
X291249Y236294D01*
X291654Y236332D01*
X292036Y236395D01*
X292395Y236484D01*
X292732Y236598D01*
X293045Y236738D01*
X293335Y236903D01*
X293602Y237093D01*
X293846Y237308D01*
X294067Y237549D01*
X294052Y232469D01*
D02*
G37*
G36*
X80791Y239836D02*
X82618Y238295D01*
X83434Y237728D01*
X84185Y237298D01*
X84871Y237003D01*
X85492Y236845D01*
X86048Y236824D01*
X86539Y236938D01*
X86965Y237189D01*
X79061Y230785D01*
X79379Y231144D01*
X79546Y231583D01*
X79561Y232101D01*
X79426Y232700D01*
X79139Y233378D01*
X78701Y234137D01*
X78112Y234975D01*
X77372Y235893D01*
X75438Y237969D01*
X79780Y240812D01*
X80791Y239836D01*
D02*
G37*
G36*
X313874Y235153D02*
X313953Y234830D01*
X314059Y234508D01*
X314191Y234189D01*
X314351Y233873D01*
X314536Y233557D01*
X314749Y233245D01*
X314988Y232934D01*
X315254Y232625D01*
X315547Y232318D01*
X314145Y230127D01*
X313834Y230418D01*
X313525Y230668D01*
X313216Y230877D01*
X312909Y231046D01*
X312602Y231173D01*
X312297Y231259D01*
X311993Y231305D01*
X311690Y231310D01*
X311388Y231273D01*
X311087Y231196D01*
X313821Y235478D01*
X313874Y235153D01*
D02*
G37*
G36*
X294060Y219760D02*
X293839Y220001D01*
X293596Y220217D01*
X293330Y220408D01*
X293040Y220573D01*
X292727Y220712D01*
X292391Y220827D01*
X292032Y220916D01*
X291704Y220970D01*
X291617Y220958D01*
X291350Y220902D01*
X291097Y220829D01*
X290857Y220741D01*
X290630Y220637D01*
X290417Y220517D01*
X290218Y220380D01*
X290032Y220228D01*
X290312Y224486D01*
X290478Y224312D01*
X290659Y224156D01*
X290856Y224019D01*
X291069Y223900D01*
X291298Y223799D01*
X291543Y223716D01*
X291804Y223652D01*
X291822Y223649D01*
X292032Y223684D01*
X292391Y223773D01*
X292727Y223887D01*
X293040Y224027D01*
X293330Y224192D01*
X293596Y224383D01*
X293839Y224599D01*
X294060Y224840D01*
Y219760D01*
D02*
G37*
G36*
X86041Y226780D02*
X86969D01*
X86793Y226730D01*
X86635Y226577D01*
X86495Y226323D01*
X86375Y225968D01*
X86272Y225511D01*
X86188Y224952D01*
X86152Y224480D01*
X86319Y221772D01*
X86384Y221623D01*
X80616D01*
X80681Y221772D01*
X80739Y222012D01*
X80791Y222342D01*
X80874Y223276D01*
X80876Y223344D01*
X80786Y224291D01*
X80651Y224952D01*
X80477Y225511D01*
X80265Y225968D01*
X80014Y226323D01*
X79725Y226577D01*
X79397Y226730D01*
X79030Y226780D01*
X80957D01*
X80960Y227202D01*
X86040D01*
X86041Y226780D01*
D02*
G37*
G36*
X279093Y221047D02*
X278778Y220714D01*
X278506Y220388D01*
X278278Y220070D01*
X278094Y219760D01*
X277954Y219459D01*
X277857Y219165D01*
X277805Y218879D01*
X277797Y218601D01*
X277832Y218331D01*
X277911Y218069D01*
X274319Y221661D01*
X274581Y221582D01*
X274851Y221547D01*
X275129Y221555D01*
X275415Y221607D01*
X275709Y221704D01*
X276010Y221844D01*
X276320Y222028D01*
X276638Y222256D01*
X276964Y222528D01*
X277297Y222843D01*
X279093Y221047D01*
D02*
G37*
G36*
X285823Y220366D02*
X285647Y220530D01*
X285455Y220677D01*
X285250Y220807D01*
X285029Y220919D01*
X284794Y221014D01*
X284545Y221092D01*
X284281Y221152D01*
X284002Y221196D01*
X283708Y221221D01*
X283400Y221230D01*
Y223770D01*
X283708Y223779D01*
X284002Y223805D01*
X284281Y223848D01*
X284545Y223908D01*
X284794Y223986D01*
X285029Y224081D01*
X285250Y224193D01*
X285455Y224323D01*
X285647Y224470D01*
X285823Y224634D01*
Y220366D01*
D02*
G37*
G36*
X310173Y218313D02*
X309711Y218260D01*
X309262Y218178D01*
X308827Y218065D01*
X308405Y217924D01*
X307997Y217752D01*
X307602Y217552D01*
X307220Y217321D01*
X306852Y217061D01*
X306498Y216771D01*
X306157Y216452D01*
X304002Y218607D01*
X304321Y218948D01*
X304611Y219302D01*
X304871Y219670D01*
X305102Y220052D01*
X305303Y220447D01*
X305474Y220855D01*
X305616Y221277D01*
X305728Y221712D01*
X305810Y222161D01*
X305863Y222624D01*
X310173Y218313D01*
D02*
G37*
G36*
X95962Y224673D02*
X97698Y223162D01*
X98455Y222604D01*
X99136Y222176D01*
X99743Y221879D01*
X100275Y221714D01*
X100732Y221679D01*
X101115Y221775D01*
X101423Y222003D01*
X95266Y215338D01*
X95474Y215666D01*
X95554Y216064D01*
X95509Y216533D01*
X95336Y217072D01*
X95037Y217681D01*
X94612Y218360D01*
X94060Y219110D01*
X93381Y219929D01*
X91644Y221779D01*
X94982Y225625D01*
X95962Y224673D01*
D02*
G37*
G36*
X266180Y213210D02*
X266051Y213451D01*
X265885Y213667D01*
X265683Y213858D01*
X265443Y214023D01*
X265168Y214163D01*
X264855Y214277D01*
X264506Y214366D01*
X264120Y214429D01*
X263697Y214467D01*
X263238Y214480D01*
Y217020D01*
X263697Y217033D01*
X264120Y217071D01*
X264506Y217134D01*
X264855Y217223D01*
X265168Y217337D01*
X265443Y217477D01*
X265683Y217642D01*
X265885Y217833D01*
X266051Y218049D01*
X266180Y218290D01*
Y213210D01*
D02*
G37*
G36*
X61627Y211376D02*
X61575Y211857D01*
X61419Y212288D01*
X61159Y212668D01*
X60794Y212998D01*
X60326Y213277D01*
X59753Y213505D01*
X59076Y213682D01*
X58296Y213809D01*
X57411Y213885D01*
X56422Y213910D01*
Y218990D01*
X57411Y219015D01*
X58296Y219091D01*
X59076Y219218D01*
X59753Y219396D01*
X60326Y219624D01*
X60794Y219902D01*
X61159Y220232D01*
X61419Y220612D01*
X61575Y221043D01*
X61627Y221524D01*
Y211376D01*
D02*
G37*
G36*
X305795Y211151D02*
X305844Y210561D01*
X305886Y210299D01*
X305941Y210058D01*
X306008Y209840D01*
X306088Y209644D01*
X306179Y209470D01*
X306283Y209317D01*
X306398Y209187D01*
X302131D01*
X302247Y209317D01*
X302351Y209470D01*
X302442Y209644D01*
X302521Y209840D01*
X302588Y210058D01*
X302643Y210299D01*
X302686Y210561D01*
X302717Y210845D01*
X302741Y211479D01*
X305789D01*
X305795Y211151D01*
D02*
G37*
G36*
X285921Y211351D02*
X285731Y211122D01*
X285564Y210886D01*
X285418Y210643D01*
X285295Y210394D01*
X285195Y210138D01*
X285117Y209876D01*
X285061Y209606D01*
X285027Y209330D01*
X285016Y209048D01*
X282984D01*
X282973Y209330D01*
X282939Y209606D01*
X282883Y209876D01*
X282805Y210138D01*
X282705Y210394D01*
X282582Y210643D01*
X282436Y210886D01*
X282269Y211122D01*
X282079Y211351D01*
X281866Y211573D01*
X286134D01*
X285921Y211351D01*
D02*
G37*
G36*
X116430Y213966D02*
X116764D01*
X116700Y213903D01*
X116642Y213712D01*
X116591Y213395D01*
X116547Y212950D01*
X116514Y212201D01*
X116672Y210255D01*
X116811Y209557D01*
X116981Y208985D01*
X117182Y208541D01*
X117414Y208223D01*
X117676Y208033D01*
X117970Y207969D01*
X116428D01*
X116425Y207616D01*
X110075D01*
X110072Y207969D01*
X110030D01*
X110039Y208033D01*
X110047Y208223D01*
X110050Y209039D01*
X109762Y212950D01*
X109649Y213395D01*
X109518Y213712D01*
X109370Y213903D01*
X109205Y213966D01*
X110073D01*
X110075Y214319D01*
X116425D01*
X116430Y213966D01*
D02*
G37*
G36*
X264513Y205438D02*
X264405Y205282D01*
X264310Y205105D01*
X264228Y204906D01*
X264158Y204686D01*
X264101Y204445D01*
X264057Y204183D01*
X264025Y203899D01*
X264000Y203268D01*
X261000D01*
X260994Y203594D01*
X260943Y204183D01*
X260899Y204445D01*
X260842Y204686D01*
X260772Y204906D01*
X260690Y205105D01*
X260595Y205282D01*
X260487Y205438D01*
X260366Y205573D01*
X264634D01*
X264513Y205438D01*
D02*
G37*
G36*
X266714Y200428D02*
X267096Y200110D01*
X267472Y199840D01*
X267840Y199620D01*
X268202Y199449D01*
X268558Y199327D01*
X268907Y199254D01*
X269249Y199230D01*
X269585Y199255D01*
X269914Y199329D01*
X265671Y195086D01*
X265745Y195415D01*
X265770Y195751D01*
X265746Y196093D01*
X265673Y196442D01*
X265551Y196798D01*
X265380Y197160D01*
X265159Y197528D01*
X264890Y197903D01*
X264572Y198285D01*
X264205Y198674D01*
X266326Y200795D01*
X266714Y200428D01*
D02*
G37*
G36*
X122947Y193139D02*
X122886Y193149D01*
X122814Y193140D01*
X122729Y193110D01*
X122631Y193061D01*
X122522Y192992D01*
X122400Y192904D01*
X122119Y192667D01*
X121789Y192351D01*
X120352Y193788D01*
X120519Y193960D01*
X120904Y194400D01*
X120992Y194522D01*
X121061Y194631D01*
X121110Y194729D01*
X121140Y194813D01*
X121150Y194886D01*
X121139Y194946D01*
X122947Y193139D01*
D02*
G37*
G36*
X285027Y191420D02*
X285061Y191144D01*
X285117Y190874D01*
X285195Y190612D01*
X285295Y190356D01*
X285418Y190107D01*
X285564Y189864D01*
X285731Y189628D01*
X285921Y189399D01*
X286134Y189177D01*
X281866D01*
X282079Y189399D01*
X282269Y189628D01*
X282436Y189864D01*
X282582Y190107D01*
X282705Y190356D01*
X282805Y190612D01*
X282883Y190874D01*
X282939Y191144D01*
X282973Y191420D01*
X282984Y191702D01*
X285016D01*
X285027Y191420D01*
D02*
G37*
G36*
X153123Y189030D02*
X152869Y189118D01*
X152591Y189146D01*
X152291Y189115D01*
X151967Y189024D01*
X151619Y188874D01*
X151248Y188665D01*
X150854Y188396D01*
X150436Y188068D01*
X149995Y187681D01*
X149530Y187234D01*
X146484Y187781D01*
X147044Y188358D01*
X147909Y189367D01*
X148215Y189799D01*
X148437Y190182D01*
X148574Y190517D01*
X148627Y190804D01*
X148596Y191042D01*
X148481Y191231D01*
X148281Y191373D01*
X153123Y189030D01*
D02*
G37*
G36*
X145278Y183109D02*
X145338Y182449D01*
X145392Y182181D01*
X145460Y181954D01*
X145544Y181769D01*
X145643Y181625D01*
X145757Y181521D01*
X145886Y181460D01*
X146031Y181439D01*
X141969D01*
X142114Y181460D01*
X142243Y181521D01*
X142357Y181625D01*
X142456Y181769D01*
X142540Y181954D01*
X142608Y182181D01*
X142662Y182449D01*
X142700Y182758D01*
X142722Y183109D01*
X142730Y183500D01*
X145270D01*
X145278Y183109D01*
D02*
G37*
G36*
X285921Y184601D02*
X285731Y184372D01*
X285564Y184136D01*
X285418Y183893D01*
X285295Y183644D01*
X285195Y183388D01*
X285117Y183126D01*
X285061Y182856D01*
X285031Y182612D01*
X285054Y182336D01*
X285100Y182020D01*
X285166Y181733D01*
X285250Y181476D01*
X285354Y181247D01*
X285476Y181047D01*
X285616Y180876D01*
X285776Y180734D01*
X285954Y180621D01*
X281941Y181261D01*
X282139Y181314D01*
X282316Y181402D01*
X282473Y181526D01*
X282608Y181685D01*
X282723Y181880D01*
X282817Y182109D01*
X282890Y182374D01*
X282942Y182675D01*
X282950Y182764D01*
X282939Y182856D01*
X282883Y183126D01*
X282805Y183388D01*
X282705Y183644D01*
X282582Y183893D01*
X282436Y184136D01*
X282269Y184372D01*
X282079Y184601D01*
X281866Y184823D01*
X286134D01*
X285921Y184601D01*
D02*
G37*
G36*
X131070Y181009D02*
X131130Y180854D01*
X131222Y180717D01*
X131348Y180598D01*
X131506Y180498D01*
X131697Y180416D01*
X131921Y180352D01*
X132177Y180306D01*
X132466Y180279D01*
X132788Y180270D01*
X132129Y177730D01*
X128595Y178010D01*
X131042Y181182D01*
X131070Y181009D01*
D02*
G37*
G36*
X141031Y176530D02*
X141005Y176758D01*
X140929Y176962D01*
X140802Y177142D01*
X140624Y177298D01*
X140395Y177430D01*
X140116Y177538D01*
X139786Y177622D01*
X139405Y177682D01*
X138973Y177718D01*
X138490Y177730D01*
Y180270D01*
X138973Y180282D01*
X139405Y180318D01*
X139786Y180378D01*
X140116Y180462D01*
X140395Y180570D01*
X140624Y180702D01*
X140802Y180858D01*
X140929Y181038D01*
X141005Y181242D01*
X141031Y181469D01*
Y176530D01*
D02*
G37*
G36*
X160452Y172253D02*
X160414Y172297D01*
X160336Y172336D01*
X160220Y172371D01*
X160065Y172401D01*
X159872Y172426D01*
X159369Y172463D01*
X158324Y172484D01*
Y174516D01*
X158711Y174518D01*
X160065Y174599D01*
X160220Y174629D01*
X160336Y174664D01*
X160414Y174704D01*
X160452Y174748D01*
Y172253D01*
D02*
G37*
G36*
X119915Y172035D02*
X119901Y171807D01*
X119915Y171579D01*
X119958Y171352D01*
X120028Y171124D01*
X120128Y170896D01*
X120256Y170669D01*
X120412Y170441D01*
X120596Y170214D01*
X120809Y169987D01*
X118535Y168668D01*
X118314Y168881D01*
X117871Y169256D01*
X117650Y169418D01*
X117207Y169690D01*
X116986Y169800D01*
X116765Y169893D01*
X116544Y169969D01*
X116323Y170028D01*
X119958Y172263D01*
X119915Y172035D01*
D02*
G37*
G36*
X112353Y165512D02*
X112535Y165357D01*
X112732Y165219D01*
X112945Y165100D01*
X113174Y164999D01*
X113419Y164917D01*
X113680Y164853D01*
X113957Y164807D01*
X114250Y164779D01*
X114559Y164770D01*
X114374Y162230D01*
X114067Y162222D01*
X113773Y162198D01*
X113493Y162158D01*
X113226Y162102D01*
X112972Y162030D01*
X112732Y161942D01*
X112506Y161837D01*
X112293Y161717D01*
X112093Y161581D01*
X111907Y161428D01*
X112188Y165686D01*
X112353Y165512D01*
D02*
G37*
G36*
X155150Y157354D02*
X154939Y157130D01*
X154750Y156905D01*
X154583Y156677D01*
X154439Y156447D01*
X154317Y156216D01*
X154219Y155983D01*
X154142Y155747D01*
X154088Y155510D01*
X154057Y155271D01*
X154048Y155030D01*
X151031Y158048D01*
X151271Y158057D01*
X151510Y158088D01*
X151748Y158142D01*
X151983Y158218D01*
X152216Y158317D01*
X152448Y158439D01*
X152677Y158583D01*
X152905Y158750D01*
X153131Y158939D01*
X153354Y159150D01*
X155150Y157354D01*
D02*
G37*
%LPC*%
G36*
X63730Y335540D02*
X57460D01*
Y330270D01*
X63730D01*
Y335540D01*
D02*
G37*
G36*
X267480Y331696D02*
X266043Y331507D01*
X264452Y330848D01*
X263086Y329800D01*
X262037Y328434D01*
X261378Y326843D01*
X261321Y326405D01*
X267480D01*
Y331696D01*
D02*
G37*
G36*
X255040Y335540D02*
X247270D01*
Y325270D01*
X255040D01*
Y335540D01*
D02*
G37*
G36*
X244730D02*
X236960D01*
Y325270D01*
X244730D01*
Y335540D01*
D02*
G37*
G36*
X132040D02*
X124270D01*
Y325270D01*
X132040D01*
Y335540D01*
D02*
G37*
G36*
X121730D02*
X113960D01*
Y325270D01*
X121730D01*
Y335540D01*
D02*
G37*
G36*
X63730Y327730D02*
X57460D01*
Y322460D01*
X63730D01*
Y327730D01*
D02*
G37*
G36*
X267480Y323865D02*
X261321D01*
X261378Y323428D01*
X262037Y321837D01*
X263086Y320471D01*
X264452Y319423D01*
X266043Y318764D01*
X267480Y318575D01*
Y323865D01*
D02*
G37*
G36*
X72540Y335540D02*
X66270D01*
Y329000D01*
Y322460D01*
X67500D01*
Y318778D01*
X58222D01*
Y307222D01*
X66521D01*
X67168Y305952D01*
X66454Y304883D01*
X66079Y303000D01*
X66454Y301117D01*
X67520Y299520D01*
X67698Y299402D01*
X67729Y299353D01*
X67768Y299277D01*
X67805Y299184D01*
X67840Y299072D01*
X67871Y298939D01*
X67892Y298800D01*
Y298797D01*
X67867Y298303D01*
X67658Y297250D01*
Y293550D01*
X67912Y292271D01*
X68636Y291187D01*
X69721Y290462D01*
X71000Y290208D01*
X72279Y290462D01*
X72496Y290608D01*
X73500Y291117D01*
X74504Y290608D01*
X74721Y290462D01*
X76000Y290208D01*
X77279Y290462D01*
X77666Y290721D01*
X78087Y290637D01*
X79423Y289745D01*
X79730Y289684D01*
Y295400D01*
X81000D01*
Y296670D01*
X81811D01*
X81774Y297254D01*
X81751Y297417D01*
X81691Y297692D01*
X81653Y297802D01*
X81610Y297896D01*
X81562Y297971D01*
X83341D01*
X81811Y299501D01*
X81562D01*
X81610Y299577D01*
X81653Y299670D01*
X81691Y299781D01*
X81724Y299910D01*
X81751Y300056D01*
X81791Y300403D01*
X81804Y300603D01*
X81814Y301056D01*
X82576D01*
X81694Y301231D01*
X81874Y302133D01*
Y307040D01*
X81887Y307190D01*
X81892Y307222D01*
X85778D01*
Y312434D01*
X86722Y313222D01*
X95278D01*
Y322778D01*
X95278D01*
X95278Y323222D01*
X96548Y323691D01*
X101619Y318619D01*
X101921Y318418D01*
X102521Y317521D01*
X104117Y316454D01*
X106000Y316080D01*
X107883Y316454D01*
X109479Y317521D01*
X110546Y319117D01*
X110920Y321000D01*
X110546Y322883D01*
X109479Y324479D01*
X107883Y325546D01*
X106000Y325920D01*
X104199Y325562D01*
X99381Y330381D01*
X98288Y331110D01*
X97000Y331367D01*
X95830D01*
X95638Y331383D01*
X95330Y331432D01*
X95278Y331445D01*
Y332778D01*
X93491D01*
X93469Y332782D01*
X93448Y332778D01*
X92118D01*
X91685Y333068D01*
X90000Y333403D01*
X87486D01*
X87334Y333408D01*
X86679Y333469D01*
X86138Y333551D01*
X85778Y333634D01*
Y334778D01*
X83992D01*
X83970Y334782D01*
X83948Y334778D01*
X72540D01*
Y335540D01*
D02*
G37*
G36*
X132040Y322730D02*
X124270D01*
Y312460D01*
X132040D01*
Y322730D01*
D02*
G37*
G36*
X121730D02*
X113960D01*
Y312460D01*
X121730D01*
Y322730D01*
D02*
G37*
G36*
X104890Y310620D02*
X97270D01*
Y304270D01*
X104890D01*
Y310620D01*
D02*
G37*
G36*
X94730D02*
X87110D01*
Y304358D01*
X87667Y304412D01*
X88201Y304521D01*
X88653Y304663D01*
X89023Y304835D01*
X89311Y305040D01*
X89516Y305275D01*
X89640Y305542D01*
X89681Y305840D01*
Y304270D01*
X94730D01*
Y310620D01*
D02*
G37*
G36*
X63790Y304540D02*
X57753D01*
X57769Y304447D01*
X57946Y303783D01*
X58175Y303221D01*
X58454Y302761D01*
X58785Y302402D01*
X59166Y302146D01*
X59597Y301992D01*
X60080Y301939D01*
X57270Y301948D01*
Y299270D01*
X61189D01*
Y301530D01*
X61225Y301342D01*
X61332Y301174D01*
X61509Y301025D01*
X61759Y300897D01*
X62079Y300788D01*
X62471Y300699D01*
X62934Y300629D01*
X63468Y300580D01*
X63790Y300570D01*
Y304540D01*
D02*
G37*
G36*
X94730Y301730D02*
X89681D01*
Y297951D01*
X89640Y298186D01*
X89516Y298397D01*
X89311Y298583D01*
X89023Y298744D01*
X88653Y298880D01*
X88201Y298992D01*
X87667Y299079D01*
X87110Y299135D01*
Y295380D01*
X93248D01*
X93231Y295477D01*
X93054Y296141D01*
X92825Y296703D01*
X92546Y297164D01*
X92215Y297521D01*
X91834Y297777D01*
X91403Y297930D01*
X90920Y297981D01*
X94730D01*
Y301730D01*
D02*
G37*
G36*
X84797Y298839D02*
X84687Y298782D01*
X84442Y298633D01*
X84198Y298465D01*
X83956Y298277D01*
X83714Y298067D01*
X83554Y297914D01*
X83542Y297896D01*
X83499Y297802D01*
X83462Y297692D01*
X83429Y297563D01*
X83401Y297417D01*
X83361Y297073D01*
X83348Y296874D01*
X83344Y296670D01*
X85119D01*
Y297250D01*
X84805Y298827D01*
X84797Y298839D01*
D02*
G37*
G36*
X104890Y301730D02*
X97270D01*
Y297981D01*
X101080D01*
X100597Y297930D01*
X100166Y297777D01*
X99785Y297521D01*
X99454Y297164D01*
X99175Y296703D01*
X98947Y296141D01*
X98769Y295477D01*
X98753Y295380D01*
X104890D01*
Y301730D01*
D02*
G37*
G36*
X61189Y296730D02*
X57270D01*
Y291460D01*
X63790D01*
Y295430D01*
X62934Y295371D01*
X62471Y295301D01*
X62079Y295212D01*
X61759Y295103D01*
X61509Y294975D01*
X61332Y294826D01*
X61225Y294658D01*
X61189Y294470D01*
Y296730D01*
D02*
G37*
G36*
X85119Y294130D02*
X82270D01*
Y289684D01*
X82576Y289745D01*
X83912Y290637D01*
X84805Y291974D01*
X85119Y293550D01*
Y294130D01*
D02*
G37*
G36*
X274429Y289115D02*
X268270D01*
Y283825D01*
X269707Y284014D01*
X271298Y284673D01*
X272664Y285721D01*
X273713Y287087D01*
X274372Y288678D01*
X274429Y289115D01*
D02*
G37*
G36*
X251730Y262290D02*
X245460D01*
Y257020D01*
X251730D01*
Y262290D01*
D02*
G37*
G36*
X255040Y234730D02*
X247270D01*
Y224460D01*
X255040D01*
Y234730D01*
D02*
G37*
G36*
X244730D02*
X236960D01*
Y224460D01*
X244730D01*
Y234730D01*
D02*
G37*
%LPD*%
G36*
X84021Y332698D02*
X84173Y332455D01*
X84427Y332241D01*
X84783Y332055D01*
X85240Y331898D01*
X85799Y331769D01*
X86459Y331669D01*
X87221Y331597D01*
X89050Y331540D01*
Y326460D01*
X88531Y326452D01*
Y325031D01*
X88480Y325302D01*
X88327Y325545D01*
X88073Y325760D01*
X87718Y325946D01*
X87261Y326103D01*
X86702Y326231D01*
X86250Y326300D01*
X85799Y326231D01*
X85240Y326103D01*
X84783Y325946D01*
X84427Y325760D01*
X84173Y325545D01*
X84021Y325302D01*
X83970Y325031D01*
Y326444D01*
X83450Y326460D01*
Y331540D01*
X83970Y331482D01*
Y332970D01*
X84021Y332698D01*
D02*
G37*
G36*
X93500Y330695D02*
X93591Y330449D01*
X93744Y330232D01*
X93957Y330044D01*
X94232Y329885D01*
X94567Y329755D01*
X94963Y329654D01*
X95420Y329582D01*
X95938Y329538D01*
X96047Y329536D01*
X97000Y329524D01*
Y326476D01*
X96369Y326472D01*
X96216Y326469D01*
X95370Y326410D01*
X94963Y326346D01*
X94567Y326245D01*
X94232Y326115D01*
X93957Y325956D01*
X93744Y325768D01*
X93591Y325551D01*
X93500Y325305D01*
X93469Y325031D01*
Y326279D01*
X93233Y326263D01*
X92961Y326198D01*
X92756Y326124D01*
X92618Y326042D01*
Y329958D01*
X92756Y329876D01*
X92961Y329802D01*
X93233Y329737D01*
X93469Y329697D01*
Y330970D01*
X93500Y330695D01*
D02*
G37*
G36*
X102869Y324297D02*
X103098Y324101D01*
X103316Y323937D01*
X103524Y323805D01*
X103722Y323705D01*
X103910Y323637D01*
X104087Y323601D01*
X104255Y323598D01*
X104412Y323626D01*
X104559Y323686D01*
X103246Y319694D01*
X100720Y322125D01*
X102631Y324525D01*
X102869Y324297D01*
D02*
G37*
G36*
X84898Y317102D02*
X84684Y316886D01*
X83952Y316041D01*
X83922Y315976D01*
X83917Y315932D01*
X83939Y315909D01*
X80909Y316939D01*
X80961Y316947D01*
X81047Y316993D01*
X81168Y317079D01*
X81323Y317203D01*
X81992Y317809D01*
X82970Y318766D01*
X84898Y317102D01*
D02*
G37*
G36*
X88561Y315460D02*
X88535Y315701D01*
X88458Y315917D01*
X88330Y316108D01*
X88150Y316273D01*
X87918Y316413D01*
X87636Y316527D01*
X87301Y316616D01*
X86916Y316679D01*
X86479Y316717D01*
X85990Y316730D01*
Y319270D01*
X86479Y319283D01*
X86916Y319321D01*
X87301Y319384D01*
X87636Y319473D01*
X87918Y319587D01*
X88150Y319727D01*
X88330Y319892D01*
X88458Y320083D01*
X88535Y320299D01*
X88561Y320540D01*
Y315460D01*
D02*
G37*
G36*
X74031Y310460D02*
X74005Y310701D01*
X73929Y310917D01*
X73802Y311108D01*
X73624Y311273D01*
X73396Y311413D01*
X73116Y311527D01*
X72786Y311616D01*
X72405Y311679D01*
X72000Y311715D01*
X71595Y311679D01*
X71214Y311616D01*
X70884Y311527D01*
X70605Y311413D01*
X70376Y311273D01*
X70198Y311108D01*
X70071Y310917D01*
X69995Y310701D01*
X69970Y310460D01*
Y315540D01*
X69995Y315299D01*
X70071Y315083D01*
X70198Y314892D01*
X70376Y314727D01*
X70605Y314588D01*
X70884Y314473D01*
X71214Y314384D01*
X71595Y314321D01*
X72000Y314285D01*
X72405Y314321D01*
X72786Y314384D01*
X73116Y314473D01*
X73396Y314588D01*
X73624Y314727D01*
X73802Y314892D01*
X73929Y315083D01*
X74005Y315299D01*
X74031Y315540D01*
Y310460D01*
D02*
G37*
G36*
X81065Y309035D02*
X80849Y308958D01*
X80658Y308830D01*
X80493Y308650D01*
X80354Y308419D01*
X80239Y308136D01*
X80150Y307802D01*
X80087Y307416D01*
X80049Y306979D01*
X80036Y306491D01*
X77496D01*
X77483Y306979D01*
X77445Y307416D01*
X77382Y307802D01*
X77293Y308136D01*
X77179Y308419D01*
X77039Y308650D01*
X76874Y308830D01*
X76683Y308958D01*
X76467Y309035D01*
X76226Y309061D01*
X81306D01*
X81065Y309035D01*
D02*
G37*
G36*
X72969Y300646D02*
X72822Y300455D01*
X72693Y300250D01*
X72581Y300029D01*
X72486Y299794D01*
X72408Y299545D01*
X72348Y299280D01*
X72328Y299154D01*
X72384Y297824D01*
X69616D01*
X69637Y297882D01*
X69657Y297987D01*
X69674Y298139D01*
X69710Y298841D01*
X69695Y299002D01*
X69652Y299280D01*
X69592Y299545D01*
X69514Y299794D01*
X69419Y300029D01*
X69307Y300250D01*
X69177Y300455D01*
X69030Y300646D01*
X68866Y300823D01*
X73133D01*
X72969Y300646D01*
D02*
G37*
%LPC*%
G36*
X32730Y314730D02*
X28460D01*
Y310960D01*
X32730D01*
Y314730D01*
D02*
G37*
G36*
X24540Y313540D02*
X14270D01*
Y303270D01*
X24540D01*
Y313540D01*
D02*
G37*
G36*
X19500Y235101D02*
X16270D01*
Y229270D01*
X26434D01*
X26359Y229838D01*
X25650Y231550D01*
X24521Y233021D01*
X23051Y234149D01*
X21338Y234859D01*
X19500Y235101D01*
D02*
G37*
G36*
X38230Y237540D02*
X29960D01*
Y228270D01*
X38230D01*
Y237540D01*
D02*
G37*
G36*
X371600Y245979D02*
X368525Y245575D01*
X365660Y244388D01*
X363200Y242500D01*
X361312Y240040D01*
X360125Y237174D01*
X359720Y234100D01*
X360125Y231025D01*
X361312Y228160D01*
X363200Y225700D01*
X365660Y223812D01*
X368525Y222625D01*
X371600Y222220D01*
X374675Y222625D01*
X377540Y223812D01*
X380000Y225700D01*
X381888Y228160D01*
X383075Y231025D01*
X383275Y232547D01*
X384556D01*
X384783Y230826D01*
X386046Y227776D01*
X386141Y227653D01*
X386213Y227797D01*
X386532Y228618D01*
X386778Y229478D01*
X386952Y230375D01*
X387052Y231312D01*
X387078Y232286D01*
X387033Y233278D01*
X386904Y234494D01*
X386501Y236777D01*
X386232Y237810D01*
X385917Y238772D01*
X385643Y239449D01*
X384783Y237373D01*
X384556Y235652D01*
X383275D01*
X383075Y237174D01*
X381888Y240040D01*
X380000Y242500D01*
X377540Y244388D01*
X374675Y245575D01*
X371600Y245979D01*
D02*
G37*
G36*
X132040Y234730D02*
X124270D01*
Y224460D01*
X132040D01*
Y234730D01*
D02*
G37*
G36*
X26434Y226730D02*
X16270D01*
Y220899D01*
X19500D01*
X21338Y221141D01*
X23051Y221850D01*
X24521Y222979D01*
X25650Y224450D01*
X26359Y226162D01*
X26434Y226730D01*
D02*
G37*
G36*
X49040Y225730D02*
X40770D01*
Y216460D01*
X49040D01*
Y225730D01*
D02*
G37*
G36*
X38230D02*
X29960D01*
Y216460D01*
X38230D01*
Y225730D01*
D02*
G37*
G36*
X40480Y212540D02*
X32460D01*
Y209270D01*
X40480D01*
Y212540D01*
D02*
G37*
G36*
X27040Y219040D02*
X16270D01*
Y208270D01*
X27040D01*
Y219040D01*
D02*
G37*
G36*
X371600Y220579D02*
X368525Y220175D01*
X365660Y218988D01*
X363200Y217100D01*
X361312Y214640D01*
X360125Y211774D01*
X359720Y208700D01*
X360125Y205625D01*
X361312Y202760D01*
X363200Y200300D01*
X365660Y198412D01*
X368525Y197225D01*
X371600Y196820D01*
X374675Y197225D01*
X377540Y198412D01*
X380000Y200300D01*
X381888Y202760D01*
X383075Y205625D01*
X383480Y208700D01*
X383075Y211774D01*
X381888Y214640D01*
X380000Y217100D01*
X377540Y218988D01*
X374675Y220175D01*
X371600Y220579D01*
D02*
G37*
G36*
X112730Y186730D02*
X107460D01*
Y180460D01*
X112730D01*
Y186730D01*
D02*
G37*
G36*
X159540Y184040D02*
X155270D01*
Y180270D01*
X156969D01*
Y181032D01*
X156990Y180839D01*
X157051Y180666D01*
X157152Y180514D01*
X157295Y180382D01*
X157478Y180270D01*
X157478Y180270D01*
X159540D01*
Y184040D01*
D02*
G37*
G36*
X103778Y194778D02*
X92222D01*
Y181222D01*
X92269D01*
X93269Y179952D01*
X93080Y179000D01*
X93454Y177117D01*
X94521Y175521D01*
X96117Y174454D01*
X98000Y174079D01*
X99883Y174454D01*
X101479Y175521D01*
X102546Y177117D01*
X102921Y179000D01*
X102731Y179952D01*
X103731Y181222D01*
X103778D01*
Y194778D01*
D02*
G37*
G36*
Y209778D02*
X92222D01*
Y207406D01*
X92172Y207402D01*
X91000D01*
X89315Y207067D01*
X87887Y206113D01*
X82373Y200599D01*
X81607Y199887D01*
X80968Y199357D01*
X80833Y199260D01*
X80721Y199238D01*
X79637Y198513D01*
X78912Y197429D01*
X78658Y196150D01*
Y186950D01*
X78893Y185765D01*
X79042Y183362D01*
X78996Y183005D01*
X78893Y182500D01*
X78782Y182143D01*
X78729Y182028D01*
X77222D01*
Y180241D01*
X77218Y180219D01*
X77222Y180198D01*
Y175016D01*
X77049Y174716D01*
X76569Y174027D01*
X75293Y172519D01*
X74713Y171940D01*
X73540Y172426D01*
Y173730D01*
X67000D01*
Y176270D01*
X73540D01*
Y182790D01*
X67903D01*
X67575Y184060D01*
X68363Y184587D01*
X69088Y185671D01*
X69342Y186950D01*
Y196150D01*
X69088Y197429D01*
X68363Y198513D01*
X67279Y199238D01*
X66000Y199492D01*
X63000D01*
X61721Y199238D01*
X60637Y198513D01*
X59912Y197429D01*
X59658Y196150D01*
Y196051D01*
X58388Y195391D01*
X57333Y196096D01*
X55450Y196471D01*
X53567Y196096D01*
X51971Y195029D01*
X51548Y194397D01*
X50278Y194782D01*
Y203460D01*
X51040D01*
Y206730D01*
X41750D01*
X32460D01*
Y203460D01*
X33222D01*
Y191222D01*
Y184722D01*
Y178222D01*
X41378D01*
X41750Y178148D01*
X47119D01*
X47334Y177067D01*
X48429Y175429D01*
X49054Y174804D01*
X48522Y173540D01*
X40770D01*
Y163000D01*
Y152460D01*
X49040D01*
Y154010D01*
X50222Y154222D01*
X50310Y154222D01*
X61778D01*
Y165939D01*
X61782Y165960D01*
X61781Y165965D01*
X61782Y165970D01*
X61778Y165991D01*
Y167210D01*
X66222D01*
Y165885D01*
X66220Y165873D01*
X66222Y165866D01*
Y154222D01*
X77778D01*
Y159701D01*
X77781Y159713D01*
X77778Y159731D01*
Y162071D01*
X77825Y162154D01*
X78318Y162857D01*
X79653Y164427D01*
X81045Y165819D01*
X82003Y166710D01*
X82811Y167359D01*
X83527Y167861D01*
X83721Y167972D01*
X88778D01*
Y180198D01*
X88782Y180219D01*
X88778Y180241D01*
Y182028D01*
X88048D01*
X87908Y183815D01*
X87936Y184613D01*
X88009Y185438D01*
X88032Y185588D01*
X88088Y185671D01*
X88342Y186950D01*
Y193529D01*
X88540Y193875D01*
X89014Y194557D01*
X90263Y196037D01*
X91049Y196822D01*
X92222Y196336D01*
Y196222D01*
X103778D01*
Y209778D01*
D02*
G37*
G36*
X27040Y181730D02*
X16270D01*
Y170960D01*
X27040D01*
Y181730D01*
D02*
G37*
G36*
X313750Y193171D02*
X311867Y192796D01*
X310271Y191729D01*
X309204Y190133D01*
X308829Y188250D01*
X309204Y186367D01*
X310271Y184771D01*
X310448Y184652D01*
X310479Y184603D01*
X310518Y184527D01*
X310555Y184434D01*
X310590Y184322D01*
X310621Y184189D01*
X310642Y184050D01*
Y183999D01*
X310630Y183859D01*
X310590Y183615D01*
X310543Y183431D01*
X310497Y183306D01*
X310461Y183235D01*
X310450Y183219D01*
X310354Y183168D01*
X310288Y183114D01*
X309651Y182850D01*
X307953Y181547D01*
X306650Y179849D01*
X305831Y177872D01*
X305552Y175750D01*
X305831Y173628D01*
X306650Y171651D01*
X307953Y169953D01*
X309651Y168650D01*
X311628Y167831D01*
X313750Y167552D01*
X315872Y167831D01*
X317849Y168650D01*
X319547Y169953D01*
X320850Y171651D01*
X321669Y173628D01*
X321948Y175750D01*
X321669Y177872D01*
X320850Y179849D01*
X319547Y181547D01*
X317849Y182850D01*
X317212Y183114D01*
X317146Y183168D01*
X317050Y183219D01*
X317039Y183235D01*
X317003Y183306D01*
X316957Y183431D01*
X316910Y183616D01*
X316870Y183859D01*
X316858Y183999D01*
Y184050D01*
X316879Y184189D01*
X316910Y184322D01*
X316945Y184434D01*
X316982Y184527D01*
X317021Y184604D01*
X317052Y184652D01*
X317229Y184771D01*
X318296Y186367D01*
X318671Y188250D01*
X318296Y190133D01*
X317229Y191729D01*
X315633Y192796D01*
X313750Y193171D01*
D02*
G37*
G36*
X38230Y173540D02*
X29960D01*
Y164270D01*
X38230D01*
Y173540D01*
D02*
G37*
G36*
X19500Y169101D02*
X16270D01*
Y163270D01*
X26434D01*
X26359Y163838D01*
X25650Y165550D01*
X24521Y167021D01*
X23051Y168149D01*
X21338Y168859D01*
X19500Y169101D01*
D02*
G37*
G36*
X262263Y169929D02*
X260380Y169554D01*
X258783Y168487D01*
X258665Y168310D01*
X258616Y168279D01*
X258540Y168240D01*
X258447Y168203D01*
X258335Y168168D01*
X258202Y168137D01*
X258063Y168116D01*
X255387D01*
X254198Y167879D01*
X253190Y167206D01*
X242134Y156150D01*
X241987Y156025D01*
X241717Y155820D01*
X241461Y155652D01*
X241221Y155518D01*
X240998Y155416D01*
X240791Y155342D01*
X240599Y155292D01*
X240509Y155278D01*
X238540D01*
Y156040D01*
X234270D01*
Y151000D01*
X233000D01*
Y149730D01*
X227460D01*
Y145960D01*
Y144020D01*
X233000D01*
Y142750D01*
X234270D01*
Y137710D01*
X238540D01*
Y138472D01*
X242964D01*
X243177Y138323D01*
X243864Y137741D01*
X255892Y125713D01*
Y123108D01*
X255870Y122969D01*
X255840Y122836D01*
X255805Y122724D01*
X255767Y122631D01*
X255728Y122555D01*
X255698Y122506D01*
X255520Y122387D01*
X254454Y120791D01*
X254079Y118908D01*
X254454Y117025D01*
X255520Y115429D01*
X257117Y114362D01*
X259000Y113988D01*
X260882Y114362D01*
X262479Y115429D01*
X263545Y117025D01*
X263920Y118908D01*
X263545Y120791D01*
X262479Y122387D01*
X262301Y122506D01*
X262271Y122555D01*
X262232Y122631D01*
X262194Y122724D01*
X262159Y122836D01*
X262129Y122969D01*
X262107Y123108D01*
Y127001D01*
X261871Y128190D01*
X261197Y129198D01*
X248592Y141803D01*
X248176Y142249D01*
X247885Y142610D01*
X247778Y142762D01*
Y147028D01*
X247778D01*
Y152932D01*
X248270Y153496D01*
X256674Y161900D01*
X258063D01*
X258202Y161879D01*
X258335Y161848D01*
X258447Y161814D01*
X258540Y161776D01*
X258616Y161737D01*
X258665Y161707D01*
X258783Y161529D01*
X260380Y160462D01*
X262263Y160088D01*
X264146Y160462D01*
X265742Y161529D01*
X266809Y163125D01*
X267183Y165008D01*
X266809Y166891D01*
X265742Y168487D01*
X264146Y169554D01*
X262263Y169929D01*
D02*
G37*
G36*
X172490Y203540D02*
X166720D01*
Y195000D01*
Y186460D01*
X172490D01*
Y187222D01*
X176672D01*
X176680Y187176D01*
X176692Y187031D01*
Y178247D01*
X176540Y177040D01*
X173270D01*
Y166000D01*
Y154960D01*
X176540D01*
Y155330D01*
X183313D01*
X184138Y155494D01*
X184838Y155962D01*
X185305Y156662D01*
X185469Y157487D01*
Y159512D01*
X186589Y160392D01*
X193500D01*
X194689Y160629D01*
X195697Y161303D01*
X218197Y183803D01*
X218871Y184811D01*
X219108Y186000D01*
Y187031D01*
X219121Y187176D01*
X219128Y187222D01*
X222528D01*
Y202778D01*
X209972D01*
Y202778D01*
X209828D01*
Y202778D01*
X198398D01*
X197272Y202778D01*
Y202778D01*
X197128D01*
Y202778D01*
X185698D01*
X184572Y202778D01*
Y202778D01*
X184428D01*
Y202778D01*
X172490D01*
Y203540D01*
D02*
G37*
G36*
X26434Y160730D02*
X16270D01*
Y154899D01*
X19500D01*
X21338Y155141D01*
X23051Y155851D01*
X24521Y156979D01*
X25650Y158450D01*
X26359Y160162D01*
X26434Y160730D01*
D02*
G37*
G36*
X38230Y161730D02*
X29960D01*
Y152460D01*
X38230D01*
Y161730D01*
D02*
G37*
G36*
X231730Y156040D02*
X227460D01*
Y152270D01*
X231730D01*
Y156040D01*
D02*
G37*
G36*
X104000Y157920D02*
X102117Y157546D01*
X100520Y156479D01*
X99454Y154883D01*
X99079Y153000D01*
X99454Y151117D01*
X100520Y149520D01*
X102117Y148454D01*
X104000Y148079D01*
X105883Y148454D01*
X107479Y149520D01*
X107598Y149698D01*
X107646Y149729D01*
X107723Y149768D01*
X107816Y149805D01*
X107927Y149840D01*
X108061Y149870D01*
X108200Y149892D01*
X113171D01*
X114015Y148622D01*
X113802Y147000D01*
X114081Y144878D01*
X114900Y142901D01*
X116203Y141203D01*
X117901Y139900D01*
X119878Y139081D01*
X122000Y138802D01*
X124122Y139081D01*
X126099Y139900D01*
X127797Y141203D01*
X129100Y142901D01*
X129919Y144878D01*
X130198Y147000D01*
X129919Y149122D01*
X129100Y151099D01*
X127797Y152797D01*
X126099Y154100D01*
X124122Y154919D01*
X122000Y155198D01*
X119878Y154919D01*
X118945Y154532D01*
X118849Y154596D01*
X118554Y154840D01*
X118197Y155197D01*
X117189Y155871D01*
X116000Y156107D01*
X108200D01*
X108061Y156129D01*
X107927Y156159D01*
X107816Y156194D01*
X107723Y156232D01*
X107646Y156271D01*
X107598Y156301D01*
X107479Y156479D01*
X105883Y157546D01*
X104000Y157920D01*
D02*
G37*
G36*
X231730Y141480D02*
X227460D01*
Y137710D01*
X231730D01*
Y141480D01*
D02*
G37*
G36*
X128000Y137920D02*
X126117Y137546D01*
X124520Y136479D01*
X123454Y134883D01*
X123079Y133000D01*
X123454Y131117D01*
X124520Y129520D01*
X126117Y128454D01*
X128000Y128079D01*
X129883Y128454D01*
X131479Y129520D01*
X132546Y131117D01*
X132920Y133000D01*
X132546Y134883D01*
X131479Y136479D01*
X129883Y137546D01*
X128000Y137920D01*
D02*
G37*
G36*
X205000Y156920D02*
X203117Y156546D01*
X201521Y155479D01*
X200454Y153883D01*
X200079Y152000D01*
X200454Y150117D01*
X201223Y148966D01*
X201245Y148629D01*
Y122481D01*
X201531Y121044D01*
X202345Y119826D01*
X216826Y105344D01*
X216894Y105299D01*
X217018Y104035D01*
X215733Y102750D01*
X220343Y98139D01*
X224070Y101866D01*
X222864Y103071D01*
X223350Y104245D01*
X224742D01*
X225638Y104211D01*
X226345Y104131D01*
X226939Y104023D01*
X227186Y103956D01*
X232541Y98602D01*
X234464Y100525D01*
X234479Y100535D01*
X234492Y100553D01*
X235473Y101534D01*
X235512Y101549D01*
X235960Y101674D01*
X236508Y101777D01*
X237831Y101896D01*
X239552D01*
X239615Y101891D01*
X240791Y101105D01*
X242674Y100730D01*
X244557Y101105D01*
X246153Y102172D01*
X247220Y103768D01*
X247595Y105651D01*
X247220Y107534D01*
X246153Y109130D01*
X244557Y110197D01*
X242674Y110571D01*
X240791Y110197D01*
X239640Y109428D01*
X239586Y109424D01*
X239069Y109442D01*
X238279Y109524D01*
X237895Y109590D01*
X230773Y116712D01*
X226022Y111961D01*
X225525Y111875D01*
X224013Y111755D01*
X221037D01*
X208755Y124036D01*
Y148878D01*
X208760Y148941D01*
X209546Y150117D01*
X209921Y152000D01*
X209546Y153883D01*
X208479Y155479D01*
X206883Y156546D01*
X205000Y156920D01*
D02*
G37*
G36*
X213937Y100954D02*
X210210Y97227D01*
X214821Y92617D01*
X218547Y96343D01*
X213937Y100954D01*
D02*
G37*
G36*
X225866Y100070D02*
X222139Y96343D01*
X226750Y91733D01*
X230476Y95459D01*
X225866Y100070D01*
D02*
G37*
G36*
X220343Y94547D02*
X216617Y90821D01*
X221227Y86210D01*
X224953Y89937D01*
X220343Y94547D01*
D02*
G37*
%LPD*%
G36*
X99524Y183468D02*
X99530Y183141D01*
X99539Y183030D01*
X101048D01*
X100758Y183000D01*
X100499Y182908D01*
X100271Y182756D01*
X100073Y182543D01*
X99905Y182268D01*
X99768Y181933D01*
X99742Y181836D01*
X99743Y181830D01*
X99823Y181634D01*
X99914Y181460D01*
X100018Y181307D01*
X100134Y181177D01*
X99601D01*
X99585Y181080D01*
X99539Y180561D01*
X99524Y179982D01*
X96476D01*
X96461Y180561D01*
X96415Y181080D01*
X96399Y181177D01*
X95866D01*
X95982Y181307D01*
X96086Y181460D01*
X96177Y181634D01*
X96257Y181830D01*
X96258Y181836D01*
X96232Y181933D01*
X96095Y182268D01*
X95927Y182543D01*
X95729Y182756D01*
X95501Y182908D01*
X95242Y183000D01*
X94952Y183030D01*
X96459D01*
X96476Y183468D01*
X99524Y183468D01*
D02*
G37*
G36*
X94061Y199969D02*
X94030Y200062D01*
X93939Y200146D01*
X93785Y200219D01*
X93571Y200283D01*
X93296Y200337D01*
X92959Y200381D01*
X92102Y200440D01*
X91000Y200460D01*
Y205540D01*
X91581Y205545D01*
X93296Y205662D01*
X93571Y205716D01*
X93785Y205780D01*
X93939Y205854D01*
X94030Y205937D01*
X94061Y206031D01*
Y199969D01*
D02*
G37*
G36*
X61532Y188502D02*
X61501Y188792D01*
X61409Y189051D01*
X61255Y189279D01*
X61040Y189477D01*
X60763Y189645D01*
X60424Y189782D01*
X60024Y189889D01*
X59562Y189965D01*
X59253Y189992D01*
X59001Y189971D01*
X58739Y189928D01*
X58499Y189874D01*
X58280Y189806D01*
X58084Y189727D01*
X57910Y189636D01*
X57757Y189532D01*
X57627Y189416D01*
Y193683D01*
X57757Y193568D01*
X57910Y193464D01*
X58084Y193373D01*
X58280Y193293D01*
X58499Y193226D01*
X58739Y193172D01*
X59001Y193129D01*
X59221Y193105D01*
X59562Y193135D01*
X60024Y193211D01*
X60424Y193318D01*
X60763Y193455D01*
X61040Y193623D01*
X61255Y193821D01*
X61409Y194049D01*
X61501Y194308D01*
X61532Y194598D01*
Y188502D01*
D02*
G37*
G36*
X90090Y198498D02*
X89115Y197487D01*
X87573Y195660D01*
X87006Y194844D01*
X86576Y194093D01*
X86282Y193408D01*
X86124Y192787D01*
X86102Y192231D01*
X86217Y191740D01*
X86468Y191314D01*
X81426Y197534D01*
X81585Y197594D01*
X81801Y197723D01*
X82077Y197922D01*
X82804Y198525D01*
X84334Y199947D01*
X85648Y201240D01*
X90090Y198498D01*
D02*
G37*
G36*
X86319Y186228D02*
X86260Y185989D01*
X86208Y185658D01*
X86126Y184724D01*
X86093Y183776D01*
X86272Y181490D01*
X86375Y181032D01*
X86495Y180677D01*
X86635Y180423D01*
X86793Y180270D01*
X86969Y180219D01*
X79030D01*
X79397Y180270D01*
X79725Y180423D01*
X80014Y180677D01*
X80265Y181032D01*
X80477Y181490D01*
X80651Y182048D01*
X80786Y182709D01*
X80861Y183303D01*
X80681Y186228D01*
X80616Y186377D01*
X86384D01*
X86319Y186228D01*
D02*
G37*
G36*
X51025Y182810D02*
X53675Y180484D01*
X53948Y180313D01*
X54172Y180204D01*
X54348Y180156D01*
X50844Y176652D01*
X50796Y176828D01*
X50687Y177052D01*
X50516Y177325D01*
X50283Y177646D01*
X49631Y178433D01*
X48190Y179975D01*
X47586Y180586D01*
X50414Y183414D01*
X51025Y182810D01*
D02*
G37*
G36*
X85964Y169811D02*
X85583Y170107D01*
X85127Y170256D01*
X84596Y170259D01*
X83990Y170116D01*
X83309Y169827D01*
X82553Y169391D01*
X81722Y168810D01*
X80817Y168082D01*
X79038Y166428D01*
X78516Y165888D01*
X76881Y163966D01*
X76293Y163127D01*
X75858Y162368D01*
X75575Y161690D01*
X75445Y161093D01*
X75467Y160576D01*
X75642Y160140D01*
X75970Y159785D01*
X68030Y165970D01*
X68702Y166006D01*
X69379Y166113D01*
X70061Y166293D01*
X70747Y166544D01*
X71439Y166868D01*
X72135Y167263D01*
X72836Y167730D01*
X73542Y168269D01*
X74254Y168879D01*
X74970Y169562D01*
X76692Y168589D01*
X75438Y170031D01*
X76436Y171064D01*
X78008Y172920D01*
X78582Y173744D01*
X79015Y174497D01*
X79306Y175181D01*
X79457Y175794D01*
X79466Y176338D01*
X79334Y176811D01*
X79061Y177215D01*
X85964Y169811D01*
D02*
G37*
G36*
X66839Y169760D02*
X66666Y169699D01*
X66514Y169598D01*
X66382Y169455D01*
X66270Y169272D01*
X66179Y169049D01*
X66107Y168785D01*
X66057Y168480D01*
X66026Y168135D01*
X66016Y167749D01*
X63984D01*
X63974Y168135D01*
X63946Y168480D01*
X63898Y168785D01*
X63831Y169049D01*
X63746Y169272D01*
X63641Y169455D01*
X63517Y169598D01*
X63374Y169699D01*
X63212Y169760D01*
X63031Y169781D01*
X67032D01*
X66839Y169760D01*
D02*
G37*
G36*
X59183Y171113D02*
X59461Y166986D01*
X59564Y166541D01*
X59683Y166224D01*
X59819Y166033D01*
X59970Y165970D01*
X52031D01*
X52181Y166033D01*
X52316Y166224D01*
X52436Y166541D01*
X52539Y166986D01*
X52626Y167557D01*
X52754Y169081D01*
X52825Y172320D01*
X59175D01*
X59183Y171113D01*
D02*
G37*
G36*
X315720Y185897D02*
X315573Y185706D01*
X315443Y185500D01*
X315331Y185279D01*
X315236Y185044D01*
X315158Y184795D01*
X315098Y184531D01*
X315054Y184252D01*
X315035Y184029D01*
X315071Y183630D01*
X315134Y183244D01*
X315223Y182895D01*
X315338Y182582D01*
X315477Y182307D01*
X315642Y182067D01*
X315833Y181865D01*
X316049Y181699D01*
X316290Y181570D01*
X311210D01*
X311451Y181699D01*
X311667Y181865D01*
X311858Y182067D01*
X312023Y182307D01*
X312162Y182582D01*
X312277Y182895D01*
X312366Y183244D01*
X312429Y183630D01*
X312465Y184029D01*
X312446Y184252D01*
X312402Y184531D01*
X312342Y184795D01*
X312264Y185044D01*
X312169Y185279D01*
X312057Y185500D01*
X311927Y185706D01*
X311780Y185897D01*
X311616Y186073D01*
X315884D01*
X315720Y185897D01*
D02*
G37*
G36*
X260086Y162875D02*
X259909Y163039D01*
X259718Y163185D01*
X259513Y163315D01*
X259292Y163427D01*
X259057Y163522D01*
X258808Y163600D01*
X258543Y163660D01*
X258265Y163703D01*
X257971Y163729D01*
X257663Y163738D01*
Y166278D01*
X257971Y166287D01*
X258265Y166313D01*
X258543Y166356D01*
X258808Y166416D01*
X259057Y166494D01*
X259292Y166589D01*
X259513Y166701D01*
X259718Y166831D01*
X259909Y166978D01*
X260086Y167142D01*
Y162875D01*
D02*
G37*
G36*
X247161Y154983D02*
X246102Y153768D01*
X246028Y153645D01*
X245984Y153546D01*
X245970Y153469D01*
X240256Y153439D01*
X240612Y153459D01*
X240968Y153515D01*
X241325Y153607D01*
X241683Y153736D01*
X242042Y153900D01*
X242402Y154101D01*
X242762Y154338D01*
X243123Y154611D01*
X243486Y154920D01*
X243848Y155266D01*
X247441D01*
X247161Y154983D01*
D02*
G37*
G36*
X245549Y148535D02*
X245333Y148458D01*
X245142Y148330D01*
X244977Y148150D01*
X244837Y147918D01*
X244723Y147636D01*
X244634Y147301D01*
X244571Y146916D01*
X244567Y146875D01*
X244571Y146834D01*
X244634Y146449D01*
X244723Y146114D01*
X244837Y145832D01*
X244977Y145600D01*
X245142Y145420D01*
X245333Y145292D01*
X245549Y145215D01*
X245790Y145189D01*
X240710D01*
X240951Y145215D01*
X241167Y145292D01*
X241358Y145420D01*
X241523Y145600D01*
X241663Y145832D01*
X241777Y146114D01*
X241866Y146449D01*
X241929Y146834D01*
X241933Y146875D01*
X241929Y146916D01*
X241866Y147301D01*
X241777Y147636D01*
X241663Y147918D01*
X241523Y148150D01*
X241358Y148330D01*
X241167Y148458D01*
X240951Y148535D01*
X240710Y148561D01*
X245790D01*
X245549Y148535D01*
D02*
G37*
G36*
X245787Y143439D02*
X245710Y143216D01*
X245707Y142955D01*
X245778Y142654D01*
X245923Y142314D01*
X246143Y141935D01*
X246437Y141518D01*
X246806Y141061D01*
X247766Y140030D01*
X245720Y138484D01*
X245207Y138979D01*
X244284Y139761D01*
X243874Y140047D01*
X243498Y140265D01*
X243156Y140413D01*
X242847Y140491D01*
X242573Y140501D01*
X242333Y140440D01*
X242127Y140311D01*
X245939Y143623D01*
X245787Y143439D01*
D02*
G37*
G36*
X260278Y123200D02*
X260304Y122906D01*
X260347Y122627D01*
X260408Y122363D01*
X260485Y122114D01*
X260580Y121879D01*
X260693Y121658D01*
X260822Y121453D01*
X260969Y121261D01*
X261133Y121085D01*
X256866D01*
X257030Y121261D01*
X257177Y121453D01*
X257306Y121658D01*
X257419Y121879D01*
X257514Y122114D01*
X257591Y122363D01*
X257652Y122627D01*
X257695Y122906D01*
X257721Y123200D01*
X257729Y123508D01*
X260270D01*
X260278Y123200D01*
D02*
G37*
G36*
X218299Y189005D02*
X218083Y188929D01*
X217892Y188802D01*
X217727Y188624D01*
X217588Y188395D01*
X217473Y188116D01*
X217384Y187786D01*
X217321Y187405D01*
X217283Y186973D01*
X217270Y186490D01*
X214730D01*
X214717Y186973D01*
X214679Y187405D01*
X214616Y187786D01*
X214527Y188116D01*
X214412Y188395D01*
X214273Y188624D01*
X214108Y188802D01*
X213917Y188929D01*
X213701Y189005D01*
X213460Y189030D01*
X218540D01*
X218299Y189005D01*
D02*
G37*
G36*
X205799D02*
X205583Y188929D01*
X205392Y188802D01*
X205227Y188624D01*
X205088Y188395D01*
X204973Y188116D01*
X204884Y187786D01*
X204821Y187405D01*
X204783Y186973D01*
X204770Y186490D01*
X202230D01*
X202217Y186973D01*
X202179Y187405D01*
X202116Y187786D01*
X202027Y188116D01*
X201912Y188395D01*
X201773Y188624D01*
X201608Y188802D01*
X201417Y188929D01*
X201201Y189005D01*
X200960Y189030D01*
X206040D01*
X205799Y189005D01*
D02*
G37*
G36*
X182099D02*
X181883Y188929D01*
X181692Y188802D01*
X181527Y188624D01*
X181388Y188395D01*
X181273Y188116D01*
X181184Y187786D01*
X181121Y187405D01*
X181083Y186973D01*
X181070Y186490D01*
X178530D01*
X178517Y186973D01*
X178479Y187405D01*
X178416Y187786D01*
X178327Y188116D01*
X178213Y188395D01*
X178073Y188624D01*
X177908Y188802D01*
X177717Y188929D01*
X177501Y189005D01*
X177260Y189030D01*
X182340D01*
X182099Y189005D01*
D02*
G37*
G36*
X181083Y176896D02*
X181121Y176459D01*
X181184Y176074D01*
X181273Y175740D01*
X181388Y175457D01*
X181527Y175226D01*
X181692Y175046D01*
X181883Y174917D01*
X182099Y174840D01*
X182340Y174814D01*
X177260D01*
X177501Y174840D01*
X177717Y174917D01*
X177908Y175046D01*
X178073Y175226D01*
X178213Y175457D01*
X178327Y175740D01*
X178416Y176074D01*
X178479Y176459D01*
X178517Y176896D01*
X178530Y177385D01*
X181070D01*
X181083Y176896D01*
D02*
G37*
G36*
X106353Y154969D02*
X106544Y154822D01*
X106750Y154693D01*
X106971Y154581D01*
X107205Y154486D01*
X107455Y154408D01*
X107719Y154347D01*
X107998Y154304D01*
X108291Y154278D01*
X108599Y154270D01*
Y151730D01*
X108291Y151721D01*
X107998Y151695D01*
X107719Y151652D01*
X107455Y151592D01*
X107205Y151514D01*
X106971Y151419D01*
X106750Y151306D01*
X106544Y151177D01*
X106353Y151030D01*
X106177Y150866D01*
Y155133D01*
X106353Y154969D01*
D02*
G37*
G36*
X117201Y153607D02*
X117765Y153141D01*
X118025Y152967D01*
X118270Y152831D01*
X118501Y152735D01*
X118718Y152677D01*
X118920Y152659D01*
X119108Y152679D01*
X119281Y152738D01*
X116261Y149719D01*
X116321Y149892D01*
X116341Y150080D01*
X116322Y150282D01*
X116265Y150499D01*
X116168Y150730D01*
X116033Y150975D01*
X115858Y151235D01*
X115645Y151510D01*
X115393Y151798D01*
X115102Y152102D01*
X116898Y153898D01*
X117201Y153607D01*
D02*
G37*
G36*
X207090Y149763D02*
X207051Y149670D01*
X207017Y149546D01*
X206987Y149391D01*
X206962Y149203D01*
X206926Y148734D01*
X206905Y147792D01*
X203095D01*
X203093Y148138D01*
X203013Y149391D01*
X202983Y149546D01*
X202949Y149670D01*
X202910Y149763D01*
X202866Y149823D01*
X207134D01*
X207090Y149763D01*
D02*
G37*
G36*
X229532Y104211D02*
X229426Y104569D01*
X229216Y104889D01*
X228902Y105172D01*
X228485Y105417D01*
X227963Y105624D01*
X227337Y105793D01*
X226608Y105925D01*
X225774Y106019D01*
X223795Y106095D01*
X222713Y109905D01*
X223852Y109924D01*
X225752Y110074D01*
X226514Y110206D01*
X227150Y110376D01*
X227661Y110583D01*
X228046Y110828D01*
X228306Y111110D01*
X228441Y111430D01*
X228450Y111788D01*
X229532Y104211D01*
D02*
G37*
G36*
X235423Y109099D02*
X235516Y108775D01*
X235745Y108489D01*
X236112Y108242D01*
X236615Y108032D01*
X237255Y107861D01*
X238031Y107727D01*
X238945Y107632D01*
X239613Y107609D01*
X240065Y107638D01*
X240220Y107668D01*
X240344Y107702D01*
X240437Y107741D01*
X240497Y107785D01*
Y107579D01*
X241182Y107556D01*
X240497Y106394D01*
Y103517D01*
X240437Y103561D01*
X240344Y103600D01*
X240220Y103634D01*
X240065Y103664D01*
X239877Y103689D01*
X239408Y103725D01*
X238687Y103741D01*
X237953Y103727D01*
X236258Y103574D01*
X235549Y103441D01*
X234932Y103270D01*
X234406Y103060D01*
X233972Y102812D01*
X233631Y102527D01*
X233381Y102203D01*
X233222Y101841D01*
X235466Y109461D01*
X235423Y109099D01*
D02*
G37*
%LPC*%
G36*
X86362Y274153D02*
X86039Y273811D01*
X85734Y273441D01*
X85516Y273114D01*
X85386Y272831D01*
X85342Y272590D01*
X85386Y272393D01*
X85516Y272240D01*
X85604Y272196D01*
X86512Y272716D01*
X87074Y273105D01*
X86362Y274153D01*
D02*
G37*
G36*
X84512Y272048D02*
X84715Y271928D01*
X84840Y271864D01*
X85260Y272044D01*
X84512Y272048D01*
D02*
G37*
G36*
X66219Y272039D02*
X65364D01*
X65587Y271963D01*
X65843Y271952D01*
X66134Y272007D01*
X66219Y272039D01*
D02*
G37*
%LPD*%
D10*
X304265Y216715D02*
X309850Y222300D01*
X304265Y207010D02*
Y216715D01*
X318735Y291250D02*
X319250D01*
X318735Y277750D02*
Y291250D01*
X112985Y218000D02*
X113250Y217735D01*
X97000Y328000D02*
X104000Y321000D01*
X91000Y328000D02*
X97000D01*
X104000Y321000D02*
X106000D01*
X91450Y266550D02*
X93000Y265000D01*
X91450Y266550D02*
X95050D01*
X99600Y271100D01*
X92550Y264050D02*
X93000Y264500D01*
X89500Y261000D02*
X92550Y264050D01*
X85900Y261000D02*
X89500D01*
X85900D02*
X88950Y264050D01*
X92550D01*
X93000Y264500D02*
Y265000D01*
Y264500D02*
X95050Y266550D01*
X96000Y280070D02*
X100750Y275320D01*
X96000Y271100D02*
X99600D01*
X100750Y272250D01*
Y275320D01*
X90120Y280070D02*
X93870D01*
X92800Y279000D02*
X94930D01*
X93870Y280070D02*
X96000D01*
X92800Y279000D02*
X93870Y280070D01*
X94930Y279000D02*
X96000Y280070D01*
X82089Y272039D02*
X85900Y268228D01*
Y261000D02*
Y268228D01*
X76000Y272000D02*
Y275000D01*
X74000Y270000D02*
X76000Y272000D01*
X98000Y179000D02*
X98000Y179000D01*
Y188000D01*
X55450Y191550D02*
X64500D01*
X56400Y280600D02*
X71000D01*
X76000Y275000D02*
Y280600D01*
X64100Y265059D02*
X68041Y269000D01*
X67000D02*
X68041D01*
X70000D01*
X64100Y267048D02*
X71000Y273948D01*
X64100Y265059D02*
Y267048D01*
X73500Y269500D02*
Y272500D01*
X69000Y265000D02*
X73500Y269500D01*
X70000Y269000D02*
X73500Y272500D01*
X76000Y275000D01*
X64100Y270100D02*
X67948Y273948D01*
X72989D02*
X75826Y276785D01*
X64100Y261000D02*
Y265059D01*
Y267048D02*
Y270100D01*
X68041Y269000D02*
X72989Y273948D01*
X67948D02*
X71000D01*
X72989D01*
X56000Y281000D02*
Y282000D01*
X55000D02*
X56000Y281000D01*
X56400Y280600D01*
X56000Y281000D02*
X56000Y281000D01*
X82089Y272039D02*
X90120Y280070D01*
D11*
X216000Y193250D02*
X217750Y195000D01*
X216000Y186000D02*
Y193250D01*
X193500Y163500D02*
X216000Y186000D01*
X203500Y193450D02*
X205050Y195000D01*
X203500Y182500D02*
Y193450D01*
X189500Y168500D02*
X203500Y182500D01*
X311069Y235000D02*
X315043Y231025D01*
X309850Y235000D02*
X311069D01*
X295400Y235750D02*
X297900Y233250D01*
X299650Y235000D01*
X297150Y222300D02*
X299650D01*
X288200D02*
X297150D01*
X282250Y254750D02*
X291750D01*
X279750Y252250D02*
X282250Y254750D01*
X291750Y253750D02*
Y254750D01*
Y253750D02*
X297800Y247700D01*
X285014Y235012D02*
X294661D01*
X295400Y235750D01*
X278239Y235012D02*
X285014D01*
X277500Y235750D02*
X278239Y235012D01*
X275000Y233250D02*
X277500Y235750D01*
X271750Y236500D02*
X275000Y233250D01*
X272000Y215750D02*
X278750Y222500D01*
X288000D02*
X288200Y222300D01*
X278750Y222500D02*
X288000D01*
X128000Y181000D02*
X129999Y179000D01*
X144000D01*
X319485Y324735D02*
X319750Y325000D01*
X319485Y312000D02*
Y324735D01*
X277750Y254250D02*
X279750Y252250D01*
X267250Y254250D02*
X277250D01*
X263000Y258500D02*
X267250Y254250D01*
X244452Y248048D02*
X258597D01*
X238158Y254342D02*
X244452Y248048D01*
X157342Y254342D02*
X238158D01*
X231750Y292000D02*
X252000Y271750D01*
X253000D01*
X250750D02*
X252000D01*
X179000Y292000D02*
X231750D01*
X313750Y175750D02*
Y188250D01*
X297800Y247700D02*
X299650D01*
X253000Y271750D02*
X253135Y271885D01*
X267000D01*
X258597Y248048D02*
X271750Y234895D01*
Y236500D01*
X150000Y247000D02*
X157342Y254342D01*
X113969Y248048D02*
X132263D01*
X113256Y248762D02*
X113969Y248048D01*
X113256Y248745D02*
Y248762D01*
Y248745D02*
X114096Y247904D01*
X234250Y215750D02*
X272000D01*
X227700Y222300D02*
X234250Y215750D01*
X158011Y222300D02*
X227700D01*
X277250Y254250D02*
X277750D01*
X247500Y236000D02*
X251512Y240012D01*
X393200Y208700D02*
X397000D01*
X120500Y168500D02*
X148500D01*
X164200D01*
X132263Y248048D02*
X158011Y222300D01*
X109876Y163500D02*
X164200D01*
X116000Y153000D02*
X122000Y147000D01*
X104000Y153000D02*
X116000D01*
X154250Y192250D02*
Y193750D01*
X144000Y179000D02*
Y183500D01*
X154250Y193750D01*
Y195000D01*
X117000Y172000D02*
Y173000D01*
Y172000D02*
X120500Y168500D01*
X151348Y192098D02*
X154250Y195000D01*
X71000Y295400D02*
Y303000D01*
X65000Y313000D02*
X80000D01*
X90000Y317000D02*
Y318000D01*
X80000Y313000D02*
X80000Y313000D01*
X179800Y173500D02*
Y194850D01*
X179650Y195000D02*
X179800Y194850D01*
X154500Y158500D02*
X164200D01*
X151000Y155000D02*
X154500Y158500D01*
X118000Y151000D02*
X122000Y147000D01*
X79000Y313000D02*
X84000Y318000D01*
X91000D01*
X179800Y168500D02*
X189500D01*
X179800Y163500D02*
X193500D01*
X243250Y142750D02*
Y150000D01*
X242250Y151000D02*
X243250Y150000D01*
X242250Y151000D02*
Y151871D01*
X255387Y165008D01*
X262263D01*
X243250Y142750D02*
X259000Y127001D01*
Y118908D02*
Y127001D01*
X81000Y295400D02*
Y297160D01*
Y280600D02*
X83409D01*
X82778Y282379D02*
X85187D01*
X81000Y280600D02*
X82778Y282379D01*
X83409Y280600D02*
X85187Y282379D01*
X86115Y283307D01*
X76000Y295400D02*
X76017Y295417D01*
Y299384D01*
X81000Y297160D02*
X82576Y298736D01*
X78766Y312766D02*
X79000Y313000D01*
X76017Y299384D02*
X78766Y302133D01*
Y312766D01*
X81000Y280600D02*
X82000Y279600D01*
X48210Y296636D02*
Y298272D01*
X49438Y299500D01*
X49750D01*
X82576Y298736D02*
X85570Y301730D01*
D12*
X96000Y280070D02*
D03*
X96000Y303000D02*
D03*
D13*
X67000Y232000D02*
D03*
X83000D02*
D03*
X67000Y175000D02*
D03*
X83000D02*
D03*
D17*
X44000Y316000D02*
D03*
X34000Y316000D02*
D03*
X144000Y179000D02*
D03*
X154000D02*
D03*
X243000Y142750D02*
D03*
X233000D02*
D03*
X243000Y151000D02*
D03*
X233000Y151000D02*
D03*
D18*
X91000Y328000D02*
D03*
X91000Y318000D02*
D03*
D24*
X319000Y292000D02*
D03*
X303000Y292000D02*
D03*
X114000Y203000D02*
D03*
X98000Y203000D02*
D03*
X56000Y161000D02*
D03*
X72000D02*
D03*
X114000Y188000D02*
D03*
X98000D02*
D03*
X33000Y329000D02*
D03*
X49000D02*
D03*
X319750Y325000D02*
D03*
X303750Y325000D02*
D03*
D25*
X253250Y290750D02*
D03*
Y306750D02*
D03*
X253000Y255750D02*
D03*
Y271750D02*
D03*
X268750Y306635D02*
D03*
X267000Y271885D02*
D03*
X38000Y298000D02*
D03*
X38000Y282000D02*
D03*
X79000Y313000D02*
D03*
Y329000D02*
D03*
X65000Y329000D02*
D03*
X65000Y313000D02*
D03*
X37000Y249000D02*
D03*
Y265000D02*
D03*
D34*
X284000Y187000D02*
Y213750D01*
X283000Y175000D02*
X284000Y176000D01*
Y187000D01*
X121070Y177668D02*
X125238Y173500D01*
X121070Y177668D02*
Y193070D01*
X125238Y173500D02*
X164200D01*
X121070Y193070D02*
X124000Y196000D01*
X165000Y179000D02*
X168000Y182000D01*
X154000Y179000D02*
X165000D01*
X167000Y182000D02*
X168000D01*
X65000Y166000D02*
Y173000D01*
X67000Y175000D01*
D35*
X113250Y203750D02*
Y217735D01*
Y203750D02*
X114000Y203000D01*
X52000Y179000D02*
X56000Y175000D01*
Y161000D02*
Y175000D01*
X91450Y266550D02*
X96000Y271100D01*
X86000Y267000D02*
X96000Y277000D01*
X97150Y272250D02*
X98451D01*
X96000Y271100D02*
X97150Y272250D01*
X88950Y264050D02*
X91450Y266550D01*
X96000Y271100D02*
Y277000D01*
X85900Y268228D02*
Y272100D01*
X28047Y272953D02*
Y288052D01*
Y272953D02*
X36000Y265000D01*
X37000D01*
X28047Y288052D02*
X30948Y290953D01*
X30953D01*
X31000Y291000D01*
Y291000D01*
X38000Y298000D01*
X37995D02*
X38000D01*
X38995D02*
X39000D01*
X44000Y317000D02*
Y324000D01*
X48000Y328000D01*
X85900Y272100D02*
X92800Y279000D01*
X44000Y308000D02*
Y316000D01*
X39000Y298000D02*
X44000Y303000D01*
Y308000D01*
X39000Y282000D02*
X56000D01*
D36*
X183728Y305674D02*
X252674D01*
X168054Y290000D02*
X183728Y305674D01*
X262500Y202500D02*
X271750Y193250D01*
X262500Y202500D02*
Y207750D01*
X301880Y315635D02*
X305515Y312000D01*
X292750Y315635D02*
X301880D01*
X268800Y306440D02*
X271000Y307000D01*
X265789Y305674D02*
X268800Y306440D01*
X252674Y305674D02*
X253635Y306635D01*
X268750D01*
X167000Y290000D02*
X168054D01*
D37*
X280000Y315000D02*
Y332945D01*
Y315000D02*
X303000Y292000D01*
X298000Y333000D02*
X303750Y327250D01*
Y325000D02*
Y327250D01*
X383250Y246500D02*
X395650Y234100D01*
X397000D01*
X386000Y223100D02*
X397000Y234100D01*
X386000Y222500D02*
Y223100D01*
X96000Y291750D02*
X96250Y291500D01*
X96000Y301250D02*
X96250Y301000D01*
X95250Y302000D02*
X96000Y301250D01*
Y303000D01*
Y291750D02*
Y301250D01*
X55000Y299500D02*
X56250Y298250D01*
X56000Y298000D02*
X64750D01*
X55000Y299500D02*
Y307250D01*
X96000Y277000D02*
Y280070D01*
X90000Y329000D02*
X91000Y328000D01*
X79000Y329000D02*
X90000D01*
X37000Y249000D02*
X44000Y242000D01*
X75000D01*
X83000Y234000D01*
Y232000D02*
Y234000D01*
X92015Y225000D02*
X99015Y218000D01*
X83500Y216450D02*
Y231500D01*
X83000Y232000D02*
X83500Y231500D01*
X91000Y203000D02*
X98000D01*
X83500Y195500D02*
X91000Y203000D01*
X83500Y191550D02*
Y195500D01*
X83000Y175000D02*
X83500Y175500D01*
Y191550D01*
X83000Y174000D02*
Y175000D01*
X71000Y162000D02*
X83000Y174000D01*
X33000Y330000D02*
X33000Y330000D01*
X13000Y327400D02*
X30400D01*
X32000Y329000D01*
X55550Y216450D02*
X64500D01*
X94980Y301730D02*
X95250Y302000D01*
X85570Y301730D02*
X94980D01*
D38*
X320500Y236750D02*
X344500D01*
X309550Y247700D02*
X320500Y236750D01*
X316000Y260000D02*
Y266000D01*
X310250Y254250D02*
X316000Y260000D01*
X310250Y250150D02*
Y254250D01*
X301750Y280750D02*
X304750Y277750D01*
X293000Y280750D02*
X301750D01*
X383317Y273183D02*
X397000Y259500D01*
X365932Y273183D02*
X383317D01*
X357917Y265167D02*
X365932Y273183D01*
X357917Y250167D02*
Y265167D01*
X344500Y236750D02*
X357917Y250167D01*
X233663Y105651D02*
X234000Y105988D01*
X233343Y107657D02*
X234000Y107000D01*
Y105988D02*
Y107000D01*
X233663Y105651D02*
X242674D01*
X232000Y107000D02*
X234000D01*
X205000Y122481D02*
Y152000D01*
X231314Y108000D02*
X231657Y107657D01*
X205000Y122481D02*
X219481Y108000D01*
X231314D01*
D57*
X371600Y259500D02*
D03*
X397000Y234100D02*
D03*
X371600D02*
D03*
X397000Y208700D02*
D03*
X371600D02*
D03*
D58*
X397000Y259500D02*
D03*
D59*
X15000Y162000D02*
D03*
Y228000D02*
D03*
D60*
X13000Y302000D02*
D03*
D61*
X13000Y327400D02*
D03*
D62*
X313660Y209600D02*
D03*
X293340D02*
D03*
X303500Y260400D02*
D03*
D63*
X320750Y251750D02*
D03*
X294000Y271000D02*
D03*
X289000Y263750D02*
D03*
X291750Y254750D02*
D03*
X284000Y213750D02*
D03*
X285014Y235012D02*
D03*
X288000Y222500D02*
D03*
X304265Y207010D02*
D03*
X128000Y181000D02*
D03*
X93250Y243250D02*
D03*
X74500Y185000D02*
D03*
X109500Y177500D02*
D03*
X262500Y207750D02*
D03*
X256000Y199000D02*
D03*
X278750Y286000D02*
D03*
X263000Y258500D02*
D03*
X315750Y160250D02*
D03*
X303500Y151750D02*
D03*
X317250Y143000D02*
D03*
X304250Y130250D02*
D03*
X317000Y117500D02*
D03*
X299250Y101000D02*
D03*
X317750Y88500D02*
D03*
X313750Y188250D02*
D03*
X266000Y281000D02*
D03*
X288500Y293250D02*
D03*
X284750Y243000D02*
D03*
X113256Y248762D02*
D03*
X111505Y233511D02*
D03*
X298000Y333000D02*
D03*
X317250Y198250D02*
D03*
X242674Y105651D02*
D03*
X320500Y218750D02*
D03*
X258013Y240012D02*
D03*
X316000Y266000D02*
D03*
X54000Y314750D02*
D03*
X55000Y307250D02*
D03*
X279500Y271250D02*
D03*
X223000Y324000D02*
D03*
X195000D02*
D03*
X135000Y318000D02*
D03*
X111000Y299000D02*
D03*
X106000Y321000D02*
D03*
X280000Y332945D02*
D03*
X254000Y324000D02*
D03*
X109876Y163701D02*
D03*
X104000Y153000D02*
D03*
X92000Y150000D02*
D03*
X15000D02*
D03*
X30000D02*
D03*
X45000D02*
D03*
X177000Y134000D02*
D03*
Y127000D02*
D03*
Y120000D02*
D03*
X112000Y131000D02*
D03*
Y120000D02*
D03*
X94580Y269000D02*
D03*
X47000Y281000D02*
D03*
X160000Y248000D02*
D03*
X168000Y241000D02*
D03*
X176000Y248000D02*
D03*
X168000Y261000D02*
D03*
X184000Y241000D02*
D03*
X192000Y248000D02*
D03*
X184000Y261000D02*
D03*
X200000Y241000D02*
D03*
X208000Y247000D02*
D03*
X216000Y241000D02*
D03*
X200000Y261000D02*
D03*
X224000Y248000D02*
D03*
X53000Y253000D02*
D03*
X111000Y268000D02*
D03*
X119000Y255000D02*
D03*
X129000Y281500D02*
D03*
X28000Y239000D02*
D03*
X231000Y314000D02*
D03*
X214000D02*
D03*
X160000Y311000D02*
D03*
X148000D02*
D03*
X91750Y165500D02*
D03*
X100750Y168750D02*
D03*
X83500Y159000D02*
D03*
X56500Y204000D02*
D03*
X67000Y204000D02*
D03*
X78000D02*
D03*
X54750Y234250D02*
D03*
X7000Y244000D02*
D03*
X17000Y256000D02*
D03*
X7000D02*
D03*
X17000Y268000D02*
D03*
X7000D02*
D03*
X17000Y281000D02*
D03*
X96000Y291500D02*
D03*
X114000Y282000D02*
D03*
X130000Y255000D02*
D03*
X83750Y244500D02*
D03*
X93500Y234500D02*
D03*
X179000Y292000D02*
D03*
X167000Y290000D02*
D03*
X103000Y239000D02*
D03*
X117000Y173000D02*
D03*
X7000Y281000D02*
D03*
X35250Y307500D02*
D03*
X71000Y303000D02*
D03*
X53000Y263000D02*
D03*
X92015Y225000D02*
D03*
X98000Y179000D02*
D03*
X55450Y191550D02*
D03*
X44000Y308000D02*
D03*
X150000Y247000D02*
D03*
X198000Y120000D02*
D03*
X160000Y271000D02*
D03*
X176000D02*
D03*
X168000Y281000D02*
D03*
X184000D02*
D03*
X200000D02*
D03*
X216000D02*
D03*
X192000Y271000D02*
D03*
X208000D02*
D03*
X224000D02*
D03*
X160000Y231000D02*
D03*
X176000D02*
D03*
X192000D02*
D03*
X208000D02*
D03*
X224000D02*
D03*
X208000Y211000D02*
D03*
X224000D02*
D03*
X192000Y210000D02*
D03*
X176000Y211000D02*
D03*
X160000D02*
D03*
X128000Y133000D02*
D03*
X151000Y155000D02*
D03*
X124000Y196000D02*
D03*
X17000Y244000D02*
D03*
X60000Y150000D02*
D03*
X75000D02*
D03*
X168000Y182000D02*
D03*
X201000Y161000D02*
D03*
X216000Y261000D02*
D03*
X127000Y216000D02*
D03*
X320000Y7000D02*
D03*
X198000Y134000D02*
D03*
X312000Y7000D02*
D03*
X304000D02*
D03*
X296000D02*
D03*
X288000D02*
D03*
X280000D02*
D03*
X272000D02*
D03*
X264000D02*
D03*
X267000Y78750D02*
D03*
Y87000D02*
D03*
X207000D02*
D03*
Y98000D02*
D03*
Y109000D02*
D03*
X217500Y85250D02*
D03*
X186000Y182000D02*
D03*
X208000Y168000D02*
D03*
X216000Y161000D02*
D03*
X224000Y171000D02*
D03*
X216000Y121000D02*
D03*
X123000Y120000D02*
D03*
X134000D02*
D03*
X145000D02*
D03*
X166000D02*
D03*
X155000D02*
D03*
X281000Y135000D02*
D03*
X263000Y141000D02*
D03*
X281000D02*
D03*
X275000Y141000D02*
D03*
X269000Y141000D02*
D03*
X263000Y135000D02*
D03*
X269000Y135000D02*
D03*
X275000Y135000D02*
D03*
X258000Y185000D02*
D03*
X257000Y7000D02*
D03*
Y15000D02*
D03*
Y23000D02*
D03*
Y31000D02*
D03*
Y39000D02*
D03*
Y47000D02*
D03*
Y55000D02*
D03*
Y62500D02*
D03*
X267000Y71500D02*
D03*
X261500Y68000D02*
D03*
X318000D02*
D03*
X310000D02*
D03*
X302000D02*
D03*
X296000Y72000D02*
D03*
X292000Y78000D02*
D03*
X284000Y79000D02*
D03*
Y87000D02*
D03*
Y94000D02*
D03*
Y101000D02*
D03*
Y108000D02*
D03*
X233000Y134000D02*
D03*
X267000Y94250D02*
D03*
X225500Y118000D02*
D03*
X205000Y152000D02*
D03*
X198000Y127000D02*
D03*
X225000Y134000D02*
D03*
X212000Y130000D02*
D03*
X245000Y121000D02*
D03*
X235750Y118000D02*
D03*
X241000Y135000D02*
D03*
X288000Y115000D02*
D03*
X291000Y122000D02*
D03*
Y129000D02*
D03*
Y136000D02*
D03*
Y143000D02*
D03*
Y150000D02*
D03*
X265000Y157000D02*
D03*
X284000Y187000D02*
D03*
X239000Y9750D02*
D03*
X238500Y19750D02*
D03*
X237750Y74750D02*
D03*
X238000Y62000D02*
D03*
Y46750D02*
D03*
X238750Y31250D02*
D03*
X254500Y85750D02*
D03*
X261250Y230250D02*
D03*
X256500Y174000D02*
D03*
X251000Y152000D02*
D03*
X257000Y157000D02*
D03*
X262263Y165008D02*
D03*
X267000Y101000D02*
D03*
X267250Y108000D02*
D03*
X252000Y125000D02*
D03*
X259000Y118908D02*
D03*
X244750Y82250D02*
D03*
X231500Y95500D02*
D03*
X55550Y216450D02*
D03*
X24500Y318000D02*
D03*
X30500Y176500D02*
D03*
X30000Y213000D02*
D03*
Y194500D02*
D03*
X54750Y225250D02*
D03*
X27750Y302750D02*
D03*
X46500Y290250D02*
D03*
X66000Y289250D02*
D03*
X85000Y288500D02*
D03*
X85570Y301730D02*
D03*
D64*
X313750Y175750D02*
D03*
X271750Y236500D02*
D03*
X271750Y193250D02*
D03*
X122000Y147000D02*
D03*
X283000Y175000D02*
D03*
X277250Y254250D02*
D03*
X272000Y215750D02*
D03*
D65*
X268750Y325135D02*
D03*
X292750Y315635D02*
D03*
X267000Y290385D02*
D03*
X291000Y280885D02*
D03*
D66*
X41750Y182000D02*
D03*
Y188500D02*
D03*
Y195000D02*
D03*
Y201500D02*
D03*
Y208000D02*
D03*
D67*
X39500Y163000D02*
D03*
Y227000D02*
D03*
D68*
X15000Y183000D02*
D03*
Y207000D02*
D03*
D69*
X56000Y298000D02*
D03*
Y282000D02*
D03*
D70*
X172000Y166000D02*
D03*
D71*
X164200Y173500D02*
D03*
X164200Y168500D02*
D03*
X164200Y163500D02*
D03*
Y158500D02*
D03*
X179800D02*
D03*
Y163500D02*
D03*
Y168500D02*
D03*
Y173500D02*
D03*
D72*
X152750Y195000D02*
D03*
X178150D02*
D03*
X203550D02*
D03*
X165450D02*
D03*
X190850D02*
D03*
X216250D02*
D03*
D73*
X123000Y236000D02*
D03*
X123000Y324000D02*
D03*
X246000Y236000D02*
D03*
Y324000D02*
D03*
D74*
X99015Y218000D02*
D03*
X112985Y218000D02*
D03*
X305515Y312000D02*
D03*
X319485Y312000D02*
D03*
X304765Y277750D02*
D03*
X318735D02*
D03*
D75*
X64500Y216450D02*
D03*
X74000D02*
D03*
X83500D02*
D03*
Y191550D02*
D03*
X64500D02*
D03*
D76*
X85900Y261000D02*
D03*
X64100Y261000D02*
D03*
D77*
X76000Y280600D02*
D03*
Y295400D02*
D03*
X71000Y280600D02*
D03*
Y295400D02*
D03*
X81000Y280600D02*
D03*
Y295400D02*
D03*
D78*
X297150Y222300D02*
D03*
X309850Y247700D02*
D03*
X297150D02*
D03*
X309850Y235000D02*
D03*
Y222300D02*
D03*
X297150Y235000D02*
D03*
D79*
X231657Y107657D02*
D03*
X220343Y96343D02*
D03*
D80*
X49000Y182000D02*
X54000Y177000D01*
X41750Y182000D02*
X49000D01*
D81*
X50500Y213500D02*
X51750Y212000D01*
X82576Y296424D02*
X83250Y295750D01*
X82576Y296424D02*
Y298736D01*
Y301056D01*
D82*
X74000Y206250D02*
Y216450D01*
D83*
X96000Y303000D02*
D03*
D84*
X84135Y292470D02*
D03*
D85*
X56395Y297020D02*
D03*
D86*
X50615Y294276D02*
D03*
D87*
X59722Y288641D02*
D03*
M02*
