G04 Layer_Color=128*
%FSLAX44Y44*%
%MOMM*%
G71*
G01*
G75*
%ADD11C,0.2540*%
%ADD12R,1.2700X1.0160*%
%ADD13R,0.8000X1.0500*%
%ADD17R,0.6000X0.5000*%
%ADD18R,0.5000X0.6000*%
%ADD24R,0.8000X1.0000*%
%ADD25R,1.0000X0.8000*%
%ADD65O,1.0000X0.8000*%
%ADD66R,1.3500X0.4000*%
%ADD67R,1.4000X1.6000*%
%ADD68R,1.9000X1.9000*%
%ADD69R,1.0500X0.8000*%
G04:AMPARAMS|DCode=71|XSize=0.77mm|YSize=0.27mm|CornerRadius=0.0338mm|HoleSize=0mm|Usage=FLASHONLY|Rotation=180.000|XOffset=0mm|YOffset=0mm|HoleType=Round|Shape=RoundedRectangle|*
%AMROUNDEDRECTD71*
21,1,0.7700,0.2025,0,0,180.0*
21,1,0.7025,0.2700,0,0,180.0*
1,1,0.0675,-0.3513,0.1013*
1,1,0.0675,0.3513,0.1013*
1,1,0.0675,0.3513,-0.1013*
1,1,0.0675,-0.3513,-0.1013*
%
%ADD71ROUNDEDRECTD71*%
%ADD72R,0.9000X1.2000*%
%ADD73R,1.3000X1.8000*%
%ADD74R,0.7620X0.8128*%
G04:AMPARAMS|DCode=75|XSize=1.22mm|YSize=0.6mm|CornerRadius=0.15mm|HoleSize=0mm|Usage=FLASHONLY|Rotation=270.000|XOffset=0mm|YOffset=0mm|HoleType=Round|Shape=RoundedRectangle|*
%AMROUNDEDRECTD75*
21,1,1.2200,0.3000,0,0,270.0*
21,1,0.9200,0.6000,0,0,270.0*
1,1,0.3000,-0.1500,-0.4600*
1,1,0.3000,-0.1500,0.4600*
1,1,0.3000,0.1500,0.4600*
1,1,0.3000,0.1500,-0.4600*
%
%ADD75ROUNDEDRECTD75*%
%ADD76R,1.2400X2.2200*%
%ADD77O,0.3000X0.6700*%
G04:AMPARAMS|DCode=79|XSize=0.8mm|YSize=1.05mm|CornerRadius=0mm|HoleSize=0mm|Usage=FLASHONLY|Rotation=45.000|XOffset=0mm|YOffset=0mm|HoleType=Round|Shape=Rectangle|*
%AMROTATEDRECTD79*
4,1,4,0.0884,-0.6541,-0.6541,0.0884,-0.0884,0.6541,0.6541,-0.0884,0.0884,-0.6541,0.0*
%
%ADD79ROTATEDRECTD79*%

%ADD133C,0.0000*%
G36*
X173300Y160600D02*
X170700D01*
Y171400D01*
X173300D01*
Y160600D01*
D02*
G37*
D11*
X327000Y242000D02*
X333750D01*
D12*
X96000Y280070D02*
D03*
X96000Y303000D02*
D03*
D13*
X67000Y232000D02*
D03*
X83000D02*
D03*
X67000Y175000D02*
D03*
X83000D02*
D03*
D17*
X44000Y316000D02*
D03*
X34000Y316000D02*
D03*
X144000Y179000D02*
D03*
X154000D02*
D03*
X243000Y142750D02*
D03*
X233000D02*
D03*
X243000Y151000D02*
D03*
X233000Y151000D02*
D03*
D18*
X91000Y328000D02*
D03*
X91000Y318000D02*
D03*
D24*
X319000Y292000D02*
D03*
X303000Y292000D02*
D03*
X114000Y203000D02*
D03*
X98000Y203000D02*
D03*
X56000Y161000D02*
D03*
X72000D02*
D03*
X114000Y188000D02*
D03*
X98000D02*
D03*
X33000Y329000D02*
D03*
X49000D02*
D03*
X319750Y325000D02*
D03*
X303750Y325000D02*
D03*
D25*
X253250Y290750D02*
D03*
Y306750D02*
D03*
X253000Y255750D02*
D03*
Y271750D02*
D03*
X268750Y306635D02*
D03*
X267000Y271885D02*
D03*
X38000Y298000D02*
D03*
X38000Y282000D02*
D03*
X79000Y313000D02*
D03*
Y329000D02*
D03*
X65000Y329000D02*
D03*
X65000Y313000D02*
D03*
X37000Y249000D02*
D03*
Y265000D02*
D03*
D65*
X268750Y325135D02*
D03*
X292750Y315635D02*
D03*
X267000Y290385D02*
D03*
X291000Y280885D02*
D03*
D66*
X41750Y182000D02*
D03*
Y188500D02*
D03*
Y195000D02*
D03*
Y201500D02*
D03*
Y208000D02*
D03*
D67*
X39500Y163000D02*
D03*
Y227000D02*
D03*
D68*
X15000Y183000D02*
D03*
Y207000D02*
D03*
D69*
X56000Y298000D02*
D03*
Y282000D02*
D03*
D71*
X164200Y173500D02*
D03*
X164200Y168500D02*
D03*
X164200Y163500D02*
D03*
Y158500D02*
D03*
X179800D02*
D03*
Y163500D02*
D03*
Y168500D02*
D03*
Y173500D02*
D03*
D72*
X152750Y195000D02*
D03*
X178150D02*
D03*
X203550D02*
D03*
X165450D02*
D03*
X190850D02*
D03*
X216250D02*
D03*
D73*
X123000Y236000D02*
D03*
X123000Y324000D02*
D03*
X246000Y236000D02*
D03*
Y324000D02*
D03*
D74*
X99015Y218000D02*
D03*
X112985Y218000D02*
D03*
X305515Y312000D02*
D03*
X319485Y312000D02*
D03*
X304765Y277750D02*
D03*
X318735D02*
D03*
D75*
X64500Y216450D02*
D03*
X74000D02*
D03*
X83500D02*
D03*
Y191550D02*
D03*
X64500D02*
D03*
D76*
X85900Y261000D02*
D03*
X64100Y261000D02*
D03*
D77*
X76000Y280600D02*
D03*
Y295400D02*
D03*
X71000Y280600D02*
D03*
Y295400D02*
D03*
X81000Y280600D02*
D03*
Y295400D02*
D03*
D79*
X231657Y107657D02*
D03*
X220343Y96343D02*
D03*
D133*
X297150Y222300D02*
D03*
X309850Y247700D02*
D03*
X297150D02*
D03*
X309850Y235000D02*
D03*
Y222300D02*
D03*
X297150Y235000D02*
D03*
M02*
