G04 Layer_Physical_Order=1*
G04 Layer_Color=255*
%FSLAX44Y44*%
%MOMM*%
G71*
G01*
G75*
%ADD10C,0.3048*%
%ADD11C,0.2540*%
%ADD12R,1.2700X1.0160*%
%ADD13R,0.8000X1.0500*%
%ADD14R,1.0000X2.0000*%
%ADD15R,1.5000X2.0000*%
%ADD16R,0.5100X0.7300*%
%ADD17R,0.6000X0.5000*%
%ADD18R,0.5000X0.6000*%
%ADD19R,0.8000X0.8000*%
%ADD20R,0.5400X0.3000*%
%ADD21R,0.5400X0.5400*%
%ADD22R,0.3000X0.5400*%
%ADD23R,0.3000X0.3000*%
%ADD24R,0.8000X1.0000*%
%ADD25R,1.0000X0.8000*%
%ADD26R,0.5150X0.4250*%
%ADD27R,0.2750X0.4250*%
%ADD28R,2.5000X1.5500*%
%ADD29R,0.7400X1.2500*%
%ADD30R,1.8000X1.2500*%
%ADD31R,1.0160X1.2700*%
%ADD32R,0.6000X0.5600*%
%ADD33R,0.6000X0.5400*%
%ADD34C,0.2032*%
%ADD35C,0.6350*%
%ADD36C,0.3000*%
%ADD37C,0.5080*%
%ADD38C,0.3810*%
%ADD39C,0.2750*%
%ADD40C,0.2750*%
%ADD41R,6.5150X0.7060*%
%ADD42R,0.7060X11.4650*%
%ADD43R,0.2745X0.3810*%
%ADD44R,0.3640X0.4125*%
%ADD45R,0.1065X0.0910*%
%ADD46R,0.2575X0.2410*%
%ADD47R,0.1065X0.1500*%
%ADD48R,0.2757X0.3000*%
%ADD49R,2.1000X0.3000*%
%ADD50R,0.9000X2.0000*%
%ADD51R,0.5500X0.1972*%
%ADD52R,0.4165X0.4222*%
%ADD53R,0.4446X0.6790*%
%ADD54R,0.2542X0.5384*%
%ADD55R,0.3518X0.4030*%
%ADD56R,0.9250X0.5750*%
%ADD57C,2.0000*%
%ADD58P,2.1648X8X292.5*%
%ADD59O,1.8000X0.9000*%
%ADD60R,1.8000X1.8000*%
%ADD61C,1.8000*%
%ADD62C,0.8500*%
%ADD63C,0.6096*%
G36*
X303457Y328559D02*
X304067Y328457D01*
X304536Y328332D01*
X304859Y328200D01*
X305041Y328090D01*
X305111Y328026D01*
X305122Y328009D01*
Y321322D01*
Y312178D01*
Y298462D01*
X307019D01*
X307068Y298342D01*
X307149Y298036D01*
X307219Y297616D01*
X307245Y297320D01*
Y271000D01*
X307248Y270981D01*
X307250Y266792D01*
X306130Y266193D01*
X305949Y266314D01*
X303500Y266801D01*
X301050Y266314D01*
X298974Y264926D01*
X297586Y262849D01*
X297099Y260400D01*
X297443Y258668D01*
X296801Y257886D01*
X295399Y257975D01*
X295229Y258229D01*
X293633Y259296D01*
X291750Y259671D01*
X289867Y259296D01*
X288271Y258229D01*
X287204Y256633D01*
X286829Y254750D01*
X287204Y252867D01*
X288271Y251271D01*
X289867Y250204D01*
X291750Y249830D01*
X291960Y249871D01*
X292015Y249859D01*
X292097Y249832D01*
X292189Y249793D01*
X292293Y249739D01*
X292409Y249666D01*
X292523Y249583D01*
X294362Y247743D01*
X294374Y247663D01*
X294094Y246215D01*
X293776Y245981D01*
X287170Y239375D01*
X286897Y239557D01*
X285014Y239932D01*
X283131Y239557D01*
X281535Y238491D01*
X280468Y236894D01*
X280093Y235012D01*
X280468Y233129D01*
X280650Y232855D01*
X279162Y231367D01*
X284523Y226005D01*
X284521Y225979D01*
X283454Y224383D01*
X283173Y222969D01*
X282749Y222359D01*
X281886Y221990D01*
X279823Y221955D01*
X271099Y230680D01*
Y238250D01*
X271099Y238250D01*
X270882Y239340D01*
X270264Y240264D01*
X260014Y250514D01*
X259090Y251132D01*
X258000Y251349D01*
X258000Y251349D01*
X248440D01*
Y257540D01*
X247678D01*
Y269460D01*
X248440D01*
Y273139D01*
X249710Y273803D01*
X249820Y273729D01*
X249876Y273666D01*
X250206Y273194D01*
X250167Y273000D01*
X250222Y272725D01*
Y266222D01*
X263778D01*
Y277778D01*
Y282222D01*
Y293778D01*
X264565Y294722D01*
X270778D01*
Y299632D01*
X271050Y301000D01*
Y305219D01*
X271058Y305464D01*
X271177Y306872D01*
X271788D01*
Y307731D01*
X271833Y307741D01*
X273690Y307885D01*
X274960Y306849D01*
Y304270D01*
X280000D01*
X285040D01*
Y308540D01*
X284278D01*
Y310487D01*
X284666Y311068D01*
X285050Y313000D01*
X285050Y318960D01*
X288730D01*
Y324000D01*
X290000D01*
Y325270D01*
X295540D01*
Y327428D01*
X296810Y328316D01*
X298000Y328079D01*
X299883Y328454D01*
X300098Y328597D01*
X303016D01*
X303457Y328559D01*
D02*
G37*
G36*
X306931Y333229D02*
X306961Y327920D01*
X306907Y328403D01*
X306752Y328834D01*
X306495Y329215D01*
X306136Y329546D01*
X305676Y329825D01*
X305114Y330054D01*
X304451Y330231D01*
X303686Y330358D01*
X302819Y330435D01*
X301850Y330460D01*
Y335540D01*
X306931Y333229D01*
D02*
G37*
G36*
X141061Y322254D02*
X141030Y322544D01*
X140938Y322803D01*
X140784Y323031D01*
X140569Y323229D01*
X140292Y323397D01*
X139953Y323534D01*
X139553Y323641D01*
X139091Y323717D01*
X138567Y323763D01*
X137983Y323778D01*
Y326826D01*
X138567Y326841D01*
X139091Y326887D01*
X139553Y326963D01*
X139953Y327070D01*
X140292Y327207D01*
X140569Y327375D01*
X140784Y327573D01*
X140938Y327801D01*
X141030Y328060D01*
X141061Y328350D01*
Y322254D01*
D02*
G37*
G36*
X110237Y323082D02*
X110010Y322846D01*
X109627Y322394D01*
X109472Y322179D01*
X109341Y321970D01*
X109234Y321768D01*
X109151Y321574D01*
X109093Y321386D01*
X109058Y321205D01*
X109048Y321031D01*
X106031Y324048D01*
X106205Y324058D01*
X106386Y324093D01*
X106574Y324151D01*
X106768Y324234D01*
X106970Y324341D01*
X107179Y324472D01*
X107394Y324627D01*
X107617Y324806D01*
X108082Y325237D01*
X110237Y323082D01*
D02*
G37*
G36*
X164975Y327342D02*
X165082Y327174D01*
X165260Y327025D01*
X165509Y326897D01*
X165829Y326787D01*
X166221Y326698D01*
X166684Y326629D01*
X167218Y326580D01*
X168500Y326540D01*
Y321460D01*
X167824Y321450D01*
X166684Y321371D01*
X166221Y321301D01*
X165829Y321212D01*
X165509Y321103D01*
X165260Y320975D01*
X165082Y320826D01*
X164975Y320658D01*
X164939Y320469D01*
Y327530D01*
X164975Y327342D01*
D02*
G37*
G36*
X84033Y327628D02*
X84223Y327323D01*
X84541Y327054D01*
X84985Y326821D01*
X85557Y326623D01*
X86255Y326462D01*
X87081Y326336D01*
X88033Y326247D01*
X90319Y326175D01*
Y319825D01*
X89113Y319807D01*
X87081Y319663D01*
X86255Y319538D01*
X85557Y319376D01*
X84985Y319179D01*
X84541Y318946D01*
X84223Y318676D01*
X84033Y318371D01*
X83969Y318030D01*
Y327969D01*
X84033Y327628D01*
D02*
G37*
G36*
X174520Y323888D02*
X174673Y323815D01*
X174927Y323750D01*
X175282Y323695D01*
X175739Y323647D01*
X177721Y323557D01*
X179550Y323540D01*
Y319161D01*
X182866Y322796D01*
X185771Y320189D01*
X183061Y315119D01*
X183043Y315193D01*
X182949Y315338D01*
X182779Y315553D01*
X182207Y316196D01*
X179550Y318925D01*
Y318460D01*
X178584Y318456D01*
X174673Y318185D01*
X174520Y318112D01*
X174470Y318030D01*
Y323969D01*
X174520Y323888D01*
D02*
G37*
G36*
X189759Y309780D02*
X189500Y309688D01*
X189271Y309534D01*
X189073Y309318D01*
X188905Y309041D01*
X188768Y308703D01*
X188661Y308302D01*
X188585Y307841D01*
X188540Y307317D01*
X188524Y306733D01*
X185476D01*
X185461Y307317D01*
X185415Y307841D01*
X185339Y308302D01*
X185232Y308703D01*
X185095Y309041D01*
X184928Y309318D01*
X184729Y309534D01*
X184501Y309688D01*
X184242Y309780D01*
X183952Y309811D01*
X190048D01*
X189759Y309780D01*
D02*
G37*
G36*
X245039Y308660D02*
X244866Y308599D01*
X244714Y308498D01*
X244582Y308355D01*
X244470Y308172D01*
X244379Y307949D01*
X244307Y307685D01*
X244257Y307380D01*
X244226Y307034D01*
X244216Y306648D01*
X242184D01*
X242174Y307034D01*
X242143Y307380D01*
X242093Y307685D01*
X242021Y307949D01*
X241930Y308172D01*
X241818Y308355D01*
X241686Y308498D01*
X241534Y308599D01*
X241361Y308660D01*
X241168Y308680D01*
X245232D01*
X245039Y308660D01*
D02*
G37*
G36*
X174357Y311219D02*
X174341Y310996D01*
X174392Y310734D01*
X174511Y310433D01*
X174696Y310093D01*
X174948Y309714D01*
X175267Y309297D01*
X176105Y308346D01*
X176625Y307812D01*
X174970Y306594D01*
X174528Y307021D01*
X173747Y307689D01*
X173409Y307930D01*
X173104Y308108D01*
X172834Y308223D01*
X172598Y308276D01*
X172396Y308267D01*
X172229Y308195D01*
X172096Y308061D01*
X174439Y311404D01*
X174357Y311219D01*
D02*
G37*
G36*
X141969Y307530D02*
X141940Y307510D01*
X141914Y307449D01*
X141891Y307348D01*
X141871Y307205D01*
X141841Y306799D01*
X141816Y305498D01*
X139784D01*
X139774Y305889D01*
X139743Y306238D01*
X139693Y306546D01*
X139621Y306814D01*
X139530Y307041D01*
X139418Y307226D01*
X139286Y307371D01*
X139134Y307475D01*
X138961Y307539D01*
X138768Y307561D01*
X141969Y307530D01*
D02*
G37*
G36*
X131888Y307480D02*
X131815Y307327D01*
X131750Y307073D01*
X131695Y306718D01*
X131647Y306260D01*
X131557Y304279D01*
X131540Y302450D01*
X126460D01*
X126456Y303416D01*
X126185Y307327D01*
X126112Y307480D01*
X126031Y307530D01*
X131969D01*
X131888Y307480D01*
D02*
G37*
G36*
X223021Y304015D02*
X223089Y303101D01*
X223130Y302878D01*
X223179Y302695D01*
X223239Y302552D01*
X223307Y302451D01*
X223384Y302390D01*
X223470Y302369D01*
X220531D01*
X220617Y302390D01*
X220694Y302451D01*
X220762Y302552D01*
X220821Y302695D01*
X220871Y302878D01*
X220912Y303101D01*
X220943Y303365D01*
X220980Y304015D01*
X220984Y304401D01*
X223016D01*
X223021Y304015D01*
D02*
G37*
G36*
X203021D02*
X203089Y303101D01*
X203130Y302878D01*
X203179Y302695D01*
X203239Y302552D01*
X203307Y302451D01*
X203384Y302390D01*
X203470Y302369D01*
X200531D01*
X200617Y302390D01*
X200694Y302451D01*
X200762Y302552D01*
X200821Y302695D01*
X200871Y302878D01*
X200912Y303101D01*
X200943Y303365D01*
X200980Y304015D01*
X200984Y304401D01*
X203016D01*
X203021Y304015D01*
D02*
G37*
G36*
X178021D02*
X178089Y303101D01*
X178130Y302878D01*
X178179Y302695D01*
X178239Y302552D01*
X178307Y302451D01*
X178384Y302390D01*
X178470Y302369D01*
X175531D01*
X175617Y302390D01*
X175694Y302451D01*
X175762Y302552D01*
X175821Y302695D01*
X175871Y302878D01*
X175912Y303101D01*
X175943Y303365D01*
X175980Y304015D01*
X175984Y304401D01*
X178016D01*
X178021Y304015D01*
D02*
G37*
G36*
X163021D02*
X163089Y303101D01*
X163130Y302878D01*
X163179Y302695D01*
X163239Y302552D01*
X163307Y302451D01*
X163384Y302390D01*
X163470Y302369D01*
X160531D01*
X160617Y302390D01*
X160694Y302451D01*
X160762Y302552D01*
X160821Y302695D01*
X160871Y302878D01*
X160912Y303101D01*
X160943Y303365D01*
X160980Y304015D01*
X160984Y304401D01*
X163016D01*
X163021Y304015D01*
D02*
G37*
G36*
X141826D02*
X141857Y303670D01*
X141907Y303365D01*
X141979Y303101D01*
X142070Y302878D01*
X142182Y302695D01*
X142314Y302552D01*
X142466Y302451D01*
X142639Y302390D01*
X142832Y302369D01*
X138768D01*
X138961Y302390D01*
X139134Y302451D01*
X139286Y302552D01*
X139418Y302695D01*
X139530Y302878D01*
X139621Y303101D01*
X139693Y303365D01*
X139743Y303670D01*
X139774Y304015D01*
X139784Y304401D01*
X141816D01*
X141826Y304015D01*
D02*
G37*
G36*
X244226Y304010D02*
X244257Y303659D01*
X244307Y303350D01*
X244379Y303081D01*
X244470Y302855D01*
X244582Y302669D01*
X244714Y302525D01*
X244866Y302421D01*
X245039Y302360D01*
X245232Y302339D01*
X241168D01*
X241361Y302360D01*
X241534Y302421D01*
X241686Y302525D01*
X241818Y302669D01*
X241930Y302855D01*
X242021Y303081D01*
X242093Y303350D01*
X242143Y303659D01*
X242174Y304010D01*
X242184Y304401D01*
X244216D01*
X244226Y304010D01*
D02*
G37*
G36*
X270014Y318747D02*
X270207Y318207D01*
X270527Y317731D01*
X270974Y317318D01*
X271549Y316969D01*
X272250Y316683D01*
X273079Y316461D01*
X274035Y316302D01*
X275119Y316207D01*
X276329Y316175D01*
Y309825D01*
X275123Y309814D01*
X271567Y309539D01*
X270995Y309413D01*
X270551Y309264D01*
X270233Y309093D01*
X270043Y308898D01*
X269979Y308680D01*
X269827Y308617D01*
X269690Y308426D01*
X269569Y308109D01*
X269465Y307664D01*
X269376Y307093D01*
X269247Y305569D01*
X269183Y303537D01*
X269175Y302330D01*
X262825D01*
X262796Y303537D01*
X262707Y304616D01*
X262560Y305569D01*
X262354Y306394D01*
X262089Y307093D01*
X261765Y307664D01*
X261382Y308109D01*
X260940Y308426D01*
X260440Y308617D01*
X259880Y308680D01*
X269979D01*
X269949Y319350D01*
X270014Y318747D01*
D02*
G37*
G36*
X70969Y299952D02*
X70729Y299943D01*
X70489Y299912D01*
X70252Y299858D01*
X70017Y299781D01*
X69784Y299682D01*
X69552Y299561D01*
X69323Y299417D01*
X69095Y299250D01*
X68869Y299061D01*
X68645Y298849D01*
X66849Y300645D01*
X67061Y300869D01*
X67250Y301095D01*
X67417Y301323D01*
X67561Y301552D01*
X67682Y301784D01*
X67781Y302017D01*
X67858Y302252D01*
X67912Y302489D01*
X67943Y302729D01*
X67952Y302969D01*
X70969Y299952D01*
D02*
G37*
G36*
X245860Y301539D02*
X245921Y301366D01*
X246025Y301214D01*
X246169Y301082D01*
X246355Y300970D01*
X246581Y300879D01*
X246850Y300807D01*
X247159Y300757D01*
X247510Y300726D01*
X247901Y300716D01*
Y298684D01*
X247510Y298674D01*
X247159Y298643D01*
X246850Y298592D01*
X246581Y298521D01*
X246355Y298430D01*
X246169Y298318D01*
X246025Y298186D01*
X245921Y298034D01*
X245860Y297861D01*
X245839Y297668D01*
Y301732D01*
X245860Y301539D01*
D02*
G37*
G36*
X258072Y323128D02*
Y308702D01*
X258067Y308680D01*
X258072Y308659D01*
Y306872D01*
X258202Y304198D01*
X257326Y303278D01*
X251222D01*
Y298751D01*
X251156Y298658D01*
X250533Y297928D01*
X249710Y297105D01*
X248440Y297477D01*
Y304940D01*
X248440D01*
X248682Y306110D01*
X249620D01*
Y313730D01*
X234380D01*
Y306110D01*
X234274Y304178D01*
X226040D01*
Y304940D01*
X217960D01*
Y304178D01*
X206040D01*
Y304940D01*
X197960D01*
Y304178D01*
X190367D01*
Y307406D01*
X190385Y307614D01*
X190436Y307921D01*
X190449Y307972D01*
X192778D01*
Y322028D01*
X186436D01*
X184798Y323498D01*
X184183Y324113D01*
X182755Y325067D01*
X181070Y325403D01*
X177046D01*
X176278Y325438D01*
Y325778D01*
X174491D01*
X174470Y325782D01*
X174448Y325778D01*
X172948D01*
X171613Y327113D01*
X170185Y328067D01*
X168500Y328402D01*
X167193D01*
X166902Y328429D01*
X166778Y328448D01*
Y330778D01*
X155222D01*
Y317222D01*
X165972D01*
X166873Y316600D01*
X166960Y316027D01*
Y312270D01*
X172000D01*
Y309730D01*
X166960D01*
Y305786D01*
X166196Y305083D01*
X165905Y304940D01*
X157960D01*
Y304178D01*
X146040D01*
Y304940D01*
X145802D01*
X144540Y304960D01*
Y308730D01*
X139000D01*
Y310000D01*
X137730D01*
Y315040D01*
X133460D01*
Y314278D01*
X124222D01*
Y314050D01*
X121040D01*
Y317730D01*
X116000D01*
Y320270D01*
X121040D01*
Y321935D01*
X138656D01*
X138864Y321917D01*
X139171Y321866D01*
X139222Y321853D01*
Y317222D01*
X150778D01*
Y330778D01*
X139222D01*
Y328751D01*
X139171Y328737D01*
X138864Y328687D01*
X138656Y328669D01*
X110302D01*
X109014Y328412D01*
X107921Y327683D01*
X106363Y326125D01*
X106295Y326069D01*
X106166Y325977D01*
X106062Y325912D01*
X106058Y325909D01*
X106000Y325920D01*
X104117Y325546D01*
X102521Y324479D01*
X101454Y322883D01*
X101319Y322202D01*
X99941Y321784D01*
X95154Y326571D01*
X93516Y327665D01*
X91583Y328050D01*
X88367D01*
X88147Y328057D01*
X87303Y328136D01*
X86596Y328244D01*
X86058Y328368D01*
X85778Y328465D01*
Y329778D01*
X83991D01*
X83969Y329782D01*
X83947Y329778D01*
X74222D01*
Y316222D01*
X83947D01*
X83969Y316217D01*
X83991Y316222D01*
X85778D01*
Y317535D01*
X86058Y317631D01*
X86596Y317756D01*
X87281Y317860D01*
X88551Y317950D01*
X89491D01*
X102012Y305429D01*
X103650Y304334D01*
X105583Y303950D01*
X124597D01*
Y300754D01*
X123632Y299788D01*
X114872D01*
Y286072D01*
X131128D01*
Y287520D01*
X131343Y287556D01*
X131876Y287597D01*
X133000D01*
X134685Y287932D01*
X135052Y288178D01*
X136322Y287499D01*
Y272540D01*
X135560D01*
Y264460D01*
X136322D01*
Y252540D01*
X135560D01*
Y244460D01*
X136322D01*
Y241608D01*
X124787D01*
X118419Y247976D01*
X118336Y248089D01*
X118264Y248205D01*
X118210Y248307D01*
X118172Y248399D01*
X118146Y248480D01*
X118132Y248540D01*
X118176Y248762D01*
X117802Y250645D01*
X116735Y252241D01*
X115139Y253308D01*
X113256Y253683D01*
X111372Y253308D01*
X109776Y252241D01*
X108709Y250645D01*
X108548Y249833D01*
X107278Y249958D01*
Y251952D01*
X107278Y252778D01*
X107278Y252778D01*
Y253222D01*
X107278D01*
X107278Y254048D01*
Y257374D01*
X107403Y258000D01*
Y260580D01*
X107337Y260910D01*
X107334Y261026D01*
X107342Y261330D01*
X107323Y261378D01*
X107322Y261428D01*
X107285Y261590D01*
X107278Y261605D01*
Y262778D01*
X107200D01*
Y274580D01*
X94580D01*
X94580Y274580D01*
X94580Y274580D01*
X93326Y274580D01*
X56358D01*
Y283963D01*
X70227Y297832D01*
X70341Y297916D01*
X70457Y297988D01*
X70560Y298043D01*
X70652Y298082D01*
X70735Y298108D01*
X70790Y298121D01*
X71000Y298079D01*
X72883Y298454D01*
X74479Y299520D01*
X75546Y301117D01*
X75920Y303000D01*
X75546Y304883D01*
X74479Y306479D01*
X72883Y307546D01*
X71000Y307920D01*
X69117Y307546D01*
X67520Y306479D01*
X66454Y304883D01*
X66079Y303000D01*
X66121Y302790D01*
X66108Y302735D01*
X66082Y302652D01*
X66043Y302560D01*
X65988Y302457D01*
X65916Y302341D01*
X65832Y302227D01*
X51052Y287447D01*
X50379Y286439D01*
X50315Y286117D01*
X48903Y285532D01*
X48883Y285546D01*
X47000Y285921D01*
X45117Y285546D01*
X43521Y284479D01*
X43360Y284239D01*
X42712Y284110D01*
X41620Y283381D01*
X31068Y272829D01*
X30487Y272286D01*
X30016Y271904D01*
X29839Y271778D01*
X22222D01*
Y258222D01*
X33778D01*
Y258222D01*
X38222Y258222D01*
X38222Y255778D01*
Y242222D01*
X49778D01*
Y255778D01*
X47128D01*
X47121Y255824D01*
X47108Y255969D01*
Y258031D01*
X47121Y258176D01*
X47128Y258222D01*
X49778D01*
Y266161D01*
X49827Y266246D01*
X50011Y266512D01*
X55420D01*
X55420Y248690D01*
X55420Y247420D01*
X55420Y247420D01*
X56690Y247420D01*
X94580D01*
X98722Y247420D01*
Y245052D01*
X98718Y245030D01*
X98722Y245009D01*
Y244951D01*
X98720Y244937D01*
X98722Y244930D01*
Y243222D01*
X98835D01*
X98939Y242924D01*
X99168Y241952D01*
X98454Y240883D01*
X98080Y239000D01*
X98454Y237117D01*
X99521Y235521D01*
X101117Y234454D01*
X103000Y234079D01*
X104883Y234454D01*
X105569Y234912D01*
X106712Y234148D01*
X106585Y233511D01*
X106959Y231628D01*
X108026Y230032D01*
X109622Y228965D01*
X111505Y228591D01*
X113388Y228965D01*
X114985Y230032D01*
X115104Y230210D01*
X115152Y230240D01*
X115229Y230279D01*
X115321Y230317D01*
X115433Y230352D01*
X115566Y230382D01*
X115706Y230404D01*
X136322D01*
Y227540D01*
X135560D01*
Y219460D01*
X136322D01*
Y215222D01*
Y202540D01*
X135560D01*
Y196500D01*
X131141D01*
X129627Y198014D01*
X128703Y198631D01*
X127944Y198782D01*
X127479Y199479D01*
X125883Y200546D01*
X124000Y200920D01*
X122117Y200546D01*
X120520Y199479D01*
X119454Y197883D01*
X119079Y196000D01*
X119454Y194117D01*
X120520Y192520D01*
X122117Y191454D01*
X124000Y191079D01*
X125883Y191454D01*
X127230Y192354D01*
X133098Y186486D01*
X134022Y185868D01*
X135112Y185651D01*
X135560Y184540D01*
Y181750D01*
X132771D01*
X132546Y182883D01*
X131479Y184479D01*
X129883Y185546D01*
X128000Y185920D01*
X126117Y185546D01*
X124520Y184479D01*
X124398Y184296D01*
X115117Y177546D01*
X113521Y176479D01*
X112454Y174883D01*
X112079Y173000D01*
X112454Y171117D01*
X113521Y169521D01*
X115117Y168454D01*
X117000Y168079D01*
X118883Y168454D01*
X120479Y169521D01*
X120842Y170063D01*
X120923Y170133D01*
X121005Y170238D01*
X121024Y170257D01*
X121046Y170274D01*
X121078Y170294D01*
X121126Y170318D01*
X121198Y170345D01*
X121297Y170371D01*
X121416Y170392D01*
X135560D01*
Y166608D01*
X114177D01*
X114045Y166630D01*
X113925Y166659D01*
X113830Y166691D01*
X113754Y166725D01*
X113694Y166758D01*
X113647Y166791D01*
X113604Y166828D01*
X113558Y166877D01*
X113355Y167180D01*
X111759Y168247D01*
X109876Y168621D01*
X107993Y168247D01*
X106396Y167180D01*
X105330Y165584D01*
X105323Y165550D01*
X100660Y156889D01*
X100100Y155851D01*
X99454Y154883D01*
X99447Y154851D01*
X99079Y153000D01*
X99454Y151117D01*
X100520Y149520D01*
X102117Y148454D01*
X104000Y148079D01*
X105883Y148454D01*
X107479Y149520D01*
X107598Y149698D01*
X107646Y149729D01*
X107723Y149768D01*
X107816Y149805D01*
X107927Y149840D01*
X108061Y149870D01*
X108200Y149892D01*
X115000D01*
X116189Y150128D01*
X116329Y150222D01*
X124778D01*
X124960Y149027D01*
Y146973D01*
X124778Y145778D01*
X123690Y145778D01*
X111222D01*
Y134222D01*
X120226D01*
X120399Y134101D01*
X121100Y133505D01*
X123155Y131450D01*
X123380Y131201D01*
X123485Y131070D01*
X124520Y129520D01*
X126117Y128454D01*
X128000Y128079D01*
X129883Y128454D01*
X131479Y129520D01*
X132546Y131117D01*
X132920Y133000D01*
X132546Y134883D01*
X131479Y136479D01*
X129883Y137546D01*
X128000Y137920D01*
X126117Y137546D01*
X125956Y137439D01*
X125602Y137793D01*
X125197Y138228D01*
X124913Y138581D01*
X124778Y138774D01*
Y139265D01*
X124960Y140460D01*
X126048Y140460D01*
X128730D01*
Y146000D01*
X131270D01*
Y144620D01*
X132094Y146088D01*
X130096Y148939D01*
X130229Y148805D01*
X130396Y148733D01*
X130598Y148724D01*
X130834Y148777D01*
X131104Y148892D01*
X131409Y149070D01*
X131747Y149311D01*
X132120Y149614D01*
X132970Y150406D01*
X133906Y148470D01*
X133523Y148072D01*
X132915Y147351D01*
X132689Y147027D01*
X132516Y146728D01*
X132396Y146453D01*
X132341Y146251D01*
X132359Y146067D01*
X132431Y145812D01*
X132553Y145535D01*
X132725Y145237D01*
X132946Y144918D01*
X133216Y144577D01*
X133537Y144214D01*
X133906Y143830D01*
X133270Y141594D01*
X132815Y142035D01*
X132016Y142720D01*
X131673Y142965D01*
X131367Y143145D01*
X131270Y143186D01*
Y140460D01*
X135040D01*
X135560Y139405D01*
Y137060D01*
X146040D01*
Y137822D01*
X157960D01*
Y137060D01*
X166040D01*
Y137822D01*
X177960D01*
Y137060D01*
X178529D01*
X178788Y137131D01*
X179038Y137227D01*
X179278Y137348D01*
X179509Y137493D01*
X179730Y137663D01*
X179941Y137857D01*
X181192Y136234D01*
X181003Y136031D01*
X180830Y135816D01*
X180673Y135589D01*
X180533Y135350D01*
X180408Y135098D01*
X180300Y134835D01*
X180208Y134560D01*
X180132Y134273D01*
X180073Y133973D01*
X180029Y133662D01*
X180000Y133699D01*
Y116000D01*
X109000Y116000D01*
Y146000D01*
X3108D01*
Y158132D01*
X4263Y158427D01*
X4378Y158415D01*
X5479Y156979D01*
X6950Y155851D01*
X8662Y155141D01*
X10500Y154899D01*
X13730D01*
Y162000D01*
Y169101D01*
X10500D01*
X8662Y168859D01*
X6950Y168149D01*
X5479Y167021D01*
X4378Y165585D01*
X4263Y165573D01*
X3108Y165868D01*
Y224132D01*
X4263Y224427D01*
X4378Y224414D01*
X5479Y222979D01*
X6950Y221850D01*
X8662Y221141D01*
X10500Y220899D01*
X13730D01*
Y228000D01*
Y235101D01*
X10500D01*
X8662Y234859D01*
X6950Y234149D01*
X5479Y233021D01*
X4378Y231585D01*
X4263Y231573D01*
X3108Y231868D01*
Y290460D01*
X11730D01*
Y302000D01*
Y313540D01*
X3108D01*
Y320501D01*
X4378Y320932D01*
X5313Y319713D01*
X7564Y317986D01*
X10186Y316900D01*
X13000Y316529D01*
X15814Y316900D01*
X18435Y317986D01*
X20687Y319713D01*
X22415Y321965D01*
X23501Y324586D01*
X23871Y327400D01*
X23501Y330214D01*
X22415Y332836D01*
X20687Y335087D01*
X19990Y335622D01*
X20421Y336892D01*
X258002D01*
X258072Y323128D01*
D02*
G37*
G36*
X257122Y296561D02*
X256905Y296679D01*
X256657Y296731D01*
X256376Y296715D01*
X256065Y296633D01*
X255721Y296484D01*
X255346Y296268D01*
X254940Y295985D01*
X254501Y295635D01*
X253530Y294734D01*
X251234Y296031D01*
X251763Y296576D01*
X252589Y297544D01*
X252887Y297965D01*
X253108Y298345D01*
X253252Y298684D01*
X253319Y298981D01*
X253310Y299236D01*
X253224Y299450D01*
X253061Y299623D01*
X257122Y296561D01*
D02*
G37*
G36*
X314448Y300263D02*
X314124Y300147D01*
X313838Y299955D01*
X313591Y299687D01*
X313381Y299341D01*
X313210Y298918D01*
X313076Y298419D01*
X312981Y297843D01*
X312924Y297190D01*
X312905Y296460D01*
X309095D01*
X309076Y297190D01*
X309019Y297843D01*
X308923Y298419D01*
X308790Y298918D01*
X308619Y299341D01*
X308409Y299687D01*
X308162Y299955D01*
X307876Y300147D01*
X307552Y300263D01*
X307190Y300301D01*
X314810D01*
X314448Y300263D01*
D02*
G37*
G36*
X173432Y297005D02*
X173398Y296929D01*
X173368Y296802D01*
X173342Y296624D01*
X173302Y296116D01*
X173270Y294491D01*
X170730D01*
X170728Y294973D01*
X170603Y296929D01*
X170569Y297005D01*
X170531Y297031D01*
X173470D01*
X173432Y297005D01*
D02*
G37*
G36*
X168500Y294482D02*
X168507Y294156D01*
X168557Y293567D01*
X168602Y293305D01*
X168659Y293063D01*
X168728Y292843D01*
X168811Y292645D01*
X168906Y292467D01*
X169013Y292311D01*
X169134Y292176D01*
X164867Y292177D01*
X164987Y292312D01*
X165095Y292468D01*
X165190Y292645D01*
X165272Y292844D01*
X165342Y293064D01*
X165399Y293305D01*
X165443Y293567D01*
X165475Y293851D01*
X165500Y294482D01*
X168500Y294482D01*
D02*
G37*
G36*
X176823Y289866D02*
X176647Y290030D01*
X176455Y290177D01*
X176250Y290307D01*
X176029Y290419D01*
X175794Y290514D01*
X175545Y290592D01*
X175280Y290652D01*
X175002Y290695D01*
X174708Y290721D01*
X174400Y290730D01*
Y293270D01*
X174708Y293279D01*
X175002Y293305D01*
X175280Y293348D01*
X175545Y293408D01*
X175794Y293486D01*
X176029Y293581D01*
X176250Y293693D01*
X176455Y293823D01*
X176647Y293969D01*
X176823Y294134D01*
Y289866D01*
D02*
G37*
G36*
X252501Y293307D02*
X253693Y292300D01*
X254018Y292087D01*
X254305Y291935D01*
X254557Y291844D01*
X254771Y291815D01*
X254950Y291846D01*
X255091Y291939D01*
X252061Y288909D01*
X252154Y289050D01*
X252185Y289228D01*
X252156Y289443D01*
X252065Y289695D01*
X251913Y289982D01*
X251700Y290307D01*
X251425Y290668D01*
X250693Y291499D01*
X250234Y291970D01*
X252031Y293766D01*
X252501Y293307D01*
D02*
G37*
G36*
X129356Y295464D02*
X129467Y295270D01*
X129651Y295099D01*
X129909Y294951D01*
X130240Y294825D01*
X130645Y294722D01*
X131123Y294643D01*
X131675Y294586D01*
X133000Y294540D01*
Y289460D01*
X132301Y289449D01*
X131123Y289357D01*
X130645Y289278D01*
X130240Y289175D01*
X129909Y289049D01*
X129651Y288901D01*
X129467Y288730D01*
X129356Y288536D01*
X129320Y288320D01*
Y295680D01*
X129356Y295464D01*
D02*
G37*
G36*
X245886Y289883D02*
X245935Y289806D01*
X246016Y289738D01*
X246130Y289679D01*
X246277Y289629D01*
X246457Y289589D01*
X246668Y289557D01*
X246913Y289534D01*
X247500Y289516D01*
Y287484D01*
X247190Y287479D01*
X246668Y287443D01*
X246457Y287411D01*
X246277Y287371D01*
X246130Y287321D01*
X246016Y287262D01*
X245935Y287194D01*
X245886Y287117D01*
X245870Y287031D01*
Y289970D01*
X245886Y289883D01*
D02*
G37*
G36*
X44857Y278832D02*
X44762Y278902D01*
X44650Y278938D01*
X44522Y278940D01*
X44377Y278909D01*
X44217Y278844D01*
X44040Y278746D01*
X43847Y278614D01*
X43638Y278448D01*
X43413Y278249D01*
X43171Y278016D01*
X41582Y280737D01*
X44525Y282778D01*
X44857Y278832D01*
D02*
G37*
G36*
X252450Y277001D02*
X253201Y276363D01*
X253532Y276130D01*
X253834Y275954D01*
X254107Y275836D01*
X254350Y275776D01*
X254564Y275773D01*
X254749Y275827D01*
X254904Y275939D01*
X252061Y273096D01*
X252173Y273251D01*
X252227Y273436D01*
X252224Y273650D01*
X252164Y273893D01*
X252046Y274166D01*
X251870Y274468D01*
X251637Y274799D01*
X251347Y275160D01*
X250594Y275970D01*
X252031Y277406D01*
X252450Y277001D01*
D02*
G37*
G36*
X49766Y268969D02*
X49304Y268490D01*
X48567Y267612D01*
X48292Y267213D01*
X48078Y266841D01*
X47927Y266495D01*
X47837Y266175D01*
X47809Y265883D01*
X47843Y265617D01*
X47939Y265377D01*
X45377Y269939D01*
X45528Y269754D01*
X45724Y269650D01*
X45967Y269629D01*
X46257Y269688D01*
X46593Y269830D01*
X46975Y270054D01*
X47404Y270359D01*
X47880Y270746D01*
X48970Y271765D01*
X49766Y268969D01*
D02*
G37*
G36*
X34125Y268969D02*
X33563Y268386D01*
X32668Y267321D01*
X32335Y266840D01*
X32078Y266392D01*
X31898Y265978D01*
X31794Y265597D01*
X31766Y265251D01*
X31814Y264938D01*
X31939Y264659D01*
X28659Y269939D01*
X28849Y269725D01*
X29092Y269607D01*
X29389Y269585D01*
X29740Y269660D01*
X30144Y269830D01*
X30602Y270097D01*
X31113Y270459D01*
X31678Y270918D01*
X32970Y272125D01*
X34125Y268969D01*
D02*
G37*
G36*
X314618Y270080D02*
X315560Y269250D01*
X315691Y269161D01*
X315803Y269098D01*
X315896Y269060D01*
X315970Y269048D01*
X312952Y266031D01*
X312940Y266104D01*
X312902Y266197D01*
X312839Y266309D01*
X312750Y266440D01*
X312635Y266590D01*
X312329Y266948D01*
X311677Y267629D01*
X314371Y270323D01*
X314618Y270080D01*
D02*
G37*
G36*
X46299Y260005D02*
X46083Y259929D01*
X45893Y259802D01*
X45727Y259624D01*
X45588Y259395D01*
X45473Y259116D01*
X45384Y258786D01*
X45321Y258405D01*
X45283Y257973D01*
X45270Y257490D01*
X42730D01*
X42717Y257973D01*
X42679Y258405D01*
X42616Y258786D01*
X42527Y259116D01*
X42413Y259395D01*
X42273Y259624D01*
X42108Y259802D01*
X41917Y259929D01*
X41701Y260005D01*
X41460Y260030D01*
X46540D01*
X46299Y260005D01*
D02*
G37*
G36*
X101831Y265334D02*
X105518Y261185D01*
X105555Y261023D01*
X105470Y260970D01*
X100531Y255865D01*
X100813Y256266D01*
X100952Y256737D01*
X100949Y257279D01*
X100804Y257891D01*
X100516Y258574D01*
X100085Y259328D01*
X99512Y260152D01*
X98797Y261047D01*
X96938Y263050D01*
X100814Y266358D01*
X101831Y265334D01*
D02*
G37*
G36*
X45283Y256027D02*
X45321Y255595D01*
X45384Y255214D01*
X45473Y254884D01*
X45588Y254604D01*
X45727Y254376D01*
X45893Y254198D01*
X46083Y254071D01*
X46299Y253995D01*
X46540Y253969D01*
X41460D01*
X41701Y253995D01*
X41917Y254071D01*
X42108Y254198D01*
X42273Y254376D01*
X42413Y254604D01*
X42527Y254884D01*
X42616Y255214D01*
X42679Y255595D01*
X42717Y256027D01*
X42730Y256509D01*
X45270D01*
X45283Y256027D01*
D02*
G37*
G36*
X294807Y254479D02*
X294838Y254240D01*
X294892Y254002D01*
X294968Y253767D01*
X295067Y253534D01*
X295189Y253302D01*
X295333Y253073D01*
X295500Y252845D01*
X295689Y252619D01*
X295900Y252396D01*
X294104Y250600D01*
X293881Y250811D01*
X293655Y251000D01*
X293427Y251167D01*
X293197Y251311D01*
X292966Y251433D01*
X292733Y251532D01*
X292498Y251608D01*
X292260Y251662D01*
X292021Y251693D01*
X291780Y251702D01*
X294798Y254720D01*
X294807Y254479D01*
D02*
G37*
G36*
X369134Y249809D02*
X367779Y250121D01*
X365332Y250484D01*
X364242Y250535D01*
X363239Y250498D01*
X362325Y250375D01*
X361499Y250163D01*
X360762Y249865D01*
X360113Y249479D01*
X359552Y249006D01*
X358198Y251244D01*
X358518Y251633D01*
X358849Y252169D01*
X359189Y252853D01*
X359540Y253685D01*
X360273Y255790D01*
X361047Y258486D01*
X361861Y261772D01*
X369134Y249809D01*
D02*
G37*
G36*
X245890Y249883D02*
X245951Y249806D01*
X246052Y249738D01*
X246195Y249679D01*
X246378Y249629D01*
X246601Y249589D01*
X246865Y249557D01*
X247515Y249520D01*
X247901Y249516D01*
Y247484D01*
X247515Y247479D01*
X246601Y247411D01*
X246378Y247371D01*
X246195Y247321D01*
X246052Y247262D01*
X245951Y247194D01*
X245890Y247117D01*
X245870Y247031D01*
Y249970D01*
X245890Y249883D01*
D02*
G37*
G36*
X149970Y243952D02*
X149729Y243943D01*
X149490Y243912D01*
X149253Y243858D01*
X149017Y243782D01*
X148784Y243682D01*
X148553Y243561D01*
X148323Y243417D01*
X148095Y243250D01*
X147870Y243061D01*
X147646Y242850D01*
X146010Y244486D01*
Y242230D01*
X145527Y242228D01*
X143571Y242103D01*
X143495Y242069D01*
X143469Y242031D01*
Y244970D01*
X143495Y244932D01*
X143571Y244898D01*
X143698Y244868D01*
X143876Y244842D01*
X144384Y244802D01*
X145968Y244771D01*
X146061Y244869D01*
X146250Y245095D01*
X146417Y245323D01*
X146561Y245553D01*
X146683Y245784D01*
X146782Y246017D01*
X146858Y246252D01*
X146912Y246490D01*
X146943Y246729D01*
X146952Y246970D01*
X149970Y243952D01*
D02*
G37*
G36*
X116311Y248478D02*
X116342Y248239D01*
X116395Y248002D01*
X116471Y247767D01*
X116569Y247533D01*
X116690Y247302D01*
X116834Y247072D01*
X117001Y246845D01*
X117190Y246619D01*
X117401Y246395D01*
X115597Y244607D01*
X115373Y244819D01*
X115147Y245008D01*
X114920Y245175D01*
X114690Y245319D01*
X114459Y245441D01*
X114226Y245541D01*
X113990Y245618D01*
X113753Y245672D01*
X113514Y245704D01*
X113273Y245714D01*
X116303Y248719D01*
X116311Y248478D01*
D02*
G37*
G36*
X105362Y244992D02*
X105266Y244878D01*
X105182Y244688D01*
X105108Y244421D01*
X105046Y244078D01*
X104995Y243659D01*
X104928Y242592D01*
X104927Y242554D01*
X104987Y241609D01*
X105017Y241454D01*
X105051Y241330D01*
X105090Y241237D01*
X105134Y241177D01*
X100866D01*
X100910Y241237D01*
X100949Y241330D01*
X100983Y241454D01*
X101013Y241609D01*
X101038Y241797D01*
X101071Y242227D01*
X100954Y244078D01*
X100892Y244421D01*
X100818Y244688D01*
X100734Y244878D01*
X100638Y244992D01*
X100531Y245030D01*
X105470D01*
X105362Y244992D01*
D02*
G37*
G36*
X138131Y237031D02*
X138105Y237069D01*
X138029Y237103D01*
X137902Y237132D01*
X137724Y237158D01*
X137216Y237198D01*
X135590Y237230D01*
Y239770D01*
X136073Y239772D01*
X138029Y239898D01*
X138105Y239932D01*
X138131Y239970D01*
Y237031D01*
D02*
G37*
G36*
X287367Y236981D02*
X287558Y236834D01*
X287764Y236705D01*
X287985Y236592D01*
X288220Y236497D01*
X288469Y236420D01*
X288733Y236359D01*
X289012Y236316D01*
X289305Y236290D01*
X289613Y236282D01*
Y233741D01*
X289305Y233733D01*
X289012Y233707D01*
X288733Y233664D01*
X288469Y233603D01*
X288220Y233526D01*
X287985Y233431D01*
X287764Y233318D01*
X287558Y233189D01*
X287367Y233042D01*
X287191Y232878D01*
Y237145D01*
X287367Y236981D01*
D02*
G37*
G36*
X138131Y232031D02*
X138105Y232071D01*
X138029Y232107D01*
X137902Y232138D01*
X137724Y232166D01*
X137216Y232208D01*
X136073Y232239D01*
X135590Y232241D01*
Y234781D01*
X136073Y234783D01*
X138029Y234902D01*
X138105Y234934D01*
X138131Y234970D01*
Y232031D01*
D02*
G37*
G36*
X113859Y235481D02*
X114050Y235334D01*
X114256Y235205D01*
X114476Y235092D01*
X114711Y234997D01*
X114961Y234920D01*
X115225Y234859D01*
X115504Y234816D01*
X115797Y234790D01*
X116105Y234781D01*
Y232241D01*
X115797Y232233D01*
X115504Y232207D01*
X115225Y232164D01*
X114961Y232103D01*
X114711Y232026D01*
X114476Y231931D01*
X114256Y231818D01*
X114050Y231689D01*
X113859Y231542D01*
X113682Y231378D01*
Y235645D01*
X113859Y235481D01*
D02*
G37*
G36*
X365158Y226451D02*
X363905Y227482D01*
X360577Y229924D01*
X359610Y230521D01*
X358715Y231009D01*
X357892Y231389D01*
X357140Y231660D01*
X356459Y231823D01*
X355850Y231877D01*
X355605Y234417D01*
X356298Y234477D01*
X357019Y234656D01*
X357769Y234954D01*
X358548Y235372D01*
X359356Y235910D01*
X360192Y236567D01*
X361057Y237343D01*
X361951Y238238D01*
X363824Y240388D01*
X365158Y226451D01*
D02*
G37*
G36*
X292150Y224854D02*
X291939Y224631D01*
X291750Y224405D01*
X291583Y224177D01*
X291439Y223948D01*
X291318Y223716D01*
X291218Y223483D01*
X291142Y223248D01*
X291088Y223010D01*
X291057Y222771D01*
X291048Y222530D01*
X288030Y225548D01*
X288271Y225557D01*
X288510Y225588D01*
X288748Y225642D01*
X288983Y225718D01*
X289216Y225818D01*
X289447Y225939D01*
X289677Y226083D01*
X289905Y226250D01*
X290131Y226439D01*
X290354Y226650D01*
X292150Y224854D01*
D02*
G37*
G36*
X265401Y237070D02*
Y229500D01*
X265401Y229500D01*
X265618Y228410D01*
X266236Y227486D01*
X270748Y222973D01*
X270271Y221796D01*
X267928Y221757D01*
X267500Y221842D01*
X247678D01*
Y229460D01*
X248440D01*
Y237540D01*
X247678D01*
Y245651D01*
X256820D01*
X265401Y237070D01*
D02*
G37*
G36*
X281601Y217602D02*
X281820Y217430D01*
X282050Y217279D01*
X282291Y217149D01*
X282543Y217039D01*
X282806Y216950D01*
X283080Y216881D01*
X283366Y216833D01*
X283662Y216805D01*
X283969Y216798D01*
X280952Y213780D01*
X280945Y214088D01*
X280917Y214384D01*
X280869Y214670D01*
X280800Y214944D01*
X280711Y215207D01*
X280601Y215459D01*
X280471Y215700D01*
X280320Y215930D01*
X280148Y216149D01*
X279956Y216357D01*
X281393Y217794D01*
X281601Y217602D01*
D02*
G37*
G36*
X260436Y211695D02*
X260889Y211319D01*
X261107Y211168D01*
X261319Y211043D01*
X261526Y210942D01*
X261726Y210867D01*
X261921Y210816D01*
X262110Y210791D01*
X262293Y210791D01*
X259456Y207604D01*
X259436Y207779D01*
X259393Y207961D01*
X259327Y208150D01*
X259238Y208346D01*
X259126Y208547D01*
X258991Y208756D01*
X258833Y208972D01*
X258448Y209422D01*
X258221Y209657D01*
X260201Y211920D01*
X260436Y211695D01*
D02*
G37*
G36*
X359427Y217708D02*
X360078Y217323D01*
X360803Y217043D01*
X361602Y216868D01*
X362474Y216796D01*
X363419Y216829D01*
X364438Y216966D01*
X365531Y217208D01*
X366697Y217554D01*
X367936Y218004D01*
X362224Y205223D01*
X357747Y215707D01*
X358849Y218197D01*
X359427Y217708D01*
D02*
G37*
G36*
X282297Y198976D02*
X282549Y198692D01*
X282885Y198269D01*
X283134Y197908D01*
X283222Y197754D01*
Y191766D01*
X282117Y191546D01*
X280521Y190479D01*
X279454Y188883D01*
X279079Y187000D01*
X279454Y185117D01*
X280335Y183798D01*
X279998Y182827D01*
X279773Y182528D01*
X263222D01*
Y174395D01*
X263218Y174373D01*
X263222Y174351D01*
Y173533D01*
X263088Y173341D01*
X262496Y172641D01*
X260053Y170198D01*
X259379Y169189D01*
X259330Y168942D01*
X259174Y168748D01*
X258783Y168487D01*
X257717Y166891D01*
X257342Y165008D01*
X257717Y163125D01*
X258783Y161529D01*
X260380Y160462D01*
X262263Y160088D01*
X264146Y160462D01*
X268363D01*
X269028Y159233D01*
X269022Y159192D01*
X268785Y158000D01*
Y154540D01*
X268270D01*
Y153833D01*
X268375Y152871D01*
X268270Y152845D01*
Y149875D01*
X265730D01*
Y152214D01*
X265625Y152188D01*
X265617Y152515D01*
X265593Y152810D01*
X265553Y153070D01*
X265496Y153297D01*
X265423Y153491D01*
X265335Y153651D01*
X265230Y153778D01*
X265109Y153871D01*
X264972Y153931D01*
X264818Y153957D01*
X265573Y154540D01*
X263085D01*
Y153778D01*
X256212D01*
Y152105D01*
X256093Y152055D01*
X254241Y150634D01*
X252820Y148782D01*
X251926Y146625D01*
X251621Y144310D01*
X251633D01*
Y142556D01*
X251648Y142484D01*
X251314Y139950D01*
X250308Y137521D01*
X249979Y137092D01*
X249661Y137055D01*
X248440Y138134D01*
Y147540D01*
X247678D01*
Y149460D01*
X248440D01*
Y151929D01*
X248055Y151214D01*
X247975Y151455D01*
X247871Y151671D01*
X247742Y151862D01*
X247589Y152027D01*
X247412Y152167D01*
X247211Y152281D01*
X246985Y152370D01*
X246771Y152424D01*
X246601Y152411D01*
X246378Y152371D01*
X246195Y152321D01*
X246052Y152262D01*
X245951Y152194D01*
X245890Y152117D01*
X245870Y152030D01*
Y154970D01*
X245890Y154883D01*
X245951Y154806D01*
X246052Y154738D01*
X246195Y154679D01*
X246378Y154629D01*
X246601Y154589D01*
X246865Y154557D01*
X247515Y154521D01*
X247665Y154519D01*
X247740Y154520D01*
X248440Y154567D01*
Y159460D01*
Y169460D01*
Y179460D01*
Y189460D01*
Y197540D01*
X247678D01*
Y204460D01*
X248440D01*
Y210158D01*
X255116D01*
X257312Y207961D01*
X257412Y207845D01*
X257498Y207727D01*
X257570Y207615D01*
X257618Y207530D01*
X257628Y207508D01*
X257954Y205867D01*
X259021Y204271D01*
X260617Y203204D01*
X262500Y202829D01*
X264383Y203204D01*
X265979Y204271D01*
X267046Y205867D01*
X267421Y207750D01*
X267046Y209633D01*
X265979Y211229D01*
X264383Y212296D01*
X262500Y212670D01*
X262228Y212616D01*
X262179Y212640D01*
X262085Y212696D01*
X261986Y212764D01*
X261847Y212880D01*
X260742Y213985D01*
X261228Y215158D01*
X266116D01*
X282297Y198976D01*
D02*
G37*
G36*
X305794Y204833D02*
X306398D01*
X306283Y204703D01*
X306179Y204550D01*
X306088Y204376D01*
X306008Y204180D01*
X305941Y203962D01*
X305886Y203722D01*
X305884Y203705D01*
X305926Y203448D01*
X306033Y203048D01*
X306170Y202709D01*
X306338Y202432D01*
X306536Y202216D01*
X306764Y202062D01*
X307023Y201970D01*
X307313Y201939D01*
X301217D01*
X301506Y201970D01*
X301765Y202062D01*
X301994Y202216D01*
X302192Y202432D01*
X302360Y202709D01*
X302497Y203048D01*
X302604Y203448D01*
X302646Y203705D01*
X302643Y203722D01*
X302588Y203962D01*
X302521Y204180D01*
X302442Y204376D01*
X302351Y204550D01*
X302247Y204703D01*
X302131Y204833D01*
X302736D01*
X302741Y205018D01*
X305789D01*
X305794Y204833D01*
D02*
G37*
G36*
X284693Y203449D02*
X285860Y202450D01*
X286363Y202093D01*
X286814Y201830D01*
X287212Y201663D01*
X287557Y201590D01*
X287848Y201611D01*
X288087Y201728D01*
X288273Y201939D01*
X285061Y196727D01*
X285183Y197002D01*
X285230Y197311D01*
X285202Y197652D01*
X285100Y198027D01*
X284922Y198435D01*
X284669Y198875D01*
X284342Y199349D01*
X283939Y199856D01*
X283462Y200396D01*
X282909Y200970D01*
X284031Y204091D01*
X284693Y203449D01*
D02*
G37*
G36*
X245890Y194883D02*
X245951Y194806D01*
X246052Y194738D01*
X246195Y194679D01*
X246378Y194629D01*
X246601Y194589D01*
X246865Y194557D01*
X247515Y194520D01*
X247901Y194516D01*
Y192484D01*
X247515Y192479D01*
X246601Y192411D01*
X246378Y192371D01*
X246195Y192321D01*
X246052Y192262D01*
X245951Y192194D01*
X245890Y192117D01*
X245870Y192031D01*
Y194970D01*
X245890Y194883D01*
D02*
G37*
G36*
X292843Y196383D02*
X292809Y196117D01*
X292837Y195825D01*
X292927Y195505D01*
X293078Y195159D01*
X293292Y194787D01*
X293568Y194388D01*
X293905Y193962D01*
X294304Y193510D01*
X294766Y193031D01*
X293970Y190235D01*
X293402Y190785D01*
X292404Y191641D01*
X291975Y191946D01*
X291593Y192170D01*
X291257Y192312D01*
X290968Y192372D01*
X290725Y192350D01*
X290528Y192246D01*
X290378Y192061D01*
X292939Y196623D01*
X292843Y196383D01*
D02*
G37*
G36*
X138131Y187031D02*
X138110Y187117D01*
X138049Y187194D01*
X137948Y187262D01*
X137805Y187321D01*
X137622Y187371D01*
X137399Y187412D01*
X137135Y187443D01*
X136485Y187480D01*
X136098Y187484D01*
Y189516D01*
X136485Y189521D01*
X137399Y189589D01*
X137622Y189630D01*
X137805Y189680D01*
X137948Y189739D01*
X138049Y189806D01*
X138110Y189884D01*
X138131Y189970D01*
Y187031D01*
D02*
G37*
G36*
X245890Y189883D02*
X245951Y189806D01*
X246052Y189738D01*
X246195Y189679D01*
X246378Y189629D01*
X246601Y189589D01*
X246865Y189557D01*
X247515Y189520D01*
X247901Y189516D01*
Y187484D01*
X247515Y187479D01*
X246601Y187411D01*
X246378Y187371D01*
X246195Y187321D01*
X246052Y187262D01*
X245951Y187194D01*
X245890Y187117D01*
X245870Y187031D01*
Y189970D01*
X245890Y189883D01*
D02*
G37*
G36*
X311573Y186116D02*
X311397Y186280D01*
X311206Y186427D01*
X311000Y186557D01*
X310779Y186669D01*
X310544Y186764D01*
X310295Y186842D01*
X310030Y186902D01*
X309752Y186945D01*
X309458Y186971D01*
X309150Y186980D01*
Y189520D01*
X309458Y189529D01*
X309752Y189555D01*
X310030Y189598D01*
X310295Y189658D01*
X310544Y189736D01*
X310779Y189831D01*
X311000Y189943D01*
X311206Y190073D01*
X311397Y190219D01*
X311573Y190384D01*
Y186116D01*
D02*
G37*
G36*
X286399Y188921D02*
X286628Y188731D01*
X286864Y188564D01*
X287107Y188418D01*
X287356Y188295D01*
X287612Y188195D01*
X287874Y188117D01*
X288144Y188061D01*
X288420Y188027D01*
X288703Y188016D01*
Y185984D01*
X288420Y185973D01*
X288144Y185939D01*
X287874Y185883D01*
X287612Y185805D01*
X287356Y185705D01*
X287107Y185582D01*
X286864Y185436D01*
X286628Y185269D01*
X286399Y185079D01*
X286177Y184866D01*
Y189134D01*
X286399Y188921D01*
D02*
G37*
G36*
X292939Y185762D02*
X293675Y185138D01*
X294003Y184909D01*
X294303Y184735D01*
X294577Y184616D01*
X294824Y184552D01*
X295044Y184542D01*
X295238Y184588D01*
X295404Y184689D01*
X292311Y182096D01*
X292434Y182240D01*
X292497Y182416D01*
X292500Y182624D01*
X292444Y182863D01*
X292327Y183135D01*
X292150Y183438D01*
X291913Y183773D01*
X291617Y184140D01*
X290844Y184970D01*
X292531Y186156D01*
X292939Y185762D01*
D02*
G37*
G36*
X245890Y184883D02*
X245951Y184806D01*
X246052Y184738D01*
X246195Y184679D01*
X246378Y184629D01*
X246601Y184589D01*
X246865Y184557D01*
X247515Y184520D01*
X247901Y184516D01*
Y182484D01*
X247515Y182479D01*
X246601Y182411D01*
X246378Y182371D01*
X246195Y182321D01*
X246052Y182262D01*
X245951Y182194D01*
X245890Y182117D01*
X245870Y182031D01*
Y184970D01*
X245890Y184883D01*
D02*
G37*
G36*
Y179883D02*
X245951Y179806D01*
X246052Y179738D01*
X246195Y179679D01*
X246378Y179629D01*
X246601Y179589D01*
X246865Y179557D01*
X247515Y179520D01*
X247901Y179516D01*
Y177484D01*
X247515Y177479D01*
X246601Y177411D01*
X246378Y177371D01*
X246195Y177321D01*
X246052Y177262D01*
X245951Y177194D01*
X245890Y177117D01*
X245870Y177031D01*
Y179970D01*
X245890Y179883D01*
D02*
G37*
G36*
X295341Y176811D02*
X295241Y176823D01*
X295117Y176800D01*
X294970Y176742D01*
X294799Y176648D01*
X294605Y176519D01*
X294387Y176355D01*
X293881Y175920D01*
X293281Y175343D01*
X291532Y176469D01*
X291760Y176702D01*
X292243Y177275D01*
X292338Y177423D01*
X292399Y177549D01*
X292427Y177654D01*
X292421Y177738D01*
X292383Y177800D01*
X292311Y177841D01*
X295341Y176811D01*
D02*
G37*
G36*
X288960Y177589D02*
X289021Y177416D01*
X289125Y177264D01*
X289269Y177132D01*
X289454Y177020D01*
X289681Y176929D01*
X289949Y176858D01*
X290259Y176807D01*
X290609Y176776D01*
X291001Y176766D01*
Y174734D01*
X290609Y174724D01*
X290259Y174694D01*
X289949Y174643D01*
X289681Y174572D01*
X289454Y174480D01*
X289269Y174368D01*
X289125Y174236D01*
X289021Y174084D01*
X288960Y173911D01*
X288939Y173718D01*
Y177782D01*
X288960Y177589D01*
D02*
G37*
G36*
X323892Y56540D02*
X323000D01*
Y41500D01*
X315600Y41500D01*
Y56540D01*
X315500D01*
X315500Y64000D01*
X292288Y64000D01*
X291540Y64960D01*
Y70135D01*
X291286Y71016D01*
X291540Y71026D01*
Y75040D01*
X281000D01*
X281000Y110311D01*
X282234Y111815D01*
X282317Y111908D01*
X282334Y111937D01*
X282979Y112722D01*
X284855Y116232D01*
X286010Y120040D01*
X286225Y122222D01*
X287788D01*
Y130028D01*
X287040D01*
Y136730D01*
X272000D01*
Y136984D01*
X271484Y136766D01*
X270375Y137510D01*
X269000Y137857D01*
X269563Y137999D01*
X269000Y138132D01*
X268438Y137999D01*
X269000Y137857D01*
X267626Y137510D01*
X266516Y136766D01*
X264858Y136984D01*
X265745Y137999D01*
X264857Y139016D01*
X266515Y139236D01*
X267521Y138561D01*
X268849Y138168D01*
X269000Y138132D01*
X269151Y138168D01*
X270479Y138561D01*
X271486Y139236D01*
X272000Y139016D01*
Y139270D01*
X287040D01*
Y145210D01*
X288550D01*
Y148605D01*
X283435D01*
Y151145D01*
X288550D01*
Y153580D01*
X288651Y154850D01*
X288651Y154850D01*
X288651Y157701D01*
X289710Y158210D01*
X295980D01*
Y164750D01*
Y171290D01*
X290778D01*
Y172901D01*
X292250D01*
X292250Y172901D01*
X293340Y173118D01*
X294265Y173736D01*
X295146Y174617D01*
X295525Y174943D01*
X295564Y174972D01*
X304028D01*
Y182059D01*
X304028Y183330D01*
X323892D01*
Y56540D01*
D02*
G37*
G36*
X138131Y172031D02*
X138105Y172069D01*
X138029Y172103D01*
X137902Y172132D01*
X137724Y172158D01*
X137216Y172198D01*
X135590Y172230D01*
Y174770D01*
X136073Y174772D01*
X138029Y174898D01*
X138105Y174932D01*
X138131Y174970D01*
Y172031D01*
D02*
G37*
G36*
X245890Y174883D02*
X245951Y174806D01*
X246052Y174738D01*
X246195Y174679D01*
X246378Y174629D01*
X246601Y174589D01*
X246865Y174557D01*
X247515Y174520D01*
X247901Y174516D01*
Y172484D01*
X247515Y172479D01*
X246601Y172411D01*
X246378Y172371D01*
X246195Y172321D01*
X246052Y172262D01*
X245951Y172194D01*
X245890Y172117D01*
X245870Y172031D01*
Y174970D01*
X245890Y174883D01*
D02*
G37*
G36*
X118993Y175331D02*
X119201Y175213D01*
X119421Y175109D01*
X119654Y175019D01*
X119899Y174943D01*
X120157Y174881D01*
X120426Y174832D01*
X120709Y174798D01*
X121310Y174770D01*
X121778Y172230D01*
X121468Y172220D01*
X121176Y172191D01*
X120902Y172142D01*
X120647Y172074D01*
X120410Y171986D01*
X120191Y171878D01*
X119990Y171751D01*
X119808Y171604D01*
X119643Y171438D01*
X119497Y171253D01*
X118797Y175462D01*
X118993Y175331D01*
D02*
G37*
G36*
X268622Y170781D02*
X268425Y170924D01*
X268192Y170996D01*
X267922D01*
X267617Y170924D01*
X267276Y170781D01*
X266898Y170565D01*
X266485Y170278D01*
X266036Y169918D01*
X265030Y168985D01*
X263234Y170781D01*
X263737Y171301D01*
X264527Y172235D01*
X264815Y172649D01*
X265030Y173026D01*
X265174Y173367D01*
X265246Y173672D01*
Y173942D01*
X265174Y174175D01*
X265030Y174373D01*
X268622Y170781D01*
D02*
G37*
G36*
X265020Y168974D02*
X264798Y168739D01*
X264611Y168516D01*
X264461Y168305D01*
X264347Y168105D01*
X264270Y167917D01*
X264229Y167741D01*
X264224Y167577D01*
X264255Y167424D01*
X264323Y167283D01*
X264427Y167155D01*
X260482Y167482D01*
X262701Y170247D01*
X265020Y168974D01*
D02*
G37*
G36*
X245890Y169883D02*
X245951Y169806D01*
X246052Y169738D01*
X246195Y169679D01*
X246378Y169629D01*
X246601Y169589D01*
X246865Y169557D01*
X247515Y169520D01*
X247901Y169516D01*
Y167484D01*
X247515Y167479D01*
X246601Y167411D01*
X246378Y167371D01*
X246195Y167321D01*
X246052Y167262D01*
X245951Y167194D01*
X245890Y167117D01*
X245870Y167031D01*
Y169970D01*
X245890Y169883D01*
D02*
G37*
G36*
X138131Y162031D02*
X138105Y162069D01*
X138029Y162103D01*
X137902Y162132D01*
X137724Y162158D01*
X137216Y162198D01*
X135590Y162230D01*
Y164770D01*
X136073Y164772D01*
X138029Y164898D01*
X138105Y164932D01*
X138131Y164970D01*
Y162031D01*
D02*
G37*
G36*
X245890Y164883D02*
X245951Y164806D01*
X246052Y164738D01*
X246195Y164679D01*
X246378Y164629D01*
X246601Y164589D01*
X246865Y164557D01*
X247515Y164520D01*
X247901Y164516D01*
Y162484D01*
X247515Y162479D01*
X246601Y162411D01*
X246378Y162371D01*
X246195Y162321D01*
X246052Y162262D01*
X245951Y162194D01*
X245890Y162117D01*
X245870Y162031D01*
Y164970D01*
X245890Y164883D01*
D02*
G37*
G36*
X112353Y165512D02*
X112535Y165357D01*
X112732Y165219D01*
X112945Y165100D01*
X113174Y164999D01*
X113419Y164917D01*
X113680Y164853D01*
X113957Y164807D01*
X114250Y164779D01*
X114559Y164770D01*
X114374Y162230D01*
X114067Y162222D01*
X113773Y162198D01*
X113493Y162158D01*
X113226Y162102D01*
X112972Y162030D01*
X112732Y161942D01*
X112506Y161837D01*
X112293Y161717D01*
X112093Y161581D01*
X111907Y161429D01*
X112188Y165686D01*
X112353Y165512D01*
D02*
G37*
G36*
X285330Y157411D02*
X285102Y157548D01*
X284839Y157610D01*
X284540Y157598D01*
X284205Y157512D01*
X283834Y157352D01*
X283427Y157117D01*
X282985Y156808D01*
X282506Y156425D01*
X281440Y155436D01*
X279137Y157022D01*
X279700Y157605D01*
X280583Y158641D01*
X280903Y159094D01*
X281141Y159505D01*
X281298Y159872D01*
X281373Y160196D01*
X281367Y160478D01*
X281280Y160716D01*
X281112Y160911D01*
X285330Y157411D01*
D02*
G37*
G36*
X127561Y153460D02*
X127535Y153701D01*
X127458Y153917D01*
X127330Y154108D01*
X127150Y154273D01*
X126918Y154412D01*
X126636Y154527D01*
X126301Y154616D01*
X125916Y154679D01*
X125479Y154717D01*
X125250Y154723D01*
X125021Y154717D01*
X124584Y154679D01*
X124199Y154616D01*
X123864Y154527D01*
X123582Y154412D01*
X123350Y154273D01*
X123170Y154108D01*
X123042Y153917D01*
X122965Y153701D01*
X122939Y153460D01*
Y158540D01*
X122965Y158299D01*
X123042Y158083D01*
X123170Y157892D01*
X123350Y157727D01*
X123582Y157587D01*
X123864Y157473D01*
X124199Y157384D01*
X124584Y157321D01*
X125021Y157283D01*
X125250Y157277D01*
X125479Y157283D01*
X125916Y157321D01*
X126301Y157384D01*
X126636Y157473D01*
X126918Y157587D01*
X127150Y157727D01*
X127330Y157892D01*
X127458Y158083D01*
X127535Y158299D01*
X127561Y158540D01*
Y153460D01*
D02*
G37*
G36*
X138131Y157031D02*
X138105Y157069D01*
X138029Y157103D01*
X137902Y157133D01*
X137724Y157158D01*
X137216Y157198D01*
X135590Y157230D01*
Y159770D01*
X136073Y159772D01*
X138029Y159898D01*
X138105Y159932D01*
X138131Y159970D01*
Y157031D01*
D02*
G37*
G36*
X245890Y159883D02*
X245951Y159806D01*
X246052Y159738D01*
X246195Y159679D01*
X246378Y159629D01*
X246601Y159589D01*
X246865Y159557D01*
X247515Y159521D01*
X247901Y159516D01*
Y157484D01*
X247515Y157479D01*
X246601Y157411D01*
X246378Y157371D01*
X246195Y157321D01*
X246052Y157262D01*
X245951Y157194D01*
X245890Y157117D01*
X245870Y157030D01*
Y159970D01*
X245890Y159883D01*
D02*
G37*
G36*
X274489Y157381D02*
X274255Y157296D01*
X274049Y157155D01*
X273870Y156960D01*
X273719Y156709D01*
X273595Y156404D01*
X273499Y156043D01*
X273430Y155627D01*
X273389Y155157D01*
X273375Y154631D01*
X270625D01*
X271881Y157381D01*
X274750Y157411D01*
X274489Y157381D01*
D02*
G37*
G36*
X113031Y152030D02*
X113005Y151973D01*
X112929Y151922D01*
X112802Y151877D01*
X112624Y151838D01*
X112395Y151805D01*
X111786Y151757D01*
X110491Y151730D01*
Y154270D01*
X110973Y154282D01*
X111405Y154320D01*
X111786Y154384D01*
X112116Y154473D01*
X112395Y154587D01*
X112624Y154727D01*
X112802Y154892D01*
X112929Y155083D01*
X113005Y155298D01*
X113031Y155540D01*
Y152030D01*
D02*
G37*
G36*
X106353Y154969D02*
X106544Y154822D01*
X106750Y154693D01*
X106971Y154581D01*
X107205Y154486D01*
X107455Y154408D01*
X107719Y154347D01*
X107998Y154304D01*
X108291Y154278D01*
X108599Y154270D01*
Y151730D01*
X108291Y151721D01*
X107998Y151695D01*
X107719Y151652D01*
X107455Y151592D01*
X107205Y151514D01*
X106971Y151419D01*
X106750Y151306D01*
X106544Y151177D01*
X106353Y151030D01*
X106177Y150866D01*
Y155133D01*
X106353Y154969D01*
D02*
G37*
G36*
X137501Y152000D02*
X137468Y151979D01*
X137393Y151915D01*
X136684Y151237D01*
X135317Y149880D01*
X133880Y151317D01*
X136000Y153501D01*
X137501Y152000D01*
D02*
G37*
G36*
X127561Y144968D02*
X127539Y145161D01*
X127476Y145333D01*
X127372Y145486D01*
X127227Y145618D01*
X127042Y145730D01*
X126815Y145821D01*
X126547Y145892D01*
X126238Y145943D01*
X125889Y145974D01*
X125499Y145984D01*
Y148016D01*
X125885Y148025D01*
X126230Y148054D01*
X126535Y148102D01*
X126799Y148168D01*
X127022Y148254D01*
X127205Y148359D01*
X127348Y148483D01*
X127449Y148626D01*
X127510Y148788D01*
X127530Y148969D01*
X127561Y144968D01*
D02*
G37*
G36*
X245860Y144139D02*
X245921Y143966D01*
X246025Y143814D01*
X246169Y143682D01*
X246355Y143570D01*
X246581Y143479D01*
X246850Y143407D01*
X247159Y143357D01*
X247510Y143326D01*
X247901Y143316D01*
Y141284D01*
X247510Y141274D01*
X247159Y141243D01*
X246850Y141193D01*
X246581Y141121D01*
X246355Y141030D01*
X246169Y140918D01*
X246025Y140786D01*
X245921Y140634D01*
X245860Y140461D01*
X245839Y140268D01*
Y144332D01*
X245860Y144139D01*
D02*
G37*
G36*
X138161Y140268D02*
X138140Y140461D01*
X138078Y140634D01*
X137975Y140786D01*
X137831Y140918D01*
X137645Y141030D01*
X137418Y141121D01*
X137150Y141193D01*
X136841Y141243D01*
X136490Y141274D01*
X136098Y141284D01*
Y143316D01*
X136490Y143326D01*
X136841Y143357D01*
X137150Y143407D01*
X137418Y143479D01*
X137645Y143570D01*
X137831Y143682D01*
X137975Y143814D01*
X138078Y143966D01*
X138140Y144139D01*
X138161Y144332D01*
Y140268D01*
D02*
G37*
G36*
X183126Y139619D02*
X183103Y139584D01*
X183082Y139527D01*
X183065Y139446D01*
X183050Y139343D01*
X183028Y139066D01*
X183016Y138479D01*
X180984D01*
X180983Y138698D01*
X180935Y139446D01*
X180918Y139527D01*
X180897Y139584D01*
X180874Y139619D01*
X180849Y139630D01*
X183151D01*
X183126Y139619D01*
D02*
G37*
G36*
X198383Y139610D02*
X198306Y139549D01*
X198238Y139448D01*
X198179Y139305D01*
X198129Y139122D01*
X198089Y138899D01*
X198057Y138635D01*
X198047Y138455D01*
X198067Y138308D01*
X198132Y138050D01*
X198222Y137811D01*
X198337Y137590D01*
X198479Y137387D01*
X198646Y137202D01*
X198810Y137060D01*
X201040D01*
Y137822D01*
X202960D01*
Y137060D01*
X213797D01*
X213993Y135077D01*
X215158Y131237D01*
X216262Y129172D01*
X216267Y129138D01*
X216350Y129007D01*
X216401Y128911D01*
X216466Y128758D01*
X216539Y128653D01*
X217050Y127698D01*
X217633Y126987D01*
X217963Y126465D01*
X218642Y125221D01*
X218870Y124726D01*
X219041Y124288D01*
X219149Y123935D01*
X219201Y123680D01*
X219222Y123405D01*
Y121722D01*
X228778D01*
Y121722D01*
X229222D01*
Y121722D01*
X236948D01*
X236970Y121718D01*
X236991Y121722D01*
X238778Y121722D01*
X238782Y121718D01*
X240421D01*
X240421Y122064D01*
X240371Y122114D01*
X240354Y122740D01*
X240382Y122882D01*
X240529Y123201D01*
X240744Y123537D01*
X242507Y123961D01*
X246498Y125614D01*
X250181Y127871D01*
X253466Y130676D01*
X253463Y130679D01*
X255552Y133224D01*
X255728Y133554D01*
X256960Y133245D01*
Y130790D01*
X255450D01*
Y127395D01*
X260565D01*
Y124855D01*
X255450D01*
Y122282D01*
X254454Y120791D01*
X254079Y118908D01*
X254454Y117025D01*
X254499Y116956D01*
X253759Y115778D01*
X252491D01*
X252470Y115782D01*
X252448Y115778D01*
X247650D01*
X247648Y115779D01*
X247644Y115778D01*
X245722D01*
Y114089D01*
X245721Y114087D01*
X245702Y113784D01*
X245660Y113564D01*
X245580Y113303D01*
X245455Y113003D01*
X245279Y112664D01*
X245049Y112291D01*
X244776Y111907D01*
X244183Y111202D01*
X243407Y110426D01*
X242674Y110571D01*
X240791Y110197D01*
X239195Y109130D01*
X238128Y107534D01*
X237754Y105651D01*
X238128Y103768D01*
X238755Y102830D01*
X238270Y101924D01*
Y97590D01*
X242540D01*
Y100621D01*
X242674Y100730D01*
X243690Y100933D01*
X244960Y99963D01*
Y95460D01*
X248730D01*
Y101000D01*
X251270D01*
Y95460D01*
X257730D01*
Y101000D01*
X259000D01*
Y102270D01*
X264040D01*
Y106540D01*
X263278D01*
Y107902D01*
X263293Y108082D01*
X263324Y108209D01*
X263400Y108414D01*
X263533Y108685D01*
X263728Y109015D01*
X263964Y109360D01*
X265053Y110653D01*
X268963Y114562D01*
X270000Y113803D01*
Y65182D01*
X269064Y64000D01*
X262904Y64000D01*
X263004Y14000D01*
X271600Y14000D01*
Y45887D01*
X271600D01*
X271600Y14000D01*
X302460Y14000D01*
Y11460D01*
X312730D01*
Y20250D01*
X315270D01*
Y11460D01*
X323892D01*
Y3108D01*
X231000D01*
Y81000D01*
X230309D01*
X230154Y81423D01*
X231000Y81000D01*
X231000Y82443D01*
X231000D01*
X231955Y83177D01*
X232222Y83202D01*
X232270Y83202D01*
X234009D01*
X234031Y83198D01*
X234053Y83202D01*
X241778D01*
Y91080D01*
X242540D01*
Y95050D01*
X237000D01*
X231460D01*
Y91080D01*
X230204Y91047D01*
X229680D01*
X228392Y90791D01*
X227299Y90061D01*
X220119Y82881D01*
X219390Y81788D01*
X219233Y81000D01*
X204000Y81000D01*
Y116000D01*
X195000Y116000D01*
Y134119D01*
X194953Y134073D01*
X194950Y134379D01*
X194926Y134675D01*
X194881Y134960D01*
X194814Y135234D01*
X194727Y135497D01*
X194619Y135748D01*
X194490Y135990D01*
X194340Y136220D01*
X194168Y136439D01*
X193976Y136647D01*
X195434Y138063D01*
X195641Y137871D01*
X195860Y137699D01*
X195954Y137637D01*
X195977Y137849D01*
X195980Y137957D01*
X195979Y137985D01*
X195911Y138899D01*
X195871Y139122D01*
X195821Y139305D01*
X195762Y139448D01*
X195694Y139549D01*
X195617Y139610D01*
X195530Y139630D01*
X198470D01*
X198383Y139610D01*
D02*
G37*
G36*
X213383D02*
X213306Y139549D01*
X213238Y139448D01*
X213179Y139305D01*
X213129Y139122D01*
X213089Y138899D01*
X213057Y138635D01*
X213021Y137985D01*
X213016Y137598D01*
X210984D01*
X210979Y137985D01*
X210911Y138899D01*
X210871Y139122D01*
X210821Y139305D01*
X210762Y139448D01*
X210694Y139549D01*
X210617Y139610D01*
X210530Y139630D01*
X213470D01*
X213383Y139610D01*
D02*
G37*
G36*
X163383D02*
X163306Y139549D01*
X163238Y139448D01*
X163179Y139305D01*
X163129Y139122D01*
X163088Y138899D01*
X163057Y138635D01*
X163020Y137985D01*
X163016Y137598D01*
X160984D01*
X160979Y137985D01*
X160911Y138899D01*
X160870Y139122D01*
X160821Y139305D01*
X160762Y139448D01*
X160693Y139549D01*
X160616Y139610D01*
X160530Y139630D01*
X163469D01*
X163383Y139610D01*
D02*
G37*
G36*
X142639D02*
X142466Y139549D01*
X142314Y139448D01*
X142182Y139305D01*
X142070Y139122D01*
X141979Y138899D01*
X141907Y138635D01*
X141857Y138330D01*
X141826Y137985D01*
X141816Y137598D01*
X139784D01*
X139774Y137985D01*
X139743Y138330D01*
X139693Y138635D01*
X139621Y138899D01*
X139530Y139122D01*
X139418Y139305D01*
X139286Y139448D01*
X139134Y139549D01*
X138961Y139610D01*
X138768Y139630D01*
X142832D01*
X142639Y139610D01*
D02*
G37*
G36*
X193325Y141336D02*
X193244Y141173D01*
X193227Y140974D01*
X193275Y140739D01*
X193386Y140470D01*
X193562Y140165D01*
X193802Y139824D01*
X194106Y139448D01*
X194906Y138590D01*
X193148Y137475D01*
X192734Y137885D01*
X190960Y139437D01*
X190783Y139544D01*
X190640Y139609D01*
X190530Y139630D01*
X193470Y141464D01*
X193325Y141336D01*
D02*
G37*
G36*
X242203Y139630D02*
X245232D01*
X245039Y139610D01*
X244866Y139549D01*
X244714Y139448D01*
X244582Y139305D01*
X244470Y139122D01*
X244379Y138899D01*
X244307Y138635D01*
X244257Y138330D01*
X244226Y137985D01*
X244216Y137598D01*
X244141D01*
X244110Y137060D01*
X247594D01*
X248206Y136572D01*
X248626Y135903D01*
X248434Y135192D01*
X245563Y132836D01*
X241965Y130913D01*
X240028Y130326D01*
X238778Y130278D01*
X238778Y130278D01*
X238778Y130278D01*
X236991D01*
X236970Y130282D01*
X236948Y130278D01*
X229222D01*
Y130278D01*
X228778D01*
Y130278D01*
X224446D01*
X224000Y130367D01*
X223580D01*
X223293Y130708D01*
X222155Y132191D01*
X220780Y135510D01*
X220601Y136867D01*
X221439Y137822D01*
X237960D01*
Y137060D01*
X242194D01*
X241095Y138046D01*
X241302Y138056D01*
X241487Y138099D01*
X241650Y138175D01*
X241792Y138284D01*
X241912Y138427D01*
X242010Y138603D01*
X242062Y138747D01*
X242021Y138899D01*
X241930Y139122D01*
X241818Y139305D01*
X241686Y139448D01*
X241534Y139549D01*
X241361Y139610D01*
X241168Y139630D01*
X242184D01*
X242184Y139637D01*
X242203Y139630D01*
D02*
G37*
G36*
X188538Y137458D02*
X188582Y136940D01*
X188654Y136483D01*
X188755Y136087D01*
X188885Y135751D01*
X189044Y135477D01*
X189232Y135264D01*
X189449Y135111D01*
X189695Y135020D01*
X189970Y134990D01*
X184030D01*
X184305Y135020D01*
X184551Y135111D01*
X184768Y135264D01*
X184956Y135477D01*
X185115Y135751D01*
X185245Y136087D01*
X185346Y136483D01*
X185418Y136940D01*
X185462Y137458D01*
X185476Y138038D01*
X188524D01*
X188538Y137458D01*
D02*
G37*
G36*
X259561Y136545D02*
X261440Y137618D01*
X260454Y135571D01*
X261678Y132253D01*
X261434Y132355D01*
X261193Y132423D01*
X260954Y132457D01*
X260719Y132458D01*
X260486Y132425D01*
X260256Y132358D01*
X260029Y132258D01*
X259804Y132125D01*
X259583Y131958D01*
X259561Y131938D01*
Y130487D01*
X259546Y130751D01*
X259502Y130956D01*
X259429Y131103D01*
X259326Y131191D01*
X259194Y131221D01*
X259033Y131191D01*
X258842Y131103D01*
X258622Y130956D01*
X258372Y130751D01*
X258094Y130487D01*
Y132921D01*
Y133361D01*
Y135795D01*
X258372Y136088D01*
X258622Y136379D01*
X258842Y136670D01*
X259033Y136959D01*
X259194Y137247D01*
X259326Y137534D01*
X259429Y137819D01*
X259502Y138104D01*
X259546Y138387D01*
X259561Y138668D01*
Y136545D01*
D02*
G37*
G36*
X122798Y139428D02*
X122730Y139197D01*
X122733Y138929D01*
X122808Y138624D01*
X122954Y138283D01*
X123173Y137906D01*
X123463Y137492D01*
X123826Y137041D01*
X124623Y136184D01*
X124683Y136128D01*
X124909Y135945D01*
X125131Y135796D01*
X125348Y135680D01*
X125561Y135597D01*
X125769Y135548D01*
X125973Y135533D01*
X126173Y135550D01*
X126368Y135601D01*
X126559Y135686D01*
X125246Y131694D01*
X125188Y131802D01*
X125111Y131924D01*
X125014Y132060D01*
X124762Y132376D01*
X124236Y132957D01*
X123787Y133417D01*
X124268Y135533D01*
X122970Y134235D01*
X122446Y134740D01*
X121508Y135537D01*
X121094Y135827D01*
X120717Y136046D01*
X120376Y136193D01*
X120071Y136267D01*
X119803Y136270D01*
X119572Y136202D01*
X119377Y136061D01*
X122939Y139623D01*
X122798Y139428D01*
D02*
G37*
G36*
X236999Y128340D02*
X237089Y128236D01*
X237238Y128158D01*
X237447Y128105D01*
X237716Y128077D01*
X238044Y128075D01*
X238432Y128099D01*
X239388Y128222D01*
X239955Y128322D01*
X239969Y125180D01*
X239399Y125061D01*
X238439Y124794D01*
X238049Y124644D01*
X237719Y124485D01*
X237449Y124314D01*
X237239Y124134D01*
X237090Y123943D01*
X236999Y123742D01*
X236970Y123531D01*
Y128469D01*
X236999Y128340D01*
D02*
G37*
G36*
X221366Y130182D02*
X222293Y129080D01*
X222705Y128684D01*
X223083Y128391D01*
X223426Y128200D01*
X223736Y128113D01*
X224011Y128129D01*
X224252Y128248D01*
X224459Y128469D01*
X221031Y123531D01*
X221000Y123932D01*
X220908Y124383D01*
X220754Y124884D01*
X220539Y125435D01*
X220263Y126035D01*
X219526Y127386D01*
X218544Y128935D01*
X217961Y129785D01*
X220852Y130888D01*
X221366Y130182D01*
D02*
G37*
G36*
X278282Y124010D02*
X278226Y123949D01*
X278177Y123848D01*
X278134Y123705D01*
X278098Y123523D01*
X278069Y123299D01*
X278029Y122730D01*
X278016Y121999D01*
X275984D01*
X275981Y122385D01*
X275902Y123523D01*
X275866Y123705D01*
X275823Y123848D01*
X275774Y123949D01*
X275718Y124010D01*
X275656Y124031D01*
X278345D01*
X278282Y124010D01*
D02*
G37*
G36*
X189299Y121015D02*
X189083Y120938D01*
X188892Y120810D01*
X188727Y120630D01*
X188587Y120398D01*
X188473Y120115D01*
X188384Y119781D01*
X188321Y119396D01*
X188292Y119066D01*
X188321Y118737D01*
X188384Y118352D01*
X188473Y118019D01*
X188587Y117736D01*
X188727Y117504D01*
X188892Y117324D01*
X189083Y117195D01*
X189299Y117116D01*
X189540Y117089D01*
X185030Y117120D01*
X185163Y117145D01*
X185282Y117221D01*
X185387Y117348D01*
X185478Y117526D01*
X185555Y117754D01*
X185618Y118034D01*
X185667Y118364D01*
X185702Y118745D01*
X185711Y119033D01*
X185679Y119396D01*
X185616Y119781D01*
X185527Y120115D01*
X185413Y120398D01*
X185273Y120630D01*
X185108Y120810D01*
X184917Y120938D01*
X184701Y121015D01*
X184460Y121041D01*
X189540D01*
X189299Y121015D01*
D02*
G37*
G36*
X256530Y108031D02*
X256492Y108233D01*
X256378Y108414D01*
X256188Y108573D01*
X255921Y108712D01*
X255578Y108829D01*
X255159Y108925D01*
X254664Y108999D01*
X254523Y109012D01*
X254336Y108999D01*
X253841Y108925D01*
X253422Y108829D01*
X253079Y108712D01*
X252812Y108573D01*
X252622Y108414D01*
X252508Y108233D01*
X252470Y108031D01*
Y113969D01*
X252508Y113767D01*
X252622Y113586D01*
X252812Y113427D01*
X253079Y113288D01*
X253422Y113171D01*
X253841Y113075D01*
X254336Y113001D01*
X254477Y112988D01*
X254664Y113001D01*
X255159Y113075D01*
X255578Y113171D01*
X255921Y113288D01*
X256188Y113427D01*
X256378Y113586D01*
X256492Y113767D01*
X256530Y113969D01*
Y108031D01*
D02*
G37*
G36*
X280965Y113116D02*
X280320Y112394D01*
X279326Y111133D01*
X278976Y110594D01*
X278724Y110116D01*
X278571Y109699D01*
X278515Y109342D01*
X278558Y109047D01*
X278700Y108812D01*
X278939Y108638D01*
X273299Y111439D01*
X273602Y111329D01*
X273927Y111288D01*
X274273Y111317D01*
X274641Y111415D01*
X275031Y111584D01*
X275443Y111821D01*
X275875Y112129D01*
X276330Y112506D01*
X276806Y112953D01*
X277304Y113470D01*
X280965Y113116D01*
D02*
G37*
G36*
X251710Y108061D02*
X251458Y108315D01*
X251141Y108451D01*
X250762Y108471D01*
X250318Y108374D01*
X249811Y108160D01*
X249241Y107829D01*
X248606Y107381D01*
X247909Y106816D01*
X246322Y105336D01*
X246302Y105388D01*
X245596Y104783D01*
X243600Y108555D01*
X243692Y108542D01*
X243801Y108558D01*
X243928Y108601D01*
X244071Y108673D01*
X244231Y108772D01*
X244409Y108900D01*
X244814Y109239D01*
X245080Y109493D01*
X245348Y109771D01*
X246210Y110796D01*
X246561Y111289D01*
X246857Y111769D01*
X247099Y112235D01*
X247288Y112688D01*
X247423Y113129D01*
X247504Y113556D01*
X247530Y113969D01*
X251710Y108061D01*
D02*
G37*
G36*
X264386Y112588D02*
X263832Y112017D01*
X262520Y110458D01*
X262199Y109990D01*
X261936Y109547D01*
X261732Y109130D01*
X261586Y108738D01*
X261499Y108371D01*
X261469Y108031D01*
Y113969D01*
X261563Y113985D01*
X261678Y114031D01*
X261817Y114108D01*
X261977Y114215D01*
X262160Y114353D01*
X262594Y114722D01*
X263414Y115504D01*
X264386Y112588D01*
D02*
G37*
G36*
X190695Y102850D02*
X190449Y102759D01*
X190232Y102606D01*
X190044Y102393D01*
X189885Y102119D01*
X189755Y101783D01*
X189654Y101387D01*
X189582Y100930D01*
X189541Y100438D01*
X189585Y99932D01*
X189661Y99471D01*
X189768Y99072D01*
X189905Y98733D01*
X190073Y98456D01*
X190271Y98240D01*
X190499Y98085D01*
X190758Y97991D01*
X191048Y97959D01*
X186031Y97989D01*
X186115Y98020D01*
X186191Y98111D01*
X186258Y98264D01*
X186316Y98477D01*
X186365Y98751D01*
X186405Y99087D01*
X186458Y99940D01*
X186464Y100308D01*
X186462Y100412D01*
X186418Y100930D01*
X186346Y101387D01*
X186245Y101783D01*
X186115Y102119D01*
X185956Y102393D01*
X185768Y102606D01*
X185551Y102759D01*
X185305Y102850D01*
X185030Y102880D01*
X190970D01*
X190695Y102850D01*
D02*
G37*
G36*
X278299Y96535D02*
X278083Y96458D01*
X277892Y96330D01*
X277727Y96150D01*
X277588Y95918D01*
X277473Y95636D01*
X277384Y95301D01*
X277321Y94916D01*
X277306Y94743D01*
X277318Y94595D01*
X277378Y94214D01*
X277462Y93884D01*
X277570Y93604D01*
X277702Y93376D01*
X277858Y93198D01*
X278038Y93071D01*
X278242Y92995D01*
X278470Y92970D01*
X273531D01*
X273758Y92995D01*
X273962Y93071D01*
X274142Y93198D01*
X274298Y93376D01*
X274430Y93604D01*
X274538Y93884D01*
X274622Y94214D01*
X274682Y94595D01*
X274694Y94743D01*
X274679Y94916D01*
X274616Y95301D01*
X274527Y95636D01*
X274412Y95918D01*
X274273Y96150D01*
X274108Y96330D01*
X273917Y96458D01*
X273701Y96535D01*
X273460Y96561D01*
X278540D01*
X278299Y96535D01*
D02*
G37*
G36*
X234031Y85011D02*
X234000Y85228D01*
X233909Y85423D01*
X233756Y85595D01*
X233543Y85744D01*
X233269Y85870D01*
X232934Y85973D01*
X232537Y86053D01*
X232080Y86110D01*
X231562Y86145D01*
X230983Y86156D01*
Y89204D01*
X231562Y89215D01*
X232537Y89307D01*
X232934Y89387D01*
X233269Y89490D01*
X233543Y89616D01*
X233756Y89765D01*
X233909Y89937D01*
X234000Y90132D01*
X234031Y90350D01*
Y85011D01*
D02*
G37*
G36*
X224034Y80013D02*
X224115Y79194D01*
X224185Y78861D01*
X224276Y78579D01*
X224386Y78349D01*
X224517Y78169D01*
X224668Y78042D01*
X224839Y77965D01*
X225030Y77939D01*
X219970D01*
X220161Y77965D01*
X220332Y78042D01*
X220483Y78169D01*
X220614Y78349D01*
X220724Y78579D01*
X220815Y78861D01*
X220885Y79194D01*
X220936Y79578D01*
X220966Y80013D01*
X220976Y80500D01*
X224024D01*
X224034Y80013D01*
D02*
G37*
G36*
X191695Y83980D02*
X191449Y83888D01*
X191232Y83736D01*
X191044Y83523D01*
X190885Y83248D01*
X190755Y82913D01*
X190654Y82517D01*
X190582Y82060D01*
X190539Y81541D01*
X190525Y80990D01*
X190539Y80433D01*
X190585Y79909D01*
X190661Y79447D01*
X190768Y79047D01*
X190905Y78709D01*
X191073Y78432D01*
X191271Y78216D01*
X191499Y78062D01*
X191758Y77970D01*
X192048Y77939D01*
X185952D01*
X186242Y77970D01*
X186501Y78062D01*
X186729Y78216D01*
X186927Y78432D01*
X187095Y78709D01*
X187232Y79047D01*
X187339Y79447D01*
X187415Y79909D01*
X187461Y80433D01*
X187475Y80990D01*
X187462Y81541D01*
X187418Y82060D01*
X187346Y82517D01*
X187245Y82913D01*
X187115Y83248D01*
X186956Y83523D01*
X186768Y83736D01*
X186551Y83888D01*
X186305Y83980D01*
X186031Y84010D01*
X191970D01*
X191695Y83980D01*
D02*
G37*
G36*
X278290Y77000D02*
X278129Y76909D01*
X277987Y76756D01*
X277864Y76543D01*
X277760Y76269D01*
X277675Y75933D01*
X277609Y75537D01*
X277562Y75080D01*
X277551Y74782D01*
X277582Y74420D01*
X277654Y73963D01*
X277755Y73567D01*
X277885Y73232D01*
X278044Y72957D01*
X278232Y72744D01*
X278449Y72591D01*
X278695Y72500D01*
X278969Y72470D01*
X273030D01*
X273305Y72500D01*
X273551Y72591D01*
X273768Y72744D01*
X273956Y72957D01*
X274115Y73232D01*
X274245Y73567D01*
X274346Y73963D01*
X274418Y74420D01*
X274449Y74788D01*
X274391Y75537D01*
X274325Y75933D01*
X274240Y76269D01*
X274136Y76543D01*
X274013Y76756D01*
X273871Y76909D01*
X273710Y77000D01*
X273531Y77031D01*
X278470D01*
X278290Y77000D01*
D02*
G37*
G36*
X287026Y74110D02*
X287057Y73759D01*
X287107Y73450D01*
X287178Y73182D01*
X287270Y72955D01*
X287382Y72769D01*
X287514Y72625D01*
X287666Y72522D01*
X287839Y72460D01*
X288032Y72439D01*
X283968D01*
X284161Y72460D01*
X284334Y72522D01*
X284486Y72625D01*
X284618Y72769D01*
X284730Y72955D01*
X284821Y73182D01*
X284893Y73450D01*
X284943Y73759D01*
X284974Y74110D01*
X284984Y74502D01*
X287016D01*
X287026Y74110D01*
D02*
G37*
G36*
X19531Y71213D02*
X19607Y71207D01*
X20819Y71175D01*
Y64825D01*
X19607Y64793D01*
X19531Y64787D01*
Y61650D01*
X19467Y62253D01*
X19276Y62793D01*
X18959Y63269D01*
X18514Y63682D01*
X17943Y64031D01*
X17244Y64317D01*
X16991Y64385D01*
X16736Y64317D01*
X16034Y64031D01*
X15460Y63682D01*
X15013Y63269D01*
X14694Y62793D01*
X14503Y62253D01*
X14439Y61650D01*
Y64789D01*
X14387Y64793D01*
X13181Y64825D01*
Y71175D01*
X14387Y71207D01*
X14439Y71211D01*
Y74350D01*
X14503Y73747D01*
X14694Y73207D01*
X15013Y72731D01*
X15460Y72318D01*
X16034Y71969D01*
X16736Y71683D01*
X16991Y71615D01*
X17244Y71683D01*
X17943Y71969D01*
X18514Y72318D01*
X18959Y72731D01*
X19276Y73207D01*
X19467Y73747D01*
X19531Y74350D01*
Y71213D01*
D02*
G37*
G36*
X288960Y71839D02*
X289021Y71666D01*
X289125Y71514D01*
X289269Y71382D01*
X289455Y71270D01*
X289681Y71178D01*
X289950Y71107D01*
X290259Y71057D01*
X290610Y71026D01*
X291001Y71016D01*
Y68984D01*
X290610Y68974D01*
X290259Y68943D01*
X289950Y68892D01*
X289681Y68821D01*
X289455Y68730D01*
X289269Y68618D01*
X289125Y68486D01*
X289021Y68334D01*
X288960Y68161D01*
X288939Y67968D01*
Y72032D01*
X288960Y71839D01*
D02*
G37*
G36*
X278258Y67529D02*
X277999Y67435D01*
X277771Y67280D01*
X277573Y67064D01*
X277405Y66787D01*
X277268Y66449D01*
X277161Y66049D01*
X277085Y65588D01*
X277039Y65066D01*
X277024Y64482D01*
X273976D01*
X273967Y65062D01*
X273891Y66037D01*
X273825Y66433D01*
X273740Y66768D01*
X273636Y67043D01*
X273513Y67256D01*
X273371Y67409D01*
X273210Y67500D01*
X273030Y67530D01*
X278548Y67561D01*
X278258Y67529D01*
D02*
G37*
G36*
X277900Y54000D02*
X312400D01*
Y41500D01*
X305000Y41500D01*
X305000Y47700D01*
X271600Y47700D01*
Y64000D01*
X277900D01*
Y54000D01*
D02*
G37*
%LPC*%
G36*
X295540Y322730D02*
X291270D01*
Y318960D01*
X295540D01*
Y322730D01*
D02*
G37*
G36*
X285040Y301730D02*
X281270D01*
Y297460D01*
X285040D01*
Y301730D01*
D02*
G37*
G36*
X278730D02*
X274960D01*
Y297460D01*
X278730D01*
Y301730D01*
D02*
G37*
G36*
X263000Y263421D02*
X261117Y263046D01*
X259521Y261979D01*
X258454Y260383D01*
X258079Y258500D01*
X258454Y256617D01*
X259521Y255021D01*
X261117Y253954D01*
X263000Y253580D01*
X264883Y253954D01*
X266479Y255021D01*
X267546Y256617D01*
X267920Y258500D01*
X267546Y260383D01*
X266479Y261979D01*
X264883Y263046D01*
X263000Y263421D01*
D02*
G37*
G36*
X209540Y322790D02*
X204270D01*
Y316270D01*
X209540D01*
Y322790D01*
D02*
G37*
G36*
X201730D02*
X196460D01*
Y316270D01*
X201730D01*
Y322790D01*
D02*
G37*
G36*
X249620Y323890D02*
X243270D01*
Y316270D01*
X249620D01*
Y323890D01*
D02*
G37*
G36*
X240730D02*
X234380D01*
Y316270D01*
X240730D01*
Y323890D01*
D02*
G37*
G36*
X60030Y329782D02*
X60009Y329778D01*
X58222D01*
Y328465D01*
X57941Y328368D01*
X57403Y328244D01*
X56718Y328140D01*
X55449Y328050D01*
X49750D01*
X47817Y327665D01*
X46179Y326571D01*
X40429Y320821D01*
X39334Y319182D01*
X38950Y317250D01*
Y308000D01*
X39334Y306067D01*
X40429Y304429D01*
X42067Y303334D01*
X44000Y302950D01*
X45932Y303334D01*
X47571Y304429D01*
X48666Y306067D01*
X49050Y308000D01*
Y315158D01*
X51842Y317950D01*
X55633D01*
X55853Y317943D01*
X56697Y317863D01*
X57403Y317756D01*
X57941Y317631D01*
X58222Y317535D01*
Y316222D01*
X60009D01*
X60030Y316217D01*
X60052Y316222D01*
X69778D01*
Y329778D01*
X60052D01*
X60030Y329782D01*
D02*
G37*
G36*
X144540Y315040D02*
X140270D01*
Y311270D01*
X144540D01*
Y315040D01*
D02*
G37*
G36*
X209540Y313730D02*
X204270D01*
Y307210D01*
X209540D01*
Y313730D01*
D02*
G37*
G36*
X201730D02*
X196460D01*
Y307210D01*
X201730D01*
Y307749D01*
X200984D01*
X200974Y308140D01*
X200944Y308491D01*
X200893Y308800D01*
X200822Y309069D01*
X200730Y309295D01*
X200618Y309481D01*
X200486Y309625D01*
X200334Y309729D01*
X200161Y309790D01*
X199968Y309811D01*
X201730D01*
Y313730D01*
D02*
G37*
G36*
X24540Y313540D02*
X14270D01*
Y303270D01*
X24540D01*
Y313540D01*
D02*
G37*
G36*
Y300730D02*
X14270D01*
Y290460D01*
X24540D01*
Y300730D01*
D02*
G37*
G36*
X131890Y277620D02*
X124270D01*
Y271270D01*
X129320D01*
Y271500D01*
X129344Y271270D01*
X131890D01*
Y277620D01*
D02*
G37*
G36*
X121730D02*
X114110D01*
Y271270D01*
X121730D01*
Y277620D01*
D02*
G37*
G36*
X129320Y268730D02*
X124270D01*
Y262380D01*
X131890D01*
Y266989D01*
X131750Y266985D01*
X131240Y266940D01*
X130790Y266865D01*
X130400Y266760D01*
X130070Y266625D01*
X129800Y266460D01*
X129590Y266265D01*
X129440Y266040D01*
X129350Y265785D01*
X129320Y265500D01*
Y268730D01*
D02*
G37*
G36*
X121730D02*
X114110D01*
Y262380D01*
X121730D01*
Y268730D01*
D02*
G37*
G36*
X34540Y256540D02*
X29270D01*
Y250270D01*
X34540D01*
Y256540D01*
D02*
G37*
G36*
X26730D02*
X21460D01*
Y250270D01*
X26730D01*
Y256540D01*
D02*
G37*
G36*
X34540Y247730D02*
X29270D01*
Y241460D01*
X34540D01*
Y247730D01*
D02*
G37*
G36*
X26730D02*
X21460D01*
Y241460D01*
X26730D01*
Y247730D01*
D02*
G37*
G36*
X19500Y235101D02*
X16270D01*
Y229270D01*
X26434D01*
X26359Y229838D01*
X25650Y231550D01*
X24521Y233021D01*
X23051Y234149D01*
X21338Y234859D01*
X19500Y235101D01*
D02*
G37*
G36*
X26434Y226730D02*
X16270D01*
Y220899D01*
X19500D01*
X21338Y221141D01*
X23051Y221850D01*
X24521Y222979D01*
X25650Y224450D01*
X26359Y226162D01*
X26434Y226730D01*
D02*
G37*
G36*
X92015Y229921D02*
X90132Y229546D01*
X88536Y228479D01*
X87469Y226883D01*
X87419Y226630D01*
X81642Y220853D01*
X57648D01*
X57433Y220996D01*
X55550Y221371D01*
X53667Y220996D01*
X52071Y219929D01*
X51004Y218333D01*
X50629Y216450D01*
X51004Y214567D01*
X52071Y212971D01*
X53667Y211904D01*
X55550Y211530D01*
X57433Y211904D01*
X57648Y212048D01*
X83465D01*
X85150Y212383D01*
X86578Y213337D01*
X93645Y220404D01*
X93898Y220454D01*
X95494Y221521D01*
X96561Y223117D01*
X96936Y225000D01*
X96561Y226883D01*
X95494Y228479D01*
X93898Y229546D01*
X92015Y229921D01*
D02*
G37*
G36*
X55450Y196471D02*
X53567Y196096D01*
X51971Y195029D01*
X50904Y193433D01*
X50529Y191550D01*
X50904Y189667D01*
X51971Y188071D01*
X53567Y187004D01*
X55450Y186629D01*
X57333Y187004D01*
X58929Y188071D01*
X58962Y188120D01*
X58967Y188121D01*
X59087Y188148D01*
X59221Y188170D01*
X59378Y188183D01*
X84056D01*
X92875Y179363D01*
X92931Y179295D01*
X93023Y179166D01*
X93088Y179062D01*
X93091Y179058D01*
X93080Y179000D01*
X93454Y177117D01*
X94521Y175521D01*
X96117Y174454D01*
X98000Y174079D01*
X99883Y174454D01*
X101479Y175521D01*
X102546Y177117D01*
X102921Y179000D01*
X102546Y180883D01*
X101479Y182479D01*
X99883Y183546D01*
X98000Y183920D01*
X97942Y183909D01*
X97937Y183912D01*
X97834Y183977D01*
X97723Y184056D01*
X97603Y184158D01*
X87831Y193930D01*
X86739Y194660D01*
X85450Y194917D01*
X59331D01*
X59243Y194926D01*
X59087Y194951D01*
X58967Y194979D01*
X58962Y194980D01*
X58929Y195029D01*
X57333Y196096D01*
X55450Y196471D01*
D02*
G37*
G36*
X19500Y169101D02*
X16270D01*
Y163270D01*
X26434D01*
X26359Y163838D01*
X25650Y165550D01*
X24521Y167021D01*
X23051Y168149D01*
X21338Y168859D01*
X19500Y169101D01*
D02*
G37*
G36*
X26434Y160730D02*
X16270D01*
Y154899D01*
X19500D01*
X21338Y155141D01*
X23051Y155851D01*
X24521Y156979D01*
X25650Y158450D01*
X26359Y160162D01*
X26434Y160730D01*
D02*
G37*
%LPD*%
G36*
X60030Y318030D02*
X59967Y318371D01*
X59776Y318676D01*
X59459Y318946D01*
X59014Y319179D01*
X58443Y319376D01*
X57744Y319538D01*
X56919Y319663D01*
X55966Y319753D01*
X53680Y319825D01*
Y326175D01*
X54887Y326193D01*
X56919Y326336D01*
X57744Y326462D01*
X58443Y326623D01*
X59014Y326821D01*
X59459Y327054D01*
X59776Y327323D01*
X59967Y327628D01*
X60030Y327969D01*
Y318030D01*
D02*
G37*
G36*
X57757Y193568D02*
X57910Y193464D01*
X58084Y193373D01*
X58280Y193293D01*
X58499Y193226D01*
X58739Y193172D01*
X59001Y193129D01*
X59285Y193098D01*
X59918Y193074D01*
Y190026D01*
X59591Y190020D01*
X59001Y189971D01*
X58739Y189928D01*
X58499Y189874D01*
X58280Y189806D01*
X58084Y189727D01*
X57910Y189636D01*
X57757Y189532D01*
X57627Y189416D01*
Y193683D01*
X57757Y193568D01*
D02*
G37*
G36*
X96154Y183010D02*
X96606Y182627D01*
X96821Y182472D01*
X97030Y182341D01*
X97232Y182234D01*
X97426Y182151D01*
X97614Y182093D01*
X97795Y182058D01*
X97970Y182048D01*
X94952Y179030D01*
X94942Y179205D01*
X94907Y179386D01*
X94849Y179574D01*
X94766Y179768D01*
X94659Y179970D01*
X94528Y180179D01*
X94373Y180394D01*
X94194Y180617D01*
X93763Y181082D01*
X95918Y183237D01*
X96154Y183010D01*
D02*
G37*
%LPC*%
G36*
X304790Y171290D02*
X298520D01*
Y166020D01*
X304790D01*
Y171290D01*
D02*
G37*
G36*
Y163480D02*
X298520D01*
Y158210D01*
X304790D01*
Y163480D01*
D02*
G37*
G36*
X272000Y139016D02*
X271684Y137998D01*
X272000Y136984D01*
Y139016D01*
D02*
G37*
G36*
X235730Y101560D02*
X231460D01*
Y97590D01*
X235730D01*
Y101560D01*
D02*
G37*
G36*
X264040Y99730D02*
X260270D01*
Y95460D01*
X264040D01*
Y99730D01*
D02*
G37*
%LPD*%
D10*
X217000Y139071D02*
G03*
X222000Y127000I17071J0D01*
G01*
X275166Y109738D02*
G03*
X283000Y124000I-9066J14262D01*
G01*
X260565Y149875D02*
G03*
X255000Y144310I0J-5565D01*
G01*
X251071Y133071D02*
G03*
X255000Y142556I-9485J9485D01*
G01*
X234000Y126000D02*
G03*
X251071Y133071I0J24142D01*
G01*
X304265Y199734D02*
X305999Y197999D01*
X304265Y199734D02*
Y207010D01*
X133000Y292000D02*
X134500D01*
X135000Y293500D02*
X136000D01*
X133750D02*
X135000D01*
X133750Y292250D02*
Y293500D01*
X135000Y293302D02*
Y293500D01*
X305000Y197000D02*
X305999Y197999D01*
X217000Y139071D02*
Y142300D01*
X223000Y127000D02*
X224000D01*
X187000Y299700D02*
Y312930D01*
X188000Y96320D02*
Y105650D01*
Y96320D02*
X189000Y95320D01*
X189000Y71500D02*
X192000Y68500D01*
X189000Y71500D02*
Y86680D01*
X187000Y132320D02*
Y142300D01*
X134500Y292000D02*
X136000Y293500D01*
X123000Y292930D02*
X123930Y292000D01*
X136000Y293500D02*
X140800D01*
X106000Y321000D02*
X110302Y325302D01*
X28000Y265000D02*
X44000Y281000D01*
X47000D01*
X143698Y325302D02*
X145000Y324000D01*
X110302Y325302D02*
X143698D01*
X85450Y191550D02*
X98000Y179000D01*
X55450Y191550D02*
X85450D01*
X187000Y312930D02*
X187070Y313000D01*
X229680Y87680D02*
X238000D01*
X222500Y68000D02*
Y80500D01*
X229680Y87680D01*
X255000Y142556D02*
Y144310D01*
X275500Y60750D02*
Y69500D01*
X276000Y70000D01*
Y80000D01*
X276000Y80000D01*
D11*
X257057Y124798D02*
G03*
X257750Y125000I163J732D01*
G01*
X255307Y124298D02*
G03*
X256000Y124500I163J732D01*
G01*
X256057Y124548D02*
G03*
X256750Y124750I163J732D01*
G01*
X258307Y125048D02*
G03*
X259000Y125250I163J732D01*
G01*
X259557Y125048D02*
G03*
X260250Y125250I163J732D01*
G01*
X309035Y237465D02*
X346215D01*
X291750Y254750D02*
X309035Y237465D01*
X295103Y233147D02*
X370648D01*
X293239Y235012D02*
X295103Y233147D01*
X286761Y235012D02*
X293239D01*
X285000Y233250D02*
X286761Y235012D01*
X285014D02*
X286761D01*
X288000Y222500D02*
X294285Y228785D01*
X346465D01*
X366550Y208700D01*
X250500Y293500D02*
X256000Y299000D01*
X269000Y174750D02*
Y176750D01*
X262250Y168000D02*
X269000Y174750D01*
X262250Y165021D02*
Y168000D01*
X297750Y188250D02*
X313750D01*
X289000Y197000D02*
X297750Y188250D01*
X370648Y233147D02*
X371600Y234100D01*
X346215Y237465D02*
X368250Y259500D01*
X113256Y248745D02*
Y248762D01*
Y248745D02*
X123500Y238500D01*
X111505Y233511D02*
X140788D01*
X140800Y233500D01*
X140800Y233500D01*
X368250Y259500D02*
X371600D01*
X366550Y208700D02*
X371600D01*
X187000Y115350D02*
Y123680D01*
Y115350D02*
X188000Y114350D01*
X117500Y173500D02*
X140800D01*
X109876Y163500D02*
X140800D01*
X104000Y153000D02*
X115000D01*
X118000Y156000D01*
Y157000D02*
X119000Y156000D01*
X174001Y292000D02*
X179000D01*
X174001Y291999D02*
X174001Y292000D01*
X167000Y290000D02*
X167000Y290000D01*
X130000Y156000D02*
X132500Y158500D01*
X129000Y155000D02*
X130000Y156000D01*
X119000D02*
X120000Y155000D01*
X119000Y156000D02*
X130000D01*
X117000Y173000D02*
X117500Y173500D01*
X44000Y265000D02*
X44000Y265000D01*
Y249000D02*
Y265000D01*
X123500Y238500D02*
X140800D01*
X192000Y68500D02*
X192500Y68000D01*
X132500Y158500D02*
X140800D01*
X172000Y294000D02*
Y299700D01*
Y294000D02*
X174001Y291999D01*
X256000Y299000D02*
X256000D01*
X255000Y289000D02*
X257000D01*
X250500Y293500D02*
X255000Y289000D01*
X140800Y243500D02*
X146500D01*
X150000Y247000D01*
X118000Y141000D02*
X126000Y133000D01*
X128000D01*
X276000Y90000D02*
Y99000D01*
X276000Y99000D02*
X276000Y99000D01*
X262250Y165021D02*
X262263Y165008D01*
X267000Y123550D02*
Y126125D01*
X262358Y118908D02*
X267000Y123550D01*
X259000Y118908D02*
X262358D01*
X44000Y265000D02*
X53250Y274250D01*
Y285250D01*
X71000Y303000D01*
D12*
X313250Y328180D02*
D03*
Y305320D02*
D03*
X123000Y292930D02*
D03*
X123000Y270000D02*
D03*
D13*
X203000Y315000D02*
D03*
X187000D02*
D03*
D14*
X9500Y14000D02*
D03*
X222500D02*
D03*
Y68000D02*
D03*
X24500D02*
D03*
X9500D02*
D03*
D15*
X192500Y14000D02*
D03*
Y68000D02*
D03*
D16*
X274401Y161000D02*
D03*
X283601D02*
D03*
D17*
X276000Y99000D02*
D03*
Y109000D02*
D03*
X276000Y70000D02*
D03*
X286000D02*
D03*
X129000Y310000D02*
D03*
X139000D02*
D03*
X280000Y324000D02*
D03*
X290000D02*
D03*
X224000Y126000D02*
D03*
X234000D02*
D03*
X266000Y299000D02*
D03*
X256000Y299000D02*
D03*
D18*
X276000Y80000D02*
D03*
Y90000D02*
D03*
X103000Y248000D02*
D03*
Y258000D02*
D03*
X280000Y313000D02*
D03*
Y303000D02*
D03*
X259000Y111000D02*
D03*
Y101000D02*
D03*
X130000Y146000D02*
D03*
Y156000D02*
D03*
X116000Y309000D02*
D03*
X116000Y319000D02*
D03*
X172000Y321000D02*
D03*
Y311000D02*
D03*
X250000Y111000D02*
D03*
Y101000D02*
D03*
D19*
X224000Y281000D02*
D03*
X208000D02*
D03*
X176000D02*
D03*
X192000D02*
D03*
X160000D02*
D03*
Y261000D02*
D03*
X192000D02*
D03*
X176000D02*
D03*
X208000D02*
D03*
X224000D02*
D03*
Y241000D02*
D03*
X208000D02*
D03*
X176000D02*
D03*
X192000D02*
D03*
X160000D02*
D03*
X224000Y201000D02*
D03*
X208000D02*
D03*
X176000D02*
D03*
X192000D02*
D03*
X160000D02*
D03*
X224000Y221000D02*
D03*
X208000D02*
D03*
X176000D02*
D03*
X192000D02*
D03*
X160000D02*
D03*
X224000Y181000D02*
D03*
X208000D02*
D03*
X176000D02*
D03*
X192000D02*
D03*
X160000D02*
D03*
X208000Y161000D02*
D03*
X176000D02*
D03*
X192000D02*
D03*
X160000D02*
D03*
X224000D02*
D03*
D20*
X243200Y293500D02*
D03*
Y288500D02*
D03*
Y283500D02*
D03*
Y278500D02*
D03*
Y273500D02*
D03*
Y268500D02*
D03*
Y263500D02*
D03*
Y258500D02*
D03*
Y253500D02*
D03*
Y248500D02*
D03*
Y243500D02*
D03*
Y238500D02*
D03*
Y233500D02*
D03*
Y228500D02*
D03*
Y223500D02*
D03*
Y218500D02*
D03*
Y213500D02*
D03*
Y208500D02*
D03*
Y203500D02*
D03*
Y198500D02*
D03*
Y193500D02*
D03*
Y188500D02*
D03*
Y183500D02*
D03*
Y178500D02*
D03*
Y173500D02*
D03*
Y168500D02*
D03*
Y163500D02*
D03*
Y158500D02*
D03*
Y153500D02*
D03*
Y148500D02*
D03*
X140800Y153500D02*
D03*
Y158500D02*
D03*
Y163500D02*
D03*
Y168500D02*
D03*
Y173500D02*
D03*
Y178500D02*
D03*
Y183500D02*
D03*
Y188500D02*
D03*
Y193500D02*
D03*
Y198500D02*
D03*
Y203500D02*
D03*
Y208500D02*
D03*
Y213500D02*
D03*
Y218500D02*
D03*
Y223500D02*
D03*
Y228500D02*
D03*
Y233500D02*
D03*
Y238500D02*
D03*
Y243500D02*
D03*
Y248500D02*
D03*
Y253500D02*
D03*
Y258500D02*
D03*
Y263500D02*
D03*
Y273500D02*
D03*
Y278500D02*
D03*
Y283500D02*
D03*
Y288500D02*
D03*
Y293500D02*
D03*
Y148500D02*
D03*
Y268500D02*
D03*
D21*
X243200Y299700D02*
D03*
Y142300D02*
D03*
X140800Y299700D02*
D03*
Y142300D02*
D03*
D22*
X237000D02*
D03*
X232000D02*
D03*
X227000D02*
D03*
X222000D02*
D03*
X217000D02*
D03*
X212000D02*
D03*
X207000D02*
D03*
X202000D02*
D03*
X197000D02*
D03*
X192000D02*
D03*
X187000D02*
D03*
X177000D02*
D03*
X172000D02*
D03*
X167000D02*
D03*
X162000D02*
D03*
X157000D02*
D03*
X152000D02*
D03*
X147000D02*
D03*
X152000Y299700D02*
D03*
X157000D02*
D03*
X162000D02*
D03*
X167000D02*
D03*
X172000D02*
D03*
X177000D02*
D03*
X182000D02*
D03*
X187000D02*
D03*
X192000D02*
D03*
X197000D02*
D03*
X202000D02*
D03*
X207000D02*
D03*
X212000D02*
D03*
X217000D02*
D03*
X222000D02*
D03*
X227000D02*
D03*
X232000D02*
D03*
X237000D02*
D03*
X182000Y142300D02*
D03*
X147000Y299700D02*
D03*
D23*
X235500Y278500D02*
D03*
Y268500D02*
D03*
Y273500D02*
D03*
Y263500D02*
D03*
Y223500D02*
D03*
Y233500D02*
D03*
Y228500D02*
D03*
Y238500D02*
D03*
Y188500D02*
D03*
Y173500D02*
D03*
Y183500D02*
D03*
Y178500D02*
D03*
X148500Y278500D02*
D03*
Y268500D02*
D03*
Y273500D02*
D03*
Y263500D02*
D03*
Y223500D02*
D03*
Y233500D02*
D03*
Y228500D02*
D03*
Y238500D02*
D03*
Y188500D02*
D03*
Y173500D02*
D03*
Y183500D02*
D03*
Y178500D02*
D03*
D24*
X305000Y197000D02*
D03*
X289000D02*
D03*
X145000Y324000D02*
D03*
X161000D02*
D03*
X28000Y249000D02*
D03*
X44000Y249000D02*
D03*
X44000Y265000D02*
D03*
X28000Y265000D02*
D03*
X64000Y323000D02*
D03*
X80000D02*
D03*
X285000Y175750D02*
D03*
X269000Y175750D02*
D03*
D25*
X257000Y288000D02*
D03*
Y272000D02*
D03*
X118000Y140000D02*
D03*
Y156000D02*
D03*
X297250Y180750D02*
D03*
X297250Y164750D02*
D03*
D26*
X260565Y126125D02*
D03*
X260565Y149875D02*
D03*
X283435Y126125D02*
D03*
Y149875D02*
D03*
D27*
X272000Y126125D02*
D03*
X272000Y149875D02*
D03*
X267000Y126125D02*
D03*
X277000Y126125D02*
D03*
Y149875D02*
D03*
X267000D02*
D03*
D28*
X272000Y138000D02*
D03*
D29*
X308700Y47750D02*
D03*
X319300D02*
D03*
D30*
X314000Y20250D02*
D03*
D31*
X264930Y315000D02*
D03*
X242000D02*
D03*
D32*
X188000Y114350D02*
D03*
Y105650D02*
D03*
D33*
X189000Y86680D02*
D03*
X189000Y95320D02*
D03*
X187000Y123680D02*
D03*
Y132320D02*
D03*
X237000Y87680D02*
D03*
X237000Y96320D02*
D03*
D34*
X258000Y248500D02*
X268250Y238250D01*
Y229500D02*
Y238250D01*
Y229500D02*
X284000Y213750D01*
X243200Y299700D02*
X249901D01*
X250206Y299395D01*
X284000Y187000D02*
X290250D01*
X283750D02*
X284000D01*
X290250D02*
X296500Y180750D01*
X297250D01*
X292250Y175750D02*
X297250Y180750D01*
X285000Y175750D02*
X292250D01*
X243200Y248500D02*
X258000D01*
X202000Y312000D02*
X202000Y312000D01*
Y299700D02*
Y312000D01*
X127613Y196000D02*
X135112Y188500D01*
X124000Y196000D02*
X127613D01*
X135112Y188500D02*
X136000D01*
X135112D02*
X140800D01*
X131000Y145300D02*
Y147000D01*
X129000Y147000D02*
X130000Y146000D01*
X122000Y147000D02*
X129000D01*
X131000Y147000D02*
X137500Y153500D01*
X139000Y310000D02*
X140800Y308200D01*
Y299700D02*
Y308200D01*
X162000Y306000D02*
X163000Y307000D01*
X162000Y299700D02*
Y306000D01*
X243200Y288500D02*
X247500D01*
X177000Y299700D02*
Y306000D01*
X174000Y309000D02*
X177000Y306000D01*
X222000Y299700D02*
Y309000D01*
X222000Y309000D02*
X222000Y309000D01*
X243200Y299700D02*
Y310800D01*
X241000Y313000D02*
X243200Y310800D01*
X254500Y253500D02*
X255000Y254000D01*
X256500Y233500D02*
X257000Y234000D01*
X252500Y208500D02*
X253000Y208000D01*
X243200Y193500D02*
X250500D01*
X251000Y194000D01*
X243200Y183500D02*
X249500D01*
X250000Y184000D01*
X243200Y178500D02*
X255500D01*
X243200Y173500D02*
X251500D01*
X243200Y168500D02*
X253500D01*
X243200Y163500D02*
X254500D01*
X243200Y153500D02*
X250500D01*
X162000Y134000D02*
Y142300D01*
X140800Y134800D02*
Y142300D01*
X131000Y145300D02*
X134000Y142300D01*
X140800D01*
X134000Y168000D02*
X134500Y168500D01*
X212000Y136000D02*
Y142300D01*
X243200Y188500D02*
X252500D01*
X256000Y272000D02*
X257000D01*
X253016Y273000D02*
X255000D01*
X257000D01*
X255000D02*
X256000Y272000D01*
X247500Y288500D02*
X249206Y286794D01*
Y278794D02*
Y286794D01*
Y278794D02*
X255000Y273000D01*
X182000Y138479D02*
Y142300D01*
X177521Y134000D02*
X182000Y138479D01*
X192000Y140060D02*
Y142300D01*
Y140060D02*
X197000Y135060D01*
Y142300D01*
X177000Y134000D02*
X177521D01*
X243200Y135200D02*
Y142300D01*
X286000Y70000D02*
X295000D01*
X296000Y71000D01*
X286000Y70000D02*
Y76000D01*
X284000Y78000D02*
X286000Y76000D01*
X243200Y142300D02*
X249700D01*
X243200Y158500D02*
X251750D01*
X247000Y136000D02*
X247614D01*
X249135Y137521D01*
X256250Y132514D02*
X261736Y138000D01*
X264170D01*
X272000D01*
X256960Y130790D02*
X264170Y138000D01*
X256250Y131750D02*
Y132514D01*
X254500Y123000D02*
X254830D01*
X277000Y121104D02*
Y126125D01*
X269000Y113250D02*
X269146D01*
X277000Y121104D01*
X255870Y123950D02*
X256670Y124750D01*
X256750D01*
X255841Y124012D02*
X255870Y123950D01*
X255450Y124855D02*
X255841Y124012D01*
X254500Y123000D02*
X255574Y123745D01*
X255870Y123950D01*
X254830Y123000D02*
X255574Y123745D01*
X255841Y124012D01*
X256580Y124750D01*
D35*
X280000Y324000D02*
Y332000D01*
X280000Y313000D02*
X280000Y324000D01*
X49750Y323000D02*
X64000D01*
X44000Y317250D02*
X49750Y323000D01*
X44000Y308000D02*
Y317250D01*
X105583Y309000D02*
X127000D01*
X80000Y323000D02*
X91583D01*
X266930Y313000D02*
X280000D01*
Y332000D02*
X280000Y332000D01*
X280000Y324000D02*
Y332000D01*
X266000Y301000D02*
Y313930D01*
X91583Y323000D02*
X105583Y309000D01*
X9500Y68000D02*
X24500D01*
D36*
X134500Y183500D02*
X140800Y183500D01*
X262250Y207750D02*
X262500D01*
X256500Y213500D02*
X262250Y207750D01*
X243200Y213500D02*
X256500D01*
X267500Y218500D02*
X289000Y197000D01*
X167000Y290000D02*
Y299700D01*
X137500Y153500D02*
X140800D01*
X243200Y293500D02*
X250500D01*
X128500Y268500D02*
X140800D01*
X132500Y248500D02*
X140800D01*
X243200Y253500D02*
X254500D01*
X243200Y233500D02*
X256500D01*
X243200Y208500D02*
X252500D01*
X132250Y198500D02*
X141000D01*
X131452Y223500D02*
X140800D01*
X134500Y168500D02*
X140800D01*
X207000Y134000D02*
Y142300D01*
X243200Y218500D02*
X267500D01*
X243200Y273500D02*
X248076D01*
X248722Y272854D01*
X242200Y273500D02*
X243200D01*
D37*
X298000Y333000D02*
X307250D01*
X310000Y330250D02*
X310750D01*
X307250Y333000D02*
X310000Y330250D01*
X123930Y292000D02*
X133000D01*
X123000Y292930D02*
X129000Y298930D01*
Y309000D01*
X280000Y332000D02*
Y332945D01*
X264930Y315000D02*
X266930Y313000D01*
X103000Y258000D02*
Y260580D01*
X94580Y269000D02*
X103000Y260580D01*
X168500Y324000D02*
X172000Y320500D01*
X181070Y321000D02*
X187070Y315000D01*
X172000Y321000D02*
X181070D01*
X161000Y324000D02*
X168500D01*
X264930Y314000D02*
X265930D01*
X263930Y313000D02*
Y314000D01*
Y313000D02*
X264930Y314000D01*
X83465Y216450D02*
X92015Y225000D01*
X264930Y314000D02*
X265000Y314070D01*
X55550Y216450D02*
X83465D01*
D38*
X242674Y105651D02*
X243942D01*
X249291Y111000D01*
X250000D01*
X259000D02*
X259000Y111000D01*
X250000Y111000D02*
X259000D01*
X311000Y271000D02*
X316000Y266000D01*
X311000Y303000D02*
X312000Y304000D01*
X311000Y271000D02*
Y303000D01*
X103000Y248000D02*
X103000Y248000D01*
Y239000D02*
Y248000D01*
D39*
X283601Y159541D02*
Y161000D01*
X277000Y149875D02*
Y153000D01*
X278198Y154198D01*
X272000Y149875D02*
Y158000D01*
X274000Y160000D01*
X283000Y158941D02*
Y160000D01*
X278198Y154198D02*
X278257D01*
X283000Y158941D01*
X267000Y149875D02*
Y155000D01*
D40*
X271930Y122070D02*
X272000Y126125D01*
X259000Y111000D02*
X260854D01*
X267273Y117419D01*
X267279D01*
X271930Y122070D01*
D41*
X191425Y161030D02*
D03*
Y181030D02*
D03*
X191425Y201030D02*
D03*
X191425Y221030D02*
D03*
X191425Y241030D02*
D03*
X191425Y261030D02*
D03*
Y281030D02*
D03*
D42*
X160030Y220816D02*
D03*
X176030D02*
D03*
X192021Y220825D02*
D03*
X208030Y220816D02*
D03*
X224030D02*
D03*
D43*
X276998Y128474D02*
D03*
D44*
X282682Y147814D02*
D03*
D45*
X260035Y128296D02*
D03*
D46*
X261859Y129043D02*
D03*
D47*
X260032Y129502D02*
D03*
D48*
X266999Y146502D02*
D03*
D49*
X312500Y12500D02*
D03*
D50*
X285500Y142000D02*
D03*
D51*
X287250Y131014D02*
D03*
D52*
X265168Y155889D02*
D03*
D53*
X255777Y127395D02*
D03*
D54*
X258231Y130533D02*
D03*
D55*
X260491Y129015D02*
D03*
D56*
X234375Y99625D02*
D03*
D57*
X371600Y259500D02*
D03*
X397000Y234100D02*
D03*
X371600D02*
D03*
X397000Y208700D02*
D03*
X371600D02*
D03*
D58*
X397000Y259500D02*
D03*
D59*
X15000Y162000D02*
D03*
Y228000D02*
D03*
D60*
X13000Y302000D02*
D03*
D61*
X13000Y327400D02*
D03*
D62*
X313660Y209600D02*
D03*
X293340D02*
D03*
X303500Y260400D02*
D03*
D63*
X320750Y251750D02*
D03*
X294000Y271000D02*
D03*
X289000Y263750D02*
D03*
X291750Y254750D02*
D03*
X284000Y213750D02*
D03*
X285014Y235012D02*
D03*
X288000Y222500D02*
D03*
X304265Y207010D02*
D03*
X128000Y181000D02*
D03*
X93250Y243250D02*
D03*
X74500Y185000D02*
D03*
X109500Y177500D02*
D03*
X262500Y207750D02*
D03*
X256000Y199000D02*
D03*
X278750Y286000D02*
D03*
X263000Y258500D02*
D03*
X315750Y160250D02*
D03*
X303500Y151750D02*
D03*
X317250Y143000D02*
D03*
X304250Y130250D02*
D03*
X317000Y117500D02*
D03*
X299250Y101000D02*
D03*
X317750Y88500D02*
D03*
X313750Y188250D02*
D03*
X266000Y281000D02*
D03*
X288500Y293250D02*
D03*
X284750Y243000D02*
D03*
X113256Y248762D02*
D03*
X111505Y233511D02*
D03*
X298000Y333000D02*
D03*
X317250Y198250D02*
D03*
X242674Y105651D02*
D03*
X320500Y218750D02*
D03*
X258013Y240012D02*
D03*
X316000Y266000D02*
D03*
X54000Y314750D02*
D03*
X55000Y307250D02*
D03*
X279500Y271250D02*
D03*
X223000Y324000D02*
D03*
X195000D02*
D03*
X135000Y318000D02*
D03*
X111000Y299000D02*
D03*
X106000Y321000D02*
D03*
X280000Y332945D02*
D03*
X254000Y324000D02*
D03*
X109876Y163701D02*
D03*
X104000Y153000D02*
D03*
X92000Y150000D02*
D03*
X15000D02*
D03*
X30000D02*
D03*
X45000D02*
D03*
X177000Y134000D02*
D03*
Y127000D02*
D03*
Y120000D02*
D03*
X112000Y131000D02*
D03*
Y120000D02*
D03*
X94580Y269000D02*
D03*
X47000Y281000D02*
D03*
X160000Y248000D02*
D03*
X168000Y241000D02*
D03*
X176000Y248000D02*
D03*
X168000Y261000D02*
D03*
X184000Y241000D02*
D03*
X192000Y248000D02*
D03*
X184000Y261000D02*
D03*
X200000Y241000D02*
D03*
X208000Y247000D02*
D03*
X216000Y241000D02*
D03*
X200000Y261000D02*
D03*
X224000Y248000D02*
D03*
X53000Y253000D02*
D03*
X111000Y268000D02*
D03*
X119000Y255000D02*
D03*
X129000Y281500D02*
D03*
X28000Y239000D02*
D03*
X231000Y314000D02*
D03*
X214000D02*
D03*
X160000Y311000D02*
D03*
X148000D02*
D03*
X91750Y165500D02*
D03*
X100750Y168750D02*
D03*
X83500Y159000D02*
D03*
X56500Y204000D02*
D03*
X67000Y204000D02*
D03*
X78000D02*
D03*
X54750Y234250D02*
D03*
X7000Y244000D02*
D03*
X17000Y256000D02*
D03*
X7000D02*
D03*
X17000Y268000D02*
D03*
X7000D02*
D03*
X17000Y281000D02*
D03*
X96000Y291500D02*
D03*
X114000Y282000D02*
D03*
X130000Y255000D02*
D03*
X83750Y244500D02*
D03*
X93500Y234500D02*
D03*
X179000Y292000D02*
D03*
X167000Y290000D02*
D03*
X103000Y239000D02*
D03*
X117000Y173000D02*
D03*
X7000Y281000D02*
D03*
X35250Y307500D02*
D03*
X71000Y303000D02*
D03*
X53000Y263000D02*
D03*
X92015Y225000D02*
D03*
X98000Y179000D02*
D03*
X55450Y191550D02*
D03*
X44000Y308000D02*
D03*
X150000Y247000D02*
D03*
X198000Y120000D02*
D03*
X160000Y271000D02*
D03*
X176000D02*
D03*
X168000Y281000D02*
D03*
X184000D02*
D03*
X200000D02*
D03*
X216000D02*
D03*
X192000Y271000D02*
D03*
X208000D02*
D03*
X224000D02*
D03*
X160000Y231000D02*
D03*
X176000D02*
D03*
X192000D02*
D03*
X208000D02*
D03*
X224000D02*
D03*
X208000Y211000D02*
D03*
X224000D02*
D03*
X192000Y210000D02*
D03*
X176000Y211000D02*
D03*
X160000D02*
D03*
X128000Y133000D02*
D03*
X151000Y155000D02*
D03*
X124000Y196000D02*
D03*
X17000Y244000D02*
D03*
X60000Y150000D02*
D03*
X75000D02*
D03*
X168000Y182000D02*
D03*
X201000Y161000D02*
D03*
X216000Y261000D02*
D03*
X127000Y216000D02*
D03*
X320000Y7000D02*
D03*
X198000Y134000D02*
D03*
X312000Y7000D02*
D03*
X304000D02*
D03*
X296000D02*
D03*
X288000D02*
D03*
X280000D02*
D03*
X272000D02*
D03*
X264000D02*
D03*
X267000Y78750D02*
D03*
Y87000D02*
D03*
X207000D02*
D03*
Y98000D02*
D03*
Y109000D02*
D03*
X217500Y85250D02*
D03*
X186000Y182000D02*
D03*
X208000Y168000D02*
D03*
X216000Y161000D02*
D03*
X224000Y171000D02*
D03*
X216000Y121000D02*
D03*
X123000Y120000D02*
D03*
X134000D02*
D03*
X145000D02*
D03*
X166000D02*
D03*
X155000D02*
D03*
X281000Y135000D02*
D03*
X263000Y141000D02*
D03*
X281000D02*
D03*
X275000Y141000D02*
D03*
X269000Y141000D02*
D03*
X263000Y135000D02*
D03*
X269000Y135000D02*
D03*
X275000Y135000D02*
D03*
X258000Y185000D02*
D03*
X257000Y7000D02*
D03*
Y15000D02*
D03*
Y23000D02*
D03*
Y31000D02*
D03*
Y39000D02*
D03*
Y47000D02*
D03*
Y55000D02*
D03*
Y62500D02*
D03*
X267000Y71500D02*
D03*
X261500Y68000D02*
D03*
X318000D02*
D03*
X310000D02*
D03*
X302000D02*
D03*
X296000Y72000D02*
D03*
X292000Y78000D02*
D03*
X284000Y79000D02*
D03*
Y87000D02*
D03*
Y94000D02*
D03*
Y101000D02*
D03*
Y108000D02*
D03*
X233000Y134000D02*
D03*
X267000Y94250D02*
D03*
X225500Y118000D02*
D03*
X205000Y152000D02*
D03*
X198000Y127000D02*
D03*
X225000Y134000D02*
D03*
X212000Y130000D02*
D03*
X245000Y121000D02*
D03*
X235750Y118000D02*
D03*
X241000Y135000D02*
D03*
X288000Y115000D02*
D03*
X291000Y122000D02*
D03*
Y129000D02*
D03*
Y136000D02*
D03*
Y143000D02*
D03*
Y150000D02*
D03*
X265000Y157000D02*
D03*
X284000Y187000D02*
D03*
X239000Y9750D02*
D03*
X238500Y19750D02*
D03*
X237750Y74750D02*
D03*
X238000Y62000D02*
D03*
Y46750D02*
D03*
X238750Y31250D02*
D03*
X254500Y85750D02*
D03*
X261250Y230250D02*
D03*
X256500Y174000D02*
D03*
X251000Y152000D02*
D03*
X257000Y157000D02*
D03*
X262263Y165008D02*
D03*
X267000Y101000D02*
D03*
X267250Y108000D02*
D03*
X252000Y125000D02*
D03*
X259000Y118908D02*
D03*
X244750Y82250D02*
D03*
X231500Y95500D02*
D03*
X55550Y216450D02*
D03*
X24500Y318000D02*
D03*
X30500Y176500D02*
D03*
X30000Y213000D02*
D03*
Y194500D02*
D03*
X54750Y225250D02*
D03*
X27750Y302750D02*
D03*
X46500Y290250D02*
D03*
X66000Y289250D02*
D03*
X85000Y288500D02*
D03*
X85570Y301730D02*
D03*
M02*
