G04 Layer_Color=32896*
%FSLAX44Y44*%
%MOMM*%
G71*
G01*
G75*
%ADD11C,0.2540*%
%ADD34C,0.2032*%
%ADD88C,0.1000*%
%ADD89C,0.2000*%
%ADD91C,0.1270*%
%ADD134C,0.2400*%
D11*
X273035Y300635D02*
Y330635D01*
Y300635D02*
X288275D01*
Y330635D01*
X273035D02*
X288275D01*
X271285Y265885D02*
Y295885D01*
Y265885D02*
X286525D01*
X286525Y295885D01*
X271285Y295885D02*
X286525Y295885D01*
X-616510Y-255210D02*
X-509510D01*
X25700Y340100D02*
X25700Y289300D01*
X700D02*
X25700D01*
X300D02*
X300Y340100D01*
X25700Y340100D01*
X700Y314700D02*
X25700Y314700D01*
X2000Y242500D02*
X6063D01*
Y244531D01*
X5386Y245208D01*
X4031D01*
X3354Y244531D01*
Y242500D01*
X5386Y249271D02*
X6063Y248594D01*
Y247240D01*
X5386Y246563D01*
X2677D01*
X2000Y247240D01*
Y248594D01*
X2677Y249271D01*
X6063Y250625D02*
X2000D01*
Y252657D01*
X2677Y253334D01*
X3354D01*
X4031Y252657D01*
Y250625D01*
Y252657D01*
X4708Y253334D01*
X5386D01*
X6063Y252657D01*
Y250625D01*
Y261459D02*
Y258751D01*
X2000D01*
Y261459D01*
X4031Y258751D02*
Y260105D01*
X2000Y262813D02*
X6063D01*
X2000Y265522D01*
X6063D01*
Y266876D02*
X2000D01*
Y268907D01*
X2677Y269585D01*
X5386D01*
X6063Y268907D01*
Y266876D01*
D34*
X338907Y310200D02*
X429907D01*
X338907Y158000D02*
Y310200D01*
Y158000D02*
X429907D01*
Y310200D01*
X421800Y208700D02*
X429907D01*
X421700D02*
Y259500D01*
X429900Y259500D01*
X85840Y296580D02*
X85840Y311820D01*
X106160Y296580D02*
Y311820D01*
X106160Y271180D02*
X106160Y286420D01*
X85840Y271180D02*
Y286420D01*
X85840Y311820D02*
X106160D01*
X85840Y271180D02*
X106160Y271180D01*
D88*
X320750Y175750D02*
G03*
X320750Y175750I-7000J0D01*
G01*
X278750Y236500D02*
G03*
X278750Y236500I-7000J0D01*
G01*
Y193250D02*
G03*
X278750Y193250I-7000J0D01*
G01*
X129000Y147000D02*
G03*
X129000Y147000I-7000J0D01*
G01*
X290000Y175000D02*
G03*
X290000Y175000I-7000J0D01*
G01*
X284250Y254250D02*
G03*
X284250Y254250I-7000J0D01*
G01*
X279000Y215750D02*
G03*
X279000Y215750I-7000J0D01*
G01*
X298000Y286000D02*
X298000Y298000D01*
X298000Y286000D02*
X306952Y286000D01*
X324000Y298000D02*
X324000Y286000D01*
X315000D02*
X324000D01*
X298000Y298000D02*
X307000Y298000D01*
X315000Y298000D02*
X324000Y298000D01*
X247250Y311750D02*
X259250D01*
X247250Y302798D02*
Y311750D01*
Y285750D02*
X259250D01*
X247250D02*
Y294750D01*
X259250Y302750D02*
Y311750D01*
Y285750D02*
Y294750D01*
X247000Y276750D02*
X259000D01*
X247000Y267798D02*
Y276750D01*
Y250750D02*
X259000D01*
X247000D02*
Y259750D01*
X259000Y267750D02*
Y276750D01*
Y250750D02*
Y259750D01*
X62000Y277000D02*
Y286000D01*
Y294000D02*
Y303000D01*
X50000Y286000D02*
X50000Y277000D01*
X62000D01*
X50000Y294048D02*
X50000Y303000D01*
X62000D01*
X79000Y238000D02*
X88000D01*
X62000D02*
X71000Y238000D01*
X79000Y226000D02*
X88000Y226000D01*
Y238000D01*
X62000Y226000D02*
X70952Y226000D01*
X62000Y226000D02*
Y238000D01*
X79000Y181000D02*
X88000D01*
X62000D02*
X71000D01*
X79000Y169000D02*
X88000D01*
Y181000D01*
X62000Y169000D02*
X70952D01*
X62000D02*
Y181000D01*
X93000Y197000D02*
X93000Y209000D01*
X93000Y197000D02*
X101952Y197000D01*
X119000Y197000D02*
X119000Y209000D01*
X110000Y197000D02*
X119000D01*
X93000Y209000D02*
X102000D01*
X110000Y209000D02*
X119000Y209000D01*
X77000Y155000D02*
Y167000D01*
X68048D02*
X77000D01*
X51000Y155000D02*
Y167000D01*
X60000D01*
X68000Y155000D02*
X77000D01*
X51000D02*
X60000D01*
X93000Y182000D02*
X93000Y194000D01*
X93000Y182000D02*
X101952Y182000D01*
X119000Y182000D02*
Y194000D01*
X110000Y182000D02*
X119000D01*
X93000Y194000D02*
X102000D01*
X110000Y194000D02*
X119000Y194000D01*
X32000Y277000D02*
X44000D01*
Y285952D01*
X32000Y303000D02*
X44000D01*
Y294000D02*
Y303000D01*
X32000Y277000D02*
Y286000D01*
Y294000D02*
Y303000D01*
X73000Y334000D02*
X85000D01*
X73000Y325048D02*
Y334000D01*
Y308000D02*
X85000Y308000D01*
X73000Y308000D02*
Y317000D01*
X85000Y325000D02*
Y334000D01*
Y308000D02*
Y317000D01*
X59000Y308000D02*
X71000Y308000D01*
Y316952D01*
X59000Y334000D02*
X71000Y334000D01*
Y325000D02*
Y334000D01*
X59000Y308000D02*
X59000Y317000D01*
X59000Y325000D02*
Y334000D01*
X84500Y283500D02*
Y294500D01*
X82500Y281500D02*
X84500Y283500D01*
X67500Y281500D02*
X82500Y281500D01*
X67500Y294500D02*
X84500D01*
X67500Y281500D02*
X67500Y294500D01*
X54000Y323000D02*
Y335000D01*
X45048D02*
X54000D01*
X28000Y335000D02*
X28000Y323000D01*
X28000Y335000D02*
X37000Y335000D01*
X45000Y323000D02*
X54000Y323000D01*
X28000Y323000D02*
X37000Y323000D01*
X31000Y270000D02*
X43000Y270000D01*
X31000Y270000D02*
X31000Y261048D01*
X31000Y244000D02*
X43000Y244000D01*
X31000Y244000D02*
Y253000D01*
X43000Y261000D02*
Y270000D01*
Y244000D02*
Y253000D01*
X298750Y319000D02*
Y331000D01*
Y319000D02*
X307702D01*
X324750Y331000D02*
X324750Y319000D01*
X315750Y319000D02*
X324750Y319000D01*
X298750Y331000D02*
X307750Y331000D01*
X315750D02*
X324750Y331000D01*
X212565Y97050D02*
X221050Y88565D01*
X227380Y94895D01*
X230950Y115435D02*
X239435Y106950D01*
X233071Y100586D02*
X239435Y106950D01*
X212565Y97050D02*
X218929Y103414D01*
X224586Y109071D02*
X230950Y115435D01*
D89*
X51000Y175000D02*
G03*
X51000Y175000I-1000J0D01*
G01*
X185700Y177430D02*
G03*
X185700Y177430I-1000J0D01*
G01*
X65000Y229000D02*
G03*
X65000Y229000I-1000J0D01*
G01*
X285500Y210000D02*
G03*
X295500Y200000I10000J0D01*
G01*
X321500Y246000D02*
G03*
X319980Y251300I-10000J0D01*
G01*
X287020D02*
G03*
X285500Y246000I8480J-5300D01*
G01*
X311663Y266113D02*
G03*
X295340Y266111I-8161J-5671D01*
G01*
X311500Y200000D02*
G03*
X321500Y210000I0J10000D01*
G01*
X128500Y193000D02*
Y222360D01*
Y193000D02*
X143860D01*
X225140D02*
X240500D01*
Y222360D01*
X128500Y309990D02*
X128500Y249030D01*
X134500Y333000D02*
X234500Y333000D01*
X240500Y249030D02*
Y309990D01*
X311660Y266111D02*
X319980Y251300D01*
X285500Y210000D02*
Y246000D01*
X287020Y251300D02*
X295340Y266111D01*
X321500Y210000D02*
Y246000D01*
X295500Y200000D02*
X311500D01*
D91*
X-6963Y160992D02*
G03*
X-12492Y157537I-1037J-4492D01*
G01*
X-6000Y157000D02*
G03*
X-10000Y155700I-1350J-2650D01*
G01*
X-12994Y232479D02*
G03*
X-6979Y229006I4744J1271D01*
G01*
X-10000Y234300D02*
G03*
X-6000Y233000I2650J1350D01*
G01*
X500Y157000D02*
Y233000D01*
X26000Y157000D02*
X30000Y157000D01*
X26000Y233000D02*
X30000D01*
X1000Y157000D02*
X4000Y157000D01*
X1000Y233000D02*
X4000D01*
X500D02*
Y256500D01*
X-13000Y232500D02*
X-10000Y234300D01*
X-12500Y227000D02*
X-7000D01*
X-12500Y163000D02*
Y227000D01*
Y163000D02*
X-7000D01*
X-12500Y157500D02*
X-10000Y155700D01*
X-6000Y157000D02*
X44000D01*
X-6500D02*
X-6000D01*
X-6500Y233000D02*
X500D01*
X44000D01*
X44000Y157000D01*
X-6500D02*
X-6500Y233000D01*
X86800Y313300D02*
X95200D01*
X86800D02*
Y323700D01*
Y332700D01*
X90700D01*
X95200D01*
Y313300D02*
Y332700D01*
X29300Y311800D02*
Y320200D01*
X39700D01*
X48700D01*
Y316300D02*
Y320200D01*
Y311800D02*
Y316300D01*
X29300Y311800D02*
X48700D01*
X158700Y174800D02*
Y183200D01*
X148300Y174800D02*
X158700D01*
X139300D02*
X148300D01*
X139300D02*
Y178700D01*
Y183200D01*
X158700D01*
X164000Y153950D02*
X180000D01*
X164000Y178050D02*
X180000D01*
X91395Y215460D02*
X93935Y212920D01*
X102825Y212920D01*
X91395Y220540D02*
X93935Y223080D01*
X102825D01*
X93935Y212920D02*
Y223080D01*
X91395Y215460D02*
Y220540D01*
X118065Y212920D02*
X118065Y223080D01*
X109175Y212920D02*
X118065D01*
X109175Y223080D02*
X118065Y223080D01*
X58300Y212800D02*
X58300Y195200D01*
X89700D02*
Y212800D01*
X73500Y272000D02*
X76500Y272000D01*
X73500Y250000D02*
X76500D01*
X297895Y309460D02*
X300435Y306920D01*
X309325Y306920D01*
X297895Y314540D02*
X300435Y317080D01*
X309325D01*
X300435Y306920D02*
X300435Y317080D01*
X297895Y309460D02*
X297895Y314540D01*
X324565Y306920D02*
Y317080D01*
X315675Y306920D02*
X324565D01*
X315675Y317080D02*
X324565D01*
X297145Y275210D02*
X299685Y272670D01*
X308575Y272670D01*
X297145Y280290D02*
X299685Y282830D01*
X308575D01*
X299685Y272670D02*
Y282830D01*
X297145Y280290D02*
X297145Y275210D01*
X323815Y282830D02*
X323815Y272670D01*
X314925D02*
X323815D01*
X314925Y282830D02*
X323815Y282830D01*
X228300Y138550D02*
Y146950D01*
X238700Y146950D01*
X247700Y146950D01*
Y143050D02*
Y146950D01*
Y138550D02*
Y143050D01*
X228300Y138550D02*
X247700D01*
X228300Y155200D02*
X228300Y146800D01*
X228300Y155200D02*
X238700Y155200D01*
X247700Y155200D01*
Y151300D02*
Y155200D01*
Y151300D02*
X247700Y146800D01*
X228300D02*
X247700D01*
D134*
X143030Y186550D02*
G03*
X143030Y186550I-1200J0D01*
G01*
M02*
